<?xml version="1.0" standalone="no"?>
<!DOCTYPE svg PUBLIC "-//W3C//DTD SVG 1.1//EN" "http://www.w3.org/Graphics/SVG/1.1/DTD/svg11.dtd" >
<svg xmlns="http://www.w3.org/2000/svg" xmlns:xlink="http://www.w3.org/1999/xlink" version="1.1">
<metadata>
Created by FontForge 20161003 at Thu May 16 11:06:04 2019
 By www-data
Copyright 2016 Dalton Maag Ltd. Modification of this file requires prior written permission from Dalton Maag Ltd.
</metadata>
<defs>
<font id="Effra_Bd" horiz-adv-x="545" >
  <font-face 
    font-family="Effra_Bd"
    font-weight="700"
    font-stretch="normal"
    units-per-em="1000"
    panose-1="2 11 8 3 2 2 3 2 2 4"
    ascent="667"
    descent="-333"
    x-height="469"
    cap-height="667"
    bbox="-166 -686 1252 1224"
    underline-thickness="51"
    underline-position="-170"
    unicode-range="U+0008-FEFF"
  />
<missing-glyph horiz-adv-x="364" 
d="M33 0v666h265v-666h-265zM66 33h199v600h-199v-600z" />
    <glyph glyph-name="uniFCCC" unicode="&#xfedf;&#xfee4;" horiz-adv-x="324" arabic-form="initial" 
d="M156 -15q-17 9 -28.5 12t-30.5 3h-97l-16 10v124l16 10h107q-11 45 -12 129l-4 371l123 22l-6 -459q0 -23 3.5 -39t13.5 -29t27.5 -24.5t44.5 -24.5l36 -17l-79 -141z" />
    <glyph glyph-name="uniFDF2" unicode="&#x627;&#xfedf;&#xfee0;&#xfeea;" horiz-adv-x="1196" arabic-form="isolated" 
d="M1027 0l-8 644l123 22l-8 -666h-107zM789 546l124 21l-6 -372q-2 -93 -45.5 -144t-129.5 -51q-80 0 -125 56q-22 -26 -55.5 -41t-80.5 -15q-62 0 -108 28t-60 84q-22 -14 -48 -22t-54 -8q-38 0 -69.5 12t-54 33.5t-35 51.5t-12.5 66q0 85 67 144.5t195 89.5l-1 67l117 21
l-6 -352q-1 -40 17.5 -56t58.5 -16q31 0 48 9.5t17 23.5l-5 370l124 21l-6 -397q4 -8 13 -13t19 -8t20.5 -4.5t18.5 -1.5q32 0 49.5 10.5t17.5 25.5zM227 218q40 0 70 12l-2 122q-33 -2 -62.5 -9t-51.5 -18t-34.5 -25.5t-12.5 -29.5q0 -25 24.5 -38.5t68.5 -13.5zM648 633
q-32 0 -48 19q-20 -24 -54 -24q-32 0 -50 19.5t-18 55.5q0 24 9.5 48.5t26.5 44.5l32 -17q-22 -31 -22 -63q0 -33 24 -33t27 22l9 70l42 -5l-6 -61q-2 -21 29 -21q30 0 30 27q0 17 -8 37t-22 39l43 25q14 -18 22.5 -44t8.5 -52q0 -41 -20 -64t-55 -23zM581 840q0 53 -2 92.5
t-7 72.5l53 10q2 -20 3 -36t1 -30q0 -57 -9 -109h-39z" />
    <glyph glyph-name="uniFEF5" unicode="&#xfedf;&#xfe82;" horiz-adv-x="479" arabic-form="isolated" 
d="M34 131q45 38 91 87.5t81 95.5q-43 45 -102 95t-122 96l86 103q18 -15 42.5 -38t50.5 -49.5t53.5 -55t51.5 -54.5q21 49 32 106.5t12 126.5l123 22q-1 -89 -24 -174t-68 -161q28 -35 47.5 -62.5t31.5 -51t17.5 -44.5t5.5 -43q0 -67 -53.5 -103t-153.5 -36q-22 0 -48 2.5
t-51 6.5t-47 9t-36 11zM338 152q0 11 -17 36t-43 53q-26 -33 -51.5 -62.5t-48.5 -53.5q17 -2 34.5 -3.5t34.5 -1.5q42 0 66.5 8.5t24.5 23.5zM204 758q-14 -43 -38 -65.5t-54 -22.5q-11 0 -23.5 3.5t-30.5 11.5q-22 9 -34.5 13t-23.5 4q-26 0 -53 -40l-35 21q14 43 38 65.5
t54 22.5q11 0 23.5 -3.5t30.5 -11.5q22 -9 34.5 -13t23.5 -4q26 0 53 40z" />
    <glyph glyph-name="uniFEF6" unicode="&#xfee0;&#xfe82;" horiz-adv-x="533" arabic-form="final" 
d="M533 0q-53 0 -89 14t-61 44q-31 -32 -87.5 -49.5t-128.5 -17.5q-32 0 -57.5 2t-52.5 7l-30 146q20 -5 58.5 -7.5t81.5 -3.5q-12 41 -26.5 86t-30.5 90.5t-33 90t-33 84.5l110 62q30 -73 59 -178.5t55 -227.5q52 12 52 42l-6 460l123 22l-6 -486q16 -20 38 -28t64 -8
l16 -10v-124zM235 698q-14 -43 -38 -65.5t-54 -22.5q-11 0 -23.5 3.5t-30.5 11.5q-22 9 -34.5 13t-23.5 4q-26 0 -53 -40l-35 21q14 43 38 65.5t54 22.5q11 0 23.5 -3.5t30.5 -11.5q22 -9 34.5 -13t23.5 -4q26 0 53 40z" />
    <glyph glyph-name="uniFEF7" unicode="&#xfedf;&#xfe84;" horiz-adv-x="479" arabic-form="isolated" 
d="M34 131q45 38 91 87.5t81 95.5q-43 45 -102 95t-122 96l86 103q18 -15 42.5 -38t50.5 -49.5t53.5 -55t51.5 -54.5q21 49 32 106.5t12 126.5l123 22q-1 -89 -24 -174t-68 -161q28 -35 47.5 -62.5t31.5 -51t17.5 -44.5t5.5 -43q0 -67 -53.5 -103t-153.5 -36q-22 0 -48 2.5
t-51 6.5t-47 9t-36 11zM338 152q0 11 -17 36t-43 53q-26 -33 -51.5 -62.5t-48.5 -53.5q17 -2 34.5 -3.5t34.5 -1.5q42 0 66.5 8.5t24.5 23.5zM145 686q-48 -3 -86.5 -10t-75.5 -18l-20 46q25 10 48 18q-31 20 -31 57q0 35 24.5 60t59.5 25q43 0 67 -35l-26 -37
q-14 11 -35 11q-17 0 -27.5 -8t-10.5 -19q0 -29 60 -34q15 3 30 4.5t32 3.5z" />
    <glyph glyph-name="uniFEF8" unicode="&#xfee0;&#xfe84;" horiz-adv-x="533" arabic-form="final" 
d="M533 0q-53 0 -89 14t-61 44q-31 -32 -87.5 -49.5t-128.5 -17.5q-32 0 -57.5 2t-52.5 7l-30 146q20 -5 58.5 -7.5t81.5 -3.5q-12 41 -26.5 86t-30.5 90.5t-33 90t-33 84.5l110 62q30 -73 59 -178.5t55 -227.5q52 12 52 42l-6 460l123 22l-6 -486q16 -20 38 -28t64 -8
l16 -10v-124zM176 626q-48 -3 -86.5 -10t-75.5 -18l-20 46q25 10 48 18q-31 20 -31 57q0 35 24.5 60t59.5 25q43 0 67 -35l-26 -37q-14 11 -35 11q-17 0 -27.5 -8t-10.5 -19q0 -29 60 -34q15 3 30 4.5t32 3.5z" />
    <glyph glyph-name="uniFEF9" unicode="&#xfedf;&#xfe88;" horiz-adv-x="479" arabic-form="isolated" 
d="M34 131q45 38 91 87.5t81 95.5q-43 45 -102 95t-122 96l86 103q18 -15 42.5 -38t50.5 -49.5t53.5 -55t51.5 -54.5q21 49 32 106.5t12 126.5l123 22q-1 -89 -24 -174t-68 -161q28 -35 47.5 -62.5t31.5 -51t17.5 -44.5t5.5 -43q0 -67 -53.5 -103t-153.5 -36q-22 0 -48 2.5
t-51 6.5t-47 9t-36 11zM338 152q0 11 -17 36t-43 53q-26 -33 -51.5 -62.5t-48.5 -53.5q17 -2 34.5 -3.5t34.5 -1.5q42 0 66.5 8.5t24.5 23.5zM191 -236q-48 -3 -86.5 -10t-75.5 -18l-20 46q25 10 48 18q-31 22 -31 57t24.5 60t59.5 25q43 0 67 -35l-26 -37q-14 11 -35 11
q-17 0 -27.5 -8t-10.5 -19q0 -28 60 -33l30 4t32 3z" />
    <glyph glyph-name="uniFEFA" unicode="&#xfee0;&#xfe88;" horiz-adv-x="533" arabic-form="final" 
d="M533 0q-53 0 -89 14t-61 44q-31 -32 -87.5 -49.5t-128.5 -17.5q-32 0 -57.5 2t-52.5 7l-30 146q20 -5 58.5 -7.5t81.5 -3.5q-12 41 -26.5 86t-30.5 90.5t-33 90t-33 84.5l110 62q30 -73 59 -178.5t55 -227.5q52 12 52 42l-6 460l123 22l-6 -486q16 -20 38 -28t64 -8
l16 -10v-124zM347 -236q-48 -3 -86.5 -10t-75.5 -18l-20 46q25 10 48 18q-31 22 -31 57t24.5 60t59.5 25q43 0 67 -35l-26 -37q-14 11 -35 11q-17 0 -27.5 -8t-10.5 -19q0 -28 60 -33l30 4t32 3z" />
    <glyph glyph-name="uniFEFB" unicode="&#xfedf;&#xfe8e;" horiz-adv-x="479" arabic-form="isolated" 
d="M34 131q45 38 91 87.5t81 95.5q-43 45 -102 95t-122 96l86 103q18 -15 42.5 -38t50.5 -49.5t53.5 -55t51.5 -54.5q21 49 32 106.5t12 126.5l123 22q-1 -89 -24 -174t-68 -161q28 -35 47.5 -62.5t31.5 -51t17.5 -44.5t5.5 -43q0 -67 -53.5 -103t-153.5 -36q-22 0 -48 2.5
t-51 6.5t-47 9t-36 11zM338 152q0 11 -17 36t-43 53q-26 -33 -51.5 -62.5t-48.5 -53.5q17 -2 34.5 -3.5t34.5 -1.5q42 0 66.5 8.5t24.5 23.5z" />
    <glyph glyph-name="uniFEFC" unicode="&#xfee0;&#xfe8e;" horiz-adv-x="533" arabic-form="final" 
d="M533 0q-53 0 -89 14t-61 44q-31 -32 -87.5 -49.5t-128.5 -17.5q-32 0 -57.5 2t-52.5 7l-30 146q20 -5 58.5 -7.5t81.5 -3.5q-12 41 -26.5 86t-30.5 90.5t-33 90t-33 84.5l110 62q30 -73 59 -178.5t55 -227.5q52 12 52 42l-6 460l123 22l-6 -486q16 -20 38 -28t64 -8
l16 -10v-124z" />
    <glyph glyph-name="f_f" unicode="ff" horiz-adv-x="667" 
d="M90 356h-76v113h76v16q0 56 16.5 94t43.5 61.5t60.5 34t67.5 10.5q31 0 63.5 -9.5t61.5 -32.5l-53 -94q-28 20 -57 20q-24 0 -42 -16.5t-18 -54.5v-29h168v24q0 49 16 85t42.5 60t61 35.5t72.5 11.5t77 -11t71 -38l-61 -91q-15 11 -33 17t-37 6q-29 0 -47.5 -20
t-18.5 -53v-26h111v-113h-111v-356h-143v356h-168v-356h-143v356z" />
    <glyph glyph-name="f_i" unicode="fi" horiz-adv-x="584" 
d="M90 356h-76v113h76v6q0 60 20.5 100.5t54 64.5t77 34.5t90.5 10.5q46 0 98 -12.5t93 -37.5l-54 -99q-27 14 -62.5 25t-70.5 11q-49 0 -76 -18.5t-27 -63.5v-21h294v-469h-143v356h-151v-356h-143v356z" />
    <glyph glyph-name="f_l" unicode="fl" horiz-adv-x="585" 
d="M90 356h-76v113h76v12q0 57 19 96t51.5 63t76 34.5t91.5 10.5q31 0 61.5 -4.5t57 -12t48.5 -17t37 -18.5v-633h-143v561q-12 5 -30.5 7.5t-35.5 2.5q-47 0 -68.5 -19.5t-21.5 -64.5v-18h100v-113h-100v-356h-143v356z" />
    <glyph glyph-name="f_f_i" unicode="ffi" horiz-adv-x="895" 
d="M90 356h-76v113h76v16q0 54 16 92t42.5 62t60.5 35t69 11q31 0 63.5 -9.5t61.5 -32.5l-53 -94q-28 20 -57 20q-24 0 -42.5 -16.5t-18.5 -54.5v-29h169v6q0 58 20 98.5t53 65t76 35.5t89 11q49 0 101.5 -12.5t93.5 -37.5l-54 -99q-27 14 -62.5 25t-70.5 11q-49 0 -76 -19
t-27 -70v-14h294v-469h-143v356h-151v-356h-143v356h-167v-356h-144v356z" />
    <glyph glyph-name="f_f_l" unicode="ffl" horiz-adv-x="896" 
d="M90 356h-76v113h76v24q0 50 16.5 86t43 59.5t60 35t68.5 11.5q31 0 63.5 -9.5t61.5 -32.5l-53 -94q-28 20 -57 20q-24 0 -42.5 -16.5t-18.5 -54.5v-29h169v12q0 57 19 96t51.5 63t76 34.5t91.5 10.5q31 0 61.5 -4.5t57 -12t48.5 -17t37 -18.5v-633h-143v561
q-12 5 -30.5 7.5t-35.5 2.5q-47 0 -68.5 -19.5t-21.5 -64.5v-18h100v-113h-100v-356h-143v356h-167v-356h-144v356z" />
    <glyph glyph-name="uniFEDF_uniFEE2.rlig" unicode="&#xfedf;&#xfee2;" horiz-adv-x="434" 
d="M41 -380l-8 432q-1 43 26 67.5t75 24.5h83q-11 45 -12 129l-4 371l123 22l-6 -459q0 -23 3.5 -39t13.5 -29t27.5 -24.5t44.5 -24.5l36 -17l-79 -141l-98 53q-17 9 -28.5 12t-30.5 3h-37q-20 0 -20 -17l-2 -363h-107z" />
    <glyph glyph-name="uniFEDF_uniFEE0_uniFEEA.rlig" unicode="&#xfedf;&#xfee0;&#xfeea;" horiz-adv-x="963" 
d="M789 546l124 21l-6 -372q-2 -93 -45.5 -144t-129.5 -51q-80 0 -125 56q-22 -26 -55.5 -41t-80.5 -15q-62 0 -108 28t-60 84q-22 -14 -48 -22t-54 -8q-38 0 -69.5 12t-54 33.5t-35 51.5t-12.5 66q0 85 67 144.5t195 89.5l-1 67l117 21l-6 -352q-1 -40 17.5 -56t58.5 -16
q31 0 48 9.5t17 23.5l-5 370l124 21l-6 -397q4 -8 13 -13t19 -8t20.5 -4.5t18.5 -1.5q32 0 49.5 10.5t17.5 25.5zM227 218q40 0 70 12l-2 122q-33 -2 -62.5 -9t-51.5 -18t-34.5 -25.5t-12.5 -29.5q0 -25 24.5 -38.5t68.5 -13.5z" />
    <glyph glyph-name="uniFEE0_uniFB51.rlig" unicode="&#xfee0;&#xfb51;" horiz-adv-x="533" 
d="M533 0q-53 0 -89 14t-61 44q-31 -32 -87.5 -49.5t-128.5 -17.5q-32 0 -57.5 2t-52.5 7l-30 146q20 -5 58.5 -7.5t81.5 -3.5q-12 41 -26.5 86t-30.5 90.5t-33 90t-33 84.5l110 62q30 -73 59 -178.5t55 -227.5q52 12 52 42l-6 460l123 22l-6 -486q16 -20 38 -28t64 -8
l16 -10v-124zM-31 673q27 -4 56 -6q46 119 113 119q32 0 52 -26t20 -66q0 -86 -121 -86q-35 0 -60.5 1t-45.5 3zM136 725q-37 0 -65 -59h20q39 0 56.5 7t17.5 23q0 13 -8 21t-21 8z" />
    <glyph glyph-name="uniFEDF_uniFB51.rlig" unicode="&#xfedf;&#xfb51;" horiz-adv-x="479" 
d="M34 131q45 38 91 87.5t81 95.5q-43 45 -102 95t-122 96l86 103q18 -15 42.5 -38t50.5 -49.5t53.5 -55t51.5 -54.5q21 49 32 106.5t12 126.5l123 22q-1 -89 -24 -174t-68 -161q28 -35 47.5 -62.5t31.5 -51t17.5 -44.5t5.5 -43q0 -67 -53.5 -103t-153.5 -36q-22 0 -48 2.5
t-51 6.5t-47 9t-36 11zM338 152q0 11 -17 36t-43 53q-26 -33 -51.5 -62.5t-48.5 -53.5q17 -2 34.5 -3.5t34.5 -1.5q42 0 66.5 8.5t24.5 23.5zM-62 733q27 -4 56 -6q46 119 113 119q32 0 52 -26t20 -66q0 -86 -121 -86q-35 0 -60.5 1t-45.5 3zM105 785q-37 0 -65 -59h20
q39 0 56.5 7t17.5 23q0 13 -8 21t-21 8z" />
    <glyph glyph-name="xx.aQafdotless.init" unicode="&#x6a1;" horiz-adv-x="432" 
d="M283 233q-40 -31 -98 -31q-71 0 -111.5 43t-40.5 119q0 43 13 81t36 66t53.5 44t66.5 16q88 0 134.5 -88t46.5 -256q0 -85 -23.5 -131.5t-78.5 -69.5q-18 -8 -39.5 -13t-50.5 -8t-67.5 -4t-90.5 -1h-33l-16 10v124l16 10h33q69 0 117 2t77.5 5.5t42.5 9t13 13.5v59z
M198 314q24 0 45 5t35 16q-8 57 -27.5 83t-52.5 26q-32 0 -52.5 -20.5t-20.5 -52.5q0 -27 19 -42t54 -15z" />
    <glyph glyph-name="xx.aQafdotless.medi" unicode="&#x6a1;" horiz-adv-x="440" 
d="M440 0q-60 0 -117.5 10.5t-102.5 30.5q-45 -20 -102.5 -30.5t-117.5 -10.5l-16 10v124l16 10h38t35 1q-27 43 -27 102q0 41 14 78t37.5 64.5t55 43.5t67.5 16t67.5 -16t55 -43.5t37.5 -64.5t14 -78q0 -57 -27 -102q17 -1 35 -1h38l16 -10v-124zM144 242q0 -54 76 -77
q76 23 76 77q0 31 -22 51t-54 20t-54 -20t-22 -51z" />
    <glyph glyph-name="uni06A1.fina" unicode="&#x6a1;" horiz-adv-x="832" 
d="M832 0q-60 0 -117 10.5t-102 30.5q-50 -24 -107 -37t-112 -13q-185 0 -270.5 50t-85.5 158q0 49 18.5 105t50.5 105l79 -38q-14 -32 -22.5 -64t-8.5 -55q0 -31 13.5 -52.5t42.5 -35.5t74 -20.5t109 -6.5h39t36 2q-31 46 -31 109q0 41 14 77.5t37.5 64t55 43.5t67.5 16
t67.5 -16t55 -43.5t37.5 -64.5t14 -78q0 -57 -27 -102q17 -1 35 -1h38l16 -10v-124zM536 242q0 -56 79 -78q73 26 73 78q0 31 -22 51t-54 20t-54 -20t-22 -51z" />
    <glyph glyph-name="uni06C2.fina" unicode="&#x6c2;" horiz-adv-x="568" 
d="M568 0q-41 0 -71 7t-54 23.5t-43 43.5t-37 67q-8 18 -14.5 29.5t-13.5 18t-14 9t-17 2.5q-21 0 -47.5 -7.5t-55.5 -22t-60 -34t-60 -43.5l-54 92q25 31 61 60t76 50.5t79.5 34.5t71.5 13q45 0 76.5 -26t54.5 -81q12 -29 23 -47t24.5 -28t31 -13.5t43.5 -3.5l16 -10v-124z
M318 422q-48 -3 -86.5 -10t-75.5 -18l-20 46q25 10 48 18q-31 20 -31 57q0 35 24.5 60t59.5 25q43 0 67 -35l-26 -37q-14 11 -35 11q-17 0 -27.5 -8t-10.5 -19q0 -29 60 -34q15 3 30 4.5t32 3.5z" />
    <glyph glyph-name="uni06C3.fina" unicode="&#x6c3;" horiz-adv-x="568" 
d="M568 0q-41 0 -71 7t-54 23.5t-43 43.5t-37 67q-8 18 -14.5 29.5t-13.5 18t-14 9t-17 2.5q-21 0 -47.5 -7.5t-55.5 -22t-60 -34t-60 -43.5l-54 92q25 31 61 60t76 50.5t79.5 34.5t71.5 13q45 0 76.5 -26t54.5 -81q12 -29 23 -47t24.5 -28t31 -13.5t43.5 -3.5l16 -10v-124z
M298 398l-67 67l-67 -67l-87 87l87 87l67 -67l67 67l87 -87z" />
    <glyph glyph-name="uni06D5.fina" unicode="&#x6d5;" horiz-adv-x="484" 
d="M484 0q-76 0 -122 29t-59 83q-22 -14 -48 -22t-54 -8q-38 0 -69.5 12t-54 33.5t-35 51.5t-12.5 66q0 85 67 144.5t195 89.5l-1 67l117 21l-6 -352q-1 -37 18 -54t64 -17l16 -10v-124zM227 218q40 0 70 12l-2 122q-33 -2 -62.5 -9t-51.5 -18t-34.5 -25.5t-12.5 -29.5
q0 -25 24.5 -38.5t68.5 -13.5z" />
    <glyph glyph-name="uniFB50" unicode="&#x671;" horiz-adv-x="231" arabic-form="isolated" 
d="M62 0l-8 644l123 22l-8 -666h-107zM-4 791q27 -4 56 -6q46 119 113 119q32 0 52 -26t20 -66q0 -86 -121 -86q-35 0 -60.5 1t-45.5 3zM163 843q-37 0 -65 -59h20q39 0 56.5 7t17.5 23q0 13 -8 21t-21 8z" />
    <glyph glyph-name="uniFB51" unicode="&#x671;" horiz-adv-x="250" arabic-form="final" 
d="M250 0q-89 0 -140.5 39.5t-52.5 110.5l-7 494l123 22l-5 -451q0 -37 18.5 -54t63.5 -17l16 -10v-124zM-8 791q27 -4 56 -6q46 119 113 119q32 0 52 -26t20 -66q0 -86 -121 -86q-35 0 -60.5 1t-45.5 3zM159 843q-37 0 -65 -59h20q39 0 56.5 7t17.5 23q0 13 -8 21t-21 8z
" />
    <glyph glyph-name="uniFB56" unicode="&#x67e;" horiz-adv-x="791" arabic-form="isolated" 
d="M685 446q14 -24 26 -53.5t20.5 -62t13 -65t4.5 -62.5q0 -58 -19 -98t-61.5 -65.5t-110 -37t-164.5 -11.5q-185 0 -270.5 50t-85.5 158q0 49 18.5 105t50.5 105l79 -38q-14 -32 -22.5 -64t-8.5 -55q0 -31 13.5 -52.5t42.5 -35.5t74 -20.5t109 -6.5q55 0 100.5 4t78.5 11
t51 17t18 22q0 16 -5.5 39t-14.5 48.5t-21.5 52.5t-27.5 52zM461 -235l-67 67l-67 -67l-87 87l87 87l67 -67l67 67l87 -87zM394 -396l-87 87l87 87l87 -87z" />
    <glyph glyph-name="uniFB57" unicode="&#x67e;" horiz-adv-x="863" arabic-form="final" 
d="M863 0q-59 0 -97.5 17.5t-63.5 54.5q-39 -42 -113.5 -61.5t-194.5 -19.5q-185 0 -270.5 50t-85.5 158q0 49 18.5 105t50.5 105l79 -38q-14 -32 -22.5 -64t-8.5 -55q0 -31 13.5 -52.5t42.5 -35.5t74 -20.5t109 -6.5t110 3.5t76 11.5t45.5 21t19.5 31q5 23 9.5 54.5
l8.5 59.5l105 -13q-6 -49 -9 -78.5t-3 -35.5q0 -25 25.5 -36t81.5 -11l16 -10v-124zM461 -235l-67 67l-67 -67l-87 87l87 87l67 -67l67 67l87 -87zM394 -396l-87 87l87 87l87 -87z" />
    <glyph glyph-name="uniFB58" unicode="&#x67e;" horiz-adv-x="289" arabic-form="initial" 
d="M-16 10v124l16 10q61 0 100.5 13.5t39.5 33.5q0 16 -5.5 39t-14.5 48.5t-21.5 52.5t-27.5 52l112 63q14 -24 26 -53.5t20.5 -61t13 -63.5t4.5 -60q0 -108 -59.5 -158t-187.5 -50zM187 -235l-67 67l-67 -67l-87 87l87 87l67 -67l67 67l87 -87zM120 -396l-87 87l87 87
l87 -87z" />
    <glyph glyph-name="uniFB59" unicode="&#x67e;" horiz-adv-x="332" arabic-form="medial" 
d="M332 0q-57 0 -95.5 17t-63.5 52q-25 -32 -70 -50.5t-103 -18.5l-16 10v124l16 10q101 0 113 53q4 20 9 51.5t10 69.5l105 -13q-6 -49 -9 -78.5t-3 -35.5q0 -25 25.5 -36t81.5 -11l16 -10v-124zM242 -235l-67 67l-67 -67l-87 87l87 87l67 -67l67 67l87 -87zM175 -396
l-87 87l87 87l87 -87z" />
    <glyph glyph-name="uniFB66" unicode="&#x679;" horiz-adv-x="791" arabic-form="isolated" 
d="M685 446q14 -24 26 -53.5t20.5 -62t13 -65t4.5 -62.5q0 -58 -19 -98t-61.5 -65.5t-110 -37t-164.5 -11.5q-185 0 -270.5 50t-85.5 158q0 49 18.5 105t50.5 105l79 -38q-14 -32 -22.5 -64t-8.5 -55q0 -31 13.5 -52.5t42.5 -35.5t74 -20.5t109 -6.5q55 0 100.5 4t78.5 11
t51 17t18 22q0 16 -5.5 39t-14.5 48.5t-21.5 52.5t-27.5 52zM264 510q29 -5 58 -6l-6 197l53 10l-4 -136q16 26 33.5 37t34.5 11q32 0 52 -26t20 -66q0 -86 -121 -86q-35 0 -60.5 1t-45.5 3zM431 562q-37 0 -65 -59h20q39 0 56.5 7t17.5 23q0 13 -8 21t-21 8z" />
    <glyph glyph-name="uniFB67" unicode="&#x679;" horiz-adv-x="863" arabic-form="final" 
d="M863 0q-59 0 -97.5 17.5t-63.5 54.5q-39 -42 -113.5 -61.5t-194.5 -19.5q-185 0 -270.5 50t-85.5 158q0 49 18.5 105t50.5 105l79 -38q-14 -32 -22.5 -64t-8.5 -55q0 -31 13.5 -52.5t42.5 -35.5t74 -20.5t109 -6.5t110 3.5t76 11.5t45.5 21t19.5 31q5 23 9.5 54.5
l8.5 59.5l105 -13q-6 -49 -9 -78.5t-3 -35.5q0 -25 25.5 -36t81.5 -11l16 -10v-124zM301 480q29 -5 58 -6l-6 197l53 10l-4 -136q16 26 33.5 37t34.5 11q32 0 52 -26t20 -66q0 -86 -121 -86q-35 0 -60.5 1t-45.5 3zM468 532q-37 0 -65 -59h20q39 0 56.5 7t17.5 23
q0 13 -8 21t-21 8z" />
    <glyph glyph-name="uniFB68" unicode="&#x679;" horiz-adv-x="289" arabic-form="initial" 
d="M-16 10v124l16 10q61 0 100.5 13.5t39.5 33.5q0 16 -5.5 39t-14.5 48.5t-21.5 52.5t-27.5 52l112 63q14 -24 26 -53.5t20.5 -61t13 -63.5t4.5 -60q0 -108 -59.5 -158t-187.5 -50zM1 572q29 -5 58 -6l-6 197l53 10l-4 -136q16 26 33.5 37t34.5 11q32 0 52 -26t20 -66
q0 -86 -121 -86q-35 0 -60.5 1t-45.5 3zM168 624q-37 0 -65 -59h20q39 0 56.5 7t17.5 23q0 13 -8 21t-21 8z" />
    <glyph glyph-name="uniFB69" unicode="&#x679;" horiz-adv-x="332" arabic-form="medial" 
d="M332 0q-57 0 -95.5 17t-63.5 52q-25 -32 -70 -50.5t-103 -18.5l-16 10v124l16 10q101 0 113 53q4 20 9 51.5t10 69.5l105 -13q-6 -49 -9 -78.5t-3 -35.5q0 -25 25.5 -36t81.5 -11l16 -10v-124zM67 444q29 -5 58 -6l-6 197l53 10l-4 -136q16 26 33.5 37t34.5 11
q32 0 52 -26t20 -66q0 -86 -121 -86q-35 0 -60.5 1t-45.5 3zM234 496q-37 0 -65 -59h20q39 0 56.5 7t17.5 23q0 13 -8 21t-21 8z" />
    <glyph glyph-name="uniFB6A" unicode="&#x6a4;" horiz-adv-x="793" arabic-form="isolated" 
d="M644 233q-40 -31 -98 -31q-71 0 -111.5 43t-40.5 119q0 43 13 81t35.5 66t53.5 44t66 16q89 0 135.5 -88t46.5 -256q0 -85 -23.5 -131.5t-78.5 -69.5q-83 -35 -248 -35q-185 0 -270.5 50t-85.5 158q0 49 18.5 105t50.5 105l79 -38q-14 -32 -22.5 -64t-8.5 -55
q0 -31 13.5 -52.5t42.5 -35.5t74 -20.5t109 -6.5q56 0 102 2.5t79 7.5t51 12t18 15v59zM559 314q24 0 45 5t35 16q-8 57 -27.5 83t-52.5 26q-32 0 -52.5 -20.5t-20.5 -52.5q0 -27 19 -42t54 -15zM629 625l-67 67l-67 -67l-87 87l87 87l67 -67l67 67l87 -87zM562 786l-87 87
l87 87l87 -87z" />
    <glyph glyph-name="uniFB6B" unicode="&#x6a4;" horiz-adv-x="832" arabic-form="final" 
d="M832 0q-60 0 -117 10.5t-102 30.5q-50 -24 -107 -37t-112 -13q-185 0 -270.5 50t-85.5 158q0 49 18.5 105t50.5 105l79 -38q-14 -32 -22.5 -64t-8.5 -55q0 -31 13.5 -52.5t42.5 -35.5t74 -20.5t109 -6.5h39t36 2q-31 46 -31 109q0 41 14 77.5t37.5 64t55 43.5t67.5 16
t67.5 -16t55 -43.5t37.5 -64.5t14 -78q0 -57 -27 -102q17 -1 35 -1h38l16 -10v-124zM536 242q0 -56 79 -78q73 26 73 78q0 31 -22 51t-54 20t-54 -20t-22 -51zM679 504l-67 67l-67 -67l-87 87l87 87l67 -67l67 67l87 -87zM612 665l-87 87l87 87l87 -87z" />
    <glyph glyph-name="uniFB6C" unicode="&#x6a4;" horiz-adv-x="432" arabic-form="initial" 
d="M283 233q-40 -31 -98 -31q-71 0 -111.5 43t-40.5 119q0 43 13 81t36 66t53.5 44t66.5 16q88 0 134.5 -88t46.5 -256q0 -85 -23.5 -131.5t-78.5 -69.5q-18 -8 -39.5 -13t-50.5 -8t-67.5 -4t-90.5 -1h-33l-16 10v124l16 10h33q69 0 117 2t77.5 5.5t42.5 9t13 13.5v59z
M198 314q24 0 45 5t35 16q-8 57 -27.5 83t-52.5 26q-32 0 -52.5 -20.5t-20.5 -52.5q0 -27 19 -42t54 -15zM269 625l-67 67l-67 -67l-87 87l87 87l67 -67l67 67l87 -87zM202 786l-87 87l87 87l87 -87z" />
    <glyph glyph-name="uniFB6D" unicode="&#x6a4;" horiz-adv-x="440" arabic-form="medial" 
d="M440 0q-60 0 -117.5 10.5t-102.5 30.5q-45 -20 -102.5 -30.5t-117.5 -10.5l-16 10v124l16 10h38t35 1q-27 43 -27 102q0 41 14 78t37.5 64.5t55 43.5t67.5 16t67.5 -16t55 -43.5t37.5 -64.5t14 -78q0 -57 -27 -102q17 -1 35 -1h38l16 -10v-124zM144 242q0 -54 76 -77
q76 23 76 77q0 31 -22 51t-54 20t-54 -20t-22 -51zM287 504l-67 67l-67 -67l-87 87l87 87l67 -67l67 67l87 -87zM220 665l-87 87l87 87l87 -87z" />
    <glyph glyph-name="uniFB7A" unicode="&#x686;" horiz-adv-x="608" arabic-form="isolated" 
d="M604 -200q-43 -48 -111 -74t-148 -26q-66 0 -120.5 18t-93.5 50.5t-60 78t-21 101.5q0 104 72.5 185t205.5 127q-65 14 -98.5 19t-49.5 5q-24 0 -40.5 -7t-33.5 -25l-69 53q27 55 69.5 84.5t95.5 29.5q30 0 73.5 -8.5t103.5 -26.5q103 -30 161 -30h20v-135
q-92 -18 -164.5 -44t-122.5 -57t-76 -67.5t-26 -75.5q0 -60 55.5 -95t150.5 -35q54 0 107 9.5t87 25.5zM433 0l-46 45l-46 -45l-58 57l58 57l46 -45l46 45l58 -57zM387 -111l-58 57l58 57l58 -57z" />
    <glyph glyph-name="uniFB7B" unicode="&#x686;" horiz-adv-x="629" arabic-form="final" 
d="M604 -200q-43 -48 -111 -74t-148 -26q-66 0 -120.5 18t-93.5 50.5t-60 78t-21 101.5q0 104 72.5 185t205.5 127q-65 14 -98.5 19t-49.5 5q-24 0 -40.5 -7t-33.5 -25l-69 53q27 55 69.5 84.5t95.5 29.5q30 0 73.5 -8.5t103.5 -26.5q103 -30 161 -30h20v-135
q-92 -18 -164.5 -44t-122.5 -57t-76 -67.5t-26 -75.5q0 -60 55.5 -95t150.5 -35q54 0 107 9.5t87 25.5zM629 0q-89 0 -136.5 48t-47.5 139q0 13 1 29.5t2.5 33.5t3.5 34t4 30l56 -3q-3 -21 -5.5 -44.5t-2.5 -36.5q0 -24 6.5 -40.5t21 -26.5t38.5 -14.5t59 -4.5l16 -10v-124z
M402 0l-46 45l-46 -45l-58 57l58 57l46 -45l46 45l58 -57zM356 -111l-58 57l58 57l58 -57z" />
    <glyph glyph-name="uniFB7C" unicode="&#x686;" horiz-adv-x="564" arabic-form="initial" 
d="M231 201q27 11 50 20t45 16q-35 13 -61 22t-45.5 14.5t-33.5 8t-26 2.5q-24 0 -40.5 -7t-33.5 -25l-69 53q27 55 69.5 84.5t95.5 29.5q31 0 69.5 -10.5t103.5 -38.5q52 -23 82 -30.5t59 -7.5h20v-135q-24 -6 -46.5 -14t-47.5 -19t-54.5 -27t-68.5 -38q-50 -29 -89.5 -48
t-73.5 -30.5t-66.5 -16t-69.5 -4.5l-16 10v124l16 10q28 0 54.5 3t53.5 9.5t57 17.5t66 27zM322 -215l-67 67l-67 -67l-87 87l87 87l67 -67l67 67l87 -87zM255 -376l-87 87l87 87l87 -87z" />
    <glyph glyph-name="uniFB7D" unicode="&#x686;" horiz-adv-x="574" arabic-form="medial" 
d="M231 201q27 11 50 20t45 16q-35 13 -61 22t-45.5 14.5t-33.5 8t-26 2.5q-24 0 -40.5 -7t-33.5 -25l-69 53q27 55 69.5 84.5t95.5 29.5q31 0 69.5 -10.5t103.5 -38.5q52 -23 82 -30.5t59 -7.5h20v-135q-24 -6 -46.5 -14t-47.5 -19t-54.5 -27t-68.5 -38q-50 -29 -89.5 -48
t-73.5 -30.5t-66.5 -16t-69.5 -4.5l-16 10v124l16 10q28 0 54.5 3t53.5 9.5t57 17.5t66 27zM574 0q-80 0 -123.5 48t-43.5 136q0 17 1 29.5t3 27.5h48q-1 -8 -1.5 -15.5t-0.5 -14.5q0 -38 25.5 -52.5t91.5 -14.5l16 -10v-124zM322 -215l-67 67l-67 -67l-87 87l87 87l67 -67
l67 67l87 -87zM255 -376l-87 87l87 87l87 -87z" />
    <glyph glyph-name="uniFB88" unicode="&#x688;" horiz-adv-x="435" arabic-form="isolated" 
d="M19 146q25 -5 64 -8t72 -3q24 0 48.5 2.5t44 6.5t32 9t12.5 10q0 15 -13 40t-35 54.5t-51.5 61.5t-62.5 62l96 90q85 -78 129 -156.5t44 -153.5q0 -88 -54.5 -129t-172.5 -41q-35 0 -68.5 2.5t-54.5 6.5zM45 596q29 -5 58 -6l-6 197l53 10l-4 -136q16 26 33.5 37t34.5 11
q32 0 52 -26t20 -66q0 -86 -121 -86q-35 0 -60.5 1t-45.5 3zM212 648q-37 0 -65 -59h20q39 0 56.5 7t17.5 23q0 13 -8 21t-21 8z" />
    <glyph glyph-name="uniFB89" unicode="&#x688;" horiz-adv-x="498" arabic-form="final" 
d="M498 0q-84 0 -138 45q-51 -54 -188 -54q-35 0 -68.5 2.5t-54.5 6.5l-30 146q25 -5 64 -8t72 -3q38 0 73.5 5t61.5 13q-11 24 -22.5 50t-24 57t-26.5 69t-32 86l118 55q21 -61 44 -125t51 -136q8 -20 16 -33t19 -20t26.5 -9.5t38.5 -2.5l16 -10v-124zM101 596q29 -5 58 -6
l-6 197l53 10l-4 -136q16 26 33.5 37t34.5 11q32 0 52 -26t20 -66q0 -86 -121 -86q-35 0 -60.5 1t-45.5 3zM268 648q-37 0 -65 -59h20q39 0 56.5 7t17.5 23q0 13 -8 21t-21 8z" />
    <glyph glyph-name="uniFB8A" unicode="&#x698;" horiz-adv-x="374" arabic-form="isolated" 
d="M-18 -77q54 22 99.5 47t78 50t51 48.5t18.5 43.5q0 14 -8 38t-22 54.5t-32.5 64.5t-40.5 68l112 62q46 -61 72 -133.5t26 -138.5q0 -52 -19.5 -100.5t-56.5 -90.5t-90 -76.5t-120 -59.5zM241 454l-67 67l-67 -67l-87 87l87 87l67 -67l67 67l87 -87zM174 615l-87 87l87 87
l87 -87z" />
    <glyph glyph-name="uniFB8B" unicode="&#x698;" horiz-adv-x="430" arabic-form="final" 
d="M430 0q-34 0 -61 6.5t-52 21.5q-29 -72 -98.5 -132t-168.5 -96l-68 123q217 91 255 189q-17 27 -31.5 62t-34.5 91l118 55q8 -25 16.5 -50.5t20.5 -57.5q8 -21 16 -34.5t19 -21t27.5 -10t41.5 -2.5l16 -10v-124zM276 375l-67 67l-67 -67l-87 87l87 87l67 -67l67 67
l87 -87zM209 536l-87 87l87 87l87 -87z" />
    <glyph glyph-name="uniFB8C" unicode="&#x691;" horiz-adv-x="374" arabic-form="isolated" 
d="M-18 -77q54 22 99.5 47t78 50t51 48.5t18.5 43.5q0 14 -8 38t-22 54.5t-32.5 64.5t-40.5 68l112 62q46 -61 72 -133.5t26 -138.5q0 -52 -19.5 -100.5t-56.5 -90.5t-90 -76.5t-120 -59.5zM54 525q29 -5 58 -6l-6 197l53 10l-4 -136q16 26 33.5 37t34.5 11q32 0 52 -26
t20 -66q0 -86 -121 -86q-35 0 -60.5 1t-45.5 3zM221 577q-37 0 -65 -59h20q39 0 56.5 7t17.5 23q0 13 -8 21t-21 8z" />
    <glyph glyph-name="uniFB8D" unicode="&#x691;" horiz-adv-x="430" arabic-form="final" 
d="M430 0q-34 0 -61 6.5t-52 21.5q-29 -72 -98.5 -132t-168.5 -96l-68 123q217 91 255 189q-17 27 -31.5 62t-34.5 91l118 55q8 -25 16.5 -50.5t20.5 -57.5q8 -21 16 -34.5t19 -21t27.5 -10t41.5 -2.5l16 -10v-124zM89 446q29 -5 58 -6l-6 197l53 10l-4 -136q16 26 33.5 37
t34.5 11q32 0 52 -26t20 -66q0 -86 -121 -86q-35 0 -60.5 1t-45.5 3zM256 498q-37 0 -65 -59h20q39 0 56.5 7t17.5 23q0 13 -8 21t-21 8z" />
    <glyph glyph-name="uniFB8E" unicode="&#x6a9;" horiz-adv-x="763" arabic-form="isolated" 
d="M748 541q-43 -16 -78 -29t-65.5 -25t-58 -23.5t-55.5 -23.5q85 -71 125 -136t40 -131q0 -88 -80.5 -135t-228.5 -47q-158 0 -233.5 51t-75.5 157q0 49 18.5 105t50.5 105l79 -38q-14 -32 -22.5 -64t-8.5 -55q0 -60 46 -87.5t146 -27.5q92 0 147 14t55 37q0 13 -15 35
t-40.5 48.5t-60.5 55.5t-74 57l19 117q85 48 173.5 90t172.5 75z" />
    <glyph glyph-name="uniFB8F" unicode="&#x6a9;" horiz-adv-x="795" arabic-form="final" 
d="M795 0q-66 0 -112 13.5t-81 45.5q-37 -33 -102.5 -50.5t-152.5 -17.5q-158 0 -233.5 51t-75.5 157q0 49 18.5 105t50.5 105l79 -38q-14 -32 -22.5 -64t-8.5 -55q0 -60 46 -87.5t146 -27.5q58 0 106 6.5t76 17.5l-122 223l19 117q85 48 173.5 90t172.5 75l24 -125
q-46 -17 -83.5 -31t-69.5 -26.5t-62 -25.5t-61 -27l122 -222q10 -20 22 -32.5t29 -19.5t41.5 -10t60.5 -3l16 -10v-124z" />
    <glyph glyph-name="uniFB90" unicode="&#x6a9;" horiz-adv-x="441" arabic-form="initial" 
d="M-16 10v124l16 10q36 0 76 4t73.5 10.5t55.5 14.5t22 15q0 13 -15 35t-40.5 48.5t-60.5 55.5t-74 57l19 117q85 48 173.5 90t172.5 75l24 -125q-43 -16 -78 -29t-65.5 -25t-58 -23.5t-55.5 -23.5q85 -71 125 -136t40 -131q0 -86 -84.5 -129.5t-249.5 -43.5z" />
    <glyph glyph-name="uniFB91" unicode="&#x6a9;" horiz-adv-x="419" arabic-form="medial" 
d="M419 0q-67 0 -113 13t-81 45q-34 -30 -88.5 -44t-136.5 -14l-16 10v124l16 10q57 0 91.5 4t59.5 14l-121 222l19 117q85 48 174 90t172 75l24 -125q-46 -17 -83.5 -31t-69.5 -26.5t-62 -25.5t-61 -27l122 -222q11 -20 23 -32.5t29 -19.5t41.5 -10t60.5 -3l16 -10v-124z
" />
    <glyph glyph-name="uniFB92" unicode="&#x6af;" horiz-adv-x="763" arabic-form="isolated" 
d="M748 541q-43 -16 -78 -29t-65.5 -25t-58 -23.5t-55.5 -23.5q85 -71 125 -136t40 -131q0 -88 -80.5 -135t-228.5 -47q-158 0 -233.5 51t-75.5 157q0 49 18.5 105t50.5 105l79 -38q-14 -32 -22.5 -64t-8.5 -55q0 -60 46 -87.5t146 -27.5q92 0 147 14t55 37q0 13 -15 35
t-40.5 48.5t-60.5 55.5t-74 57l19 117q85 48 173.5 90t172.5 75zM663 710q-148 -71 -290 -123v61q142 52 290 123v-61z" />
    <glyph glyph-name="uniFB93" unicode="&#x6af;" horiz-adv-x="795" arabic-form="final" 
d="M795 0q-66 0 -112 13.5t-81 45.5q-37 -33 -102.5 -50.5t-152.5 -17.5q-158 0 -233.5 51t-75.5 157q0 49 18.5 105t50.5 105l79 -38q-14 -32 -22.5 -64t-8.5 -55q0 -60 46 -87.5t146 -27.5q58 0 106 6.5t76 17.5l-122 223l19 117q85 48 173.5 90t172.5 75l24 -125
q-46 -17 -83.5 -31t-69.5 -26.5t-62 -25.5t-61 -27l122 -222q10 -20 22 -32.5t29 -19.5t41.5 -10t60.5 -3l16 -10v-124zM711 710q-148 -71 -290 -123v61q142 52 290 123v-61z" />
    <glyph glyph-name="uniFB94" unicode="&#x6af;" horiz-adv-x="441" arabic-form="initial" 
d="M-16 10v124l16 10q36 0 76 4t73.5 10.5t55.5 14.5t22 15q0 13 -15 35t-40.5 48.5t-60.5 55.5t-74 57l19 117q85 48 173.5 90t172.5 75l24 -125q-43 -16 -78 -29t-65.5 -25t-58 -23.5t-55.5 -23.5q85 -71 125 -136t40 -131q0 -86 -84.5 -129.5t-249.5 -43.5zM341 710
q-148 -71 -290 -123v61q142 52 290 123v-61z" />
    <glyph glyph-name="uniFB95" unicode="&#x6af;" horiz-adv-x="419" arabic-form="medial" 
d="M419 0q-67 0 -113 13t-81 45q-34 -30 -88.5 -44t-136.5 -14l-16 10v124l16 10q57 0 91.5 4t59.5 14l-121 222l19 117q85 48 174 90t172 75l24 -125q-46 -17 -83.5 -31t-69.5 -26.5t-62 -25.5t-61 -27l122 -222q11 -20 23 -32.5t29 -19.5t41.5 -10t60.5 -3l16 -10v-124z
M334 710q-148 -71 -290 -123v61q142 52 290 123v-61z" />
    <glyph glyph-name="uniFB9E" unicode="&#x6ba;" horiz-adv-x="630" arabic-form="isolated" 
d="M526 318q14 -28 26.5 -62.5t21.5 -70.5t14.5 -70.5t5.5 -62.5q0 -56 -20.5 -102t-57.5 -79.5t-87.5 -52t-111.5 -18.5q-65 0 -116 16.5t-87 48t-55 76.5t-19 102q0 60 22.5 120.5t63.5 109.5l75 -46q-43 -74 -43 -142q0 -64 43.5 -102t115.5 -38q35 0 66 7t54 19
t36.5 28.5t13.5 34.5q0 29 -20.5 90t-53.5 132z" />
    <glyph glyph-name="uniFB9F" unicode="&#x6ba;" horiz-adv-x="663" arabic-form="final" 
d="M526 318q14 -28 26.5 -62.5t21.5 -70.5t14.5 -70.5t5.5 -62.5q0 -56 -20.5 -102t-57.5 -79.5t-87.5 -52t-111.5 -18.5q-65 0 -116 16.5t-87 48t-55 76.5t-19 102q0 60 22.5 120.5t63.5 109.5l75 -46q-43 -74 -43 -142q0 -64 43.5 -102t115.5 -38q35 0 66 7t54 19
t36.5 28.5t13.5 34.5q0 29 -20.5 90t-53.5 132zM663 0q-61 0 -105 25t-64 71l75 102q0 -54 94 -54l16 -10v-124z" />
    <glyph glyph-name="uniFBA4" unicode="&#x6c0;" horiz-adv-x="467" arabic-form="isolated" 
d="M427 177q0 -88 -51 -137t-143 -49q-94 0 -143.5 48.5t-49.5 139.5q0 55 15 104.5t41.5 86t61.5 58t75 21.5t75.5 -21.5t62 -58t41.5 -86t15 -106.5zM323 180q0 55 -25.5 90t-64.5 35q-18 0 -34.5 -8t-28.5 -21.5t-19 -31.5t-7 -39q0 -35 23.5 -54.5t65.5 -19.5
q36 0 63 14.5t27 34.5zM320 528q-48 -3 -86.5 -10t-75.5 -18l-20 46q25 10 48 18q-31 20 -31 57q0 35 24.5 60t59.5 25q43 0 67 -35l-26 -37q-14 11 -35 11q-17 0 -27.5 -8t-10.5 -19q0 -29 60 -34q15 3 30 4.5t32 3.5z" />
    <glyph glyph-name="uniFBA5" unicode="&#x6c0;" horiz-adv-x="484" arabic-form="final" 
d="M484 0q-76 0 -122 29t-59 83q-22 -14 -48 -22t-54 -8q-38 0 -69.5 12t-54 33.5t-35 51.5t-12.5 66q0 85 67 144.5t195 89.5l-1 67l117 21l-6 -352q-1 -37 18 -54t64 -17l16 -10v-124zM227 218q40 0 70 12l-2 122q-33 -2 -62.5 -9t-51.5 -18t-34.5 -25.5t-12.5 -29.5
q0 -25 24.5 -38.5t68.5 -13.5zM316 624q-48 -3 -86.5 -10t-75.5 -18l-20 46q25 10 48 18q-31 20 -31 57q0 35 24.5 60t59.5 25q43 0 67 -35l-26 -37q-14 11 -35 11q-17 0 -27.5 -8t-10.5 -19q0 -29 60 -34q15 3 30 4.5t32 3.5z" />
    <glyph glyph-name="uniFBA6" unicode="&#x6c1;" horiz-adv-x="467" arabic-form="isolated" 
d="M427 177q0 -88 -51 -137t-143 -49q-94 0 -143.5 48.5t-49.5 139.5q0 55 15 104.5t41.5 86t61.5 58t75 21.5t75.5 -21.5t62 -58t41.5 -86t15 -106.5zM323 180q0 55 -25.5 90t-64.5 35q-18 0 -34.5 -8t-28.5 -21.5t-19 -31.5t-7 -39q0 -35 23.5 -54.5t65.5 -19.5
q36 0 63 14.5t27 34.5z" />
    <glyph glyph-name="uniFBA7" unicode="&#x6c1;" horiz-adv-x="568" arabic-form="final" 
d="M568 0q-41 0 -71 7t-54 23.5t-43 43.5t-37 67q-8 18 -14.5 29.5t-13.5 18t-14 9t-17 2.5q-21 0 -47.5 -7.5t-55.5 -22t-60 -34t-60 -43.5l-54 92q25 31 61 60t76 50.5t79.5 34.5t71.5 13q45 0 76.5 -26t54.5 -81q12 -29 23 -47t24.5 -28t31 -13.5t43.5 -3.5l16 -10v-124z
" />
    <glyph glyph-name="uniFBA8" unicode="&#x6c1;" horiz-adv-x="289" arabic-form="initial" 
d="M-16 10v124l16 10q61 0 100.5 13.5t39.5 33.5q0 16 -5.5 39t-14.5 48.5t-21.5 52.5t-27.5 52l112 63q14 -24 26 -53.5t20.5 -61t13 -63.5t4.5 -60q0 -108 -59.5 -158t-187.5 -50zM116 -325q-36 26 -52.5 51t-16.5 52q0 19 8 40t23 42.5t35 41.5t44 36l35 -30
q-23 -25 -39.5 -52.5t-16.5 -41.5q0 -11 12 -27.5t41 -42.5z" />
    <glyph glyph-name="uniFBA9" unicode="&#x6c1;" horiz-adv-x="529" arabic-form="medial" 
d="M376 -250q-53 11 -98.5 36t-81 61t-59.5 80.5t-34 94.5q-39 -22 -91 -22h-12l-16 10v124l16 10q28 0 47.5 4.5t34.5 16t27.5 31.5t25.5 51l95 -29q-10 -25 -15 -57t-5 -65q0 -57 25 -103.5t72 -79.5q-2 7 -2 13v12q0 100 41.5 153t118.5 53h64l16 -10v-124l-16 -10h-84
q-44 0 -44 -53q0 -28 10.5 -64t26.5 -61zM51 -449q-36 26 -52.5 51t-16.5 52q0 19 8 40t23 42.5t35 41.5t44 36l35 -30q-23 -25 -39.5 -52.5t-16.5 -41.5q0 -11 12 -27.5t41 -42.5z" />
    <glyph glyph-name="uniFBAA" unicode="&#x6be;" horiz-adv-x="748" arabic-form="isolated" 
d="M514 239q0 -52 -23 -95h6q49 0 81 10.5t32 27.5q0 42 -19 84t-52.5 78t-79 63.5t-99.5 41.5l50 118q69 -26 125 -66t95.5 -89.5t60.5 -106.5t21 -117q0 -88 -53 -138t-146 -50q-37 0 -75.5 9.5t-83.5 30.5q-50 -19 -101.5 -29.5t-97.5 -10.5l-16 10v124l16 10h37t34 1
q-22 41 -22 94q0 35 12.5 66t33.5 54t49 36.5t60 13.5t60.5 -13.5t49.5 -36.5t33 -54t12 -66zM292 236q0 -24 17 -42.5t49 -30.5q68 22 68 73q0 29 -18.5 48.5t-48.5 19.5t-48.5 -20t-18.5 -48zM155 0q-25 0 -54 2.5t-52 6.5l-30 146q25 -5 64 -8t72 -3l16 -10v-124z" />
    <glyph glyph-name="uniFBAB" unicode="&#x6be;" horiz-adv-x="613" arabic-form="final" 
d="M613 0h-40q12 -26 12 -58q0 -34 -13 -62t-36.5 -48.5t-55.5 -32t-71 -11.5q-84 0 -138 57.5t-68 155.5q-12 -1 -24 -1h-24l-16 10v124l16 10h51q10 60 31.5 115t50 97t62 67.5t67.5 25.5q27 0 53 -18t46.5 -47t32.5 -66.5t12 -77.5q0 -53 -23 -96h75l16 -10v-124z
M406 311q-17 0 -33 -13t-30.5 -35.5t-26 -51.5t-17.5 -62q88 8 128 29t40 57q0 30 -18.5 53t-42.5 23zM491 -24q0 51 -69 69q-26 -11 -55.5 -20t-64.5 -14q12 -43 40 -66t70 -23q35 0 57 15t22 39zM155 0q-25 0 -54 2.5t-52 6.5l-30 146q25 -5 64 -8t72 -3l16 -10v-124z" />
    <glyph glyph-name="uniFBAC" unicode="&#x6be;" horiz-adv-x="593" arabic-form="initial" 
d="M359 239q0 -52 -23 -95h6q49 0 81 10.5t32 27.5q0 42 -19 84t-52.5 78t-79 63.5t-99.5 41.5l50 118q69 -26 125 -66t95.5 -89.5t60.5 -106.5t21 -117q0 -88 -53 -138t-146 -50q-37 0 -75.5 9.5t-83.5 30.5q-50 -19 -101.5 -29.5t-97.5 -10.5l-16 10v124l16 10h37t34 1
q-22 41 -22 94q0 35 12.5 66t33.5 54t49 36.5t60 13.5t60.5 -13.5t49.5 -36.5t33 -54t12 -66zM137 236q0 -24 17 -42.5t49 -30.5q68 22 68 73q0 29 -18.5 48.5t-48.5 19.5t-48.5 -20t-18.5 -48z" />
    <glyph glyph-name="uniFBAD" unicode="&#x6be;" horiz-adv-x="458" arabic-form="medial" 
d="M458 0h-40q12 -26 12 -58q0 -34 -13 -62t-36.5 -48.5t-55.5 -32t-71 -11.5q-84 0 -138 57.5t-68 155.5q-12 -1 -24 -1h-24l-16 10v124l16 10h51q10 60 31.5 115t50 97t62 67.5t67.5 25.5q27 0 53 -18t46.5 -47t32.5 -66.5t12 -77.5q0 -53 -23 -96h75l16 -10v-124z
M251 311q-17 0 -33 -13t-30.5 -35.5t-26 -51.5t-17.5 -62q88 8 128 29t40 57q0 30 -18.5 53t-42.5 23zM336 -24q0 51 -69 69q-26 -11 -55.5 -20t-64.5 -14q12 -43 40 -66t70 -23q35 0 57 15t22 39z" />
    <glyph glyph-name="uniFBAE" unicode="&#x6d2;" horiz-adv-x="664" arabic-form="isolated" 
d="M614 10q-23 -4 -53.5 -7.5t-65.5 -6t-71.5 -4t-70.5 -1.5q-164 0 -242 40t-78 124q0 31 15.5 66.5t41.5 70.5t60 67.5t71 57t74 39.5t69 15q44 0 71 -42t32 -118l-87 -29q-6 25 -14 34.5t-22 9.5q-24 0 -57.5 -15.5t-63.5 -37.5t-51 -46t-21 -42q0 -25 49.5 -36.5
t152.5 -11.5q30 0 72.5 2t85 4.5t79 6t54.5 6.5z" />
    <glyph glyph-name="uniFBAF" unicode="&#x6d2;" horiz-adv-x="585" arabic-form="final" 
d="M474 -242q-35 -4 -77 -6t-73 -2q-164 0 -241.5 46.5t-77.5 144.5q0 97 80.5 150t226.5 53h273l16 -10v-124l-16 -10h-342q-62 0 -96 -14t-34 -40q0 -29 49 -41.5t162 -12.5q18 0 42 1t49 2.5t48.5 4t40.5 4.5z" />
    <glyph glyph-name="uniFBB0" unicode="&#x6d3;" horiz-adv-x="664" arabic-form="isolated" 
d="M614 10q-23 -4 -53.5 -7.5t-65.5 -6t-71.5 -4t-70.5 -1.5q-164 0 -242 40t-78 124q0 31 15.5 66.5t41.5 70.5t60 67.5t71 57t74 39.5t69 15q44 0 71 -42t32 -118l-87 -29q-6 25 -14 34.5t-22 9.5q-24 0 -57.5 -15.5t-63.5 -37.5t-51 -46t-21 -42q0 -25 49.5 -36.5
t152.5 -11.5q30 0 72.5 2t85 4.5t79 6t54.5 6.5zM407 549q-48 -3 -86.5 -10t-75.5 -18l-20 46q25 10 48 18q-31 20 -31 57q0 35 24.5 60t59.5 25q43 0 67 -35l-26 -37q-14 11 -35 11q-17 0 -27.5 -8t-10.5 -19q0 -29 60 -34q15 3 30 4.5t32 3.5z" />
    <glyph glyph-name="uniFBB1" unicode="&#x6d3;" horiz-adv-x="585" arabic-form="final" 
d="M474 -242q-35 -4 -77 -6t-73 -2q-164 0 -241.5 46.5t-77.5 144.5q0 97 80.5 150t226.5 53h273l16 -10v-124l-16 -10h-342q-62 0 -96 -14t-34 -40q0 -29 49 -41.5t162 -12.5q18 0 42 1t49 2.5t48.5 4t40.5 4.5zM408 223q-48 -3 -86.5 -10t-75.5 -18l-20 46q25 10 48 18
q-31 20 -31 57q0 35 24.5 60t59.5 25q43 0 67 -35l-26 -37q-14 11 -35 11q-17 0 -27.5 -8t-10.5 -19q0 -29 60 -34q15 3 30 4.5t32 3.5z" />
    <glyph glyph-name="uniFBE8" unicode="&#x649;" horiz-adv-x="289" arabic-form="initial" 
d="M-16 10v124l16 10q61 0 100.5 13.5t39.5 33.5q0 16 -5.5 39t-14.5 48.5t-21.5 52.5t-27.5 52l112 63q14 -24 26 -53.5t20.5 -61t13 -63.5t4.5 -60q0 -108 -59.5 -158t-187.5 -50z" />
    <glyph glyph-name="uniFBE9" unicode="&#x649;" horiz-adv-x="332" arabic-form="medial" 
d="M332 0q-57 0 -95.5 17t-63.5 52q-25 -32 -70 -50.5t-103 -18.5l-16 10v124l16 10q101 0 113 53q4 20 9 51.5t10 69.5l105 -13q-6 -49 -9 -78.5t-3 -35.5q0 -25 25.5 -36t81.5 -11l16 -10v-124z" />
    <glyph glyph-name="uniFBFC" unicode="&#x6cc;" horiz-adv-x="682" arabic-form="isolated" 
d="M417 87q-57 17 -87.5 57.5t-30.5 98.5q0 41 15 78.5t41 66t59.5 45t71.5 16.5q53 0 93.5 -32.5t60.5 -89.5l-69 -52q-34 46 -89 46q-32 0 -54 -16.5t-22 -40.5q0 -10 3.5 -17t12.5 -13.5t25 -13t41 -14.5l58 -18q100 -31 100 -120q0 -50 -29.5 -98t-78.5 -86t-111 -61
t-126 -23q-59 0 -107.5 17.5t-82.5 49t-52.5 76.5t-18.5 100q0 60 22.5 120.5t63.5 109.5l75 -46q-43 -74 -43 -142q0 -64 43.5 -102t115.5 -38q37 0 75 8.5t69 21.5t51 29t20 31q0 10 -10 16.5t-47 17.5z" />
    <glyph glyph-name="uniFBFD" unicode="&#x6cc;" horiz-adv-x="657" arabic-form="final" 
d="M657 0q-36 0 -63 10q1 -6 1.5 -12t0.5 -12q0 -32 -27 -65t-69.5 -60t-95 -44t-103.5 -17q-59 0 -107.5 17.5t-82.5 49t-52.5 76.5t-18.5 100q0 60 22.5 120.5t63.5 109.5l75 -46q-43 -74 -43 -142q0 -64 43.5 -102t115.5 -38q34 0 66.5 6.5t58 17t41.5 23.5t16 27
q0 7 -4.5 16.5t-15.5 25t-30 38.5t-48 57l93 80q21 -27 39.5 -44.5t37.5 -28t39.5 -15t46.5 -4.5l16 -10v-124z" />
    <glyph glyph-name="uniFBFE" unicode="&#x6cc;" horiz-adv-x="289" arabic-form="initial" 
d="M-16 10v124l16 10q61 0 100.5 13.5t39.5 33.5q0 16 -5.5 39t-14.5 48.5t-21.5 52.5t-27.5 52l112 63q14 -24 26 -53.5t20.5 -61t13 -63.5t4.5 -60q0 -108 -59.5 -158t-187.5 -50zM187 -235l-67 67l-67 -67l-87 87l87 87l67 -67l67 67l87 -87z" />
    <glyph glyph-name="uniFBFF" unicode="&#x6cc;" horiz-adv-x="332" arabic-form="medial" 
d="M332 0q-57 0 -95.5 17t-63.5 52q-25 -32 -70 -50.5t-103 -18.5l-16 10v124l16 10q101 0 113 53q4 20 9 51.5t10 69.5l105 -13q-6 -49 -9 -78.5t-3 -35.5q0 -25 25.5 -36t81.5 -11l16 -10v-124zM242 -235l-67 67l-67 -67l-87 87l87 87l67 -67l67 67l87 -87z" />
    <glyph glyph-name="uniFE80" unicode="&#x621;" horiz-adv-x="461" arabic-form="isolated" 
d="M410 44q-87 -6 -169 -21.5t-167 -40.5l-43 99q25 11 50 20.5t51 18.5q-29 20 -46 50t-17 71q0 36 13.5 68.5t36.5 56.5t53.5 38.5t65.5 14.5q45 0 82 -20.5t61 -58.5l-53 -71q-35 19 -77 19q-37 0 -59.5 -14t-22.5 -39q0 -30 36 -48t102 -23q31 6 61.5 10t59.5 6z" />
    <glyph glyph-name="uniFE81" unicode="&#x622;" horiz-adv-x="231" arabic-form="isolated" 
d="M62 0l-8 644l123 22l-8 -666h-107zM262 816q-14 -43 -38 -65.5t-54 -22.5q-11 0 -23.5 3.5t-30.5 11.5q-22 9 -34.5 13t-23.5 4q-26 0 -53 -40l-35 21q14 43 38 65.5t54 22.5q11 0 23.5 -3.5t30.5 -11.5q22 -9 34.5 -13t23.5 -4q26 0 53 40z" />
    <glyph glyph-name="uniFE82" unicode="&#x622;" horiz-adv-x="250" arabic-form="final" 
d="M250 0q-89 0 -140.5 39.5t-52.5 110.5l-7 494l123 22l-5 -451q0 -37 18.5 -54t63.5 -17l16 -10v-124zM258 816q-14 -43 -38 -65.5t-54 -22.5q-11 0 -23.5 3.5t-30.5 11.5q-22 9 -34.5 13t-23.5 4q-26 0 -53 -40l-35 21q14 43 38 65.5t54 22.5q11 0 23.5 -3.5t30.5 -11.5
q22 -9 34.5 -13t23.5 -4q26 0 53 40z" />
    <glyph glyph-name="uniFE83" unicode="&#x623;" horiz-adv-x="231" arabic-form="isolated" 
d="M62 0l-8 644l123 22l-8 -666h-107zM203 744q-48 -3 -86.5 -10t-75.5 -18l-20 46q25 10 48 18q-31 20 -31 57q0 35 24.5 60t59.5 25q43 0 67 -35l-26 -37q-14 11 -35 11q-17 0 -27.5 -8t-10.5 -19q0 -29 60 -34q15 3 30 4.5t32 3.5z" />
    <glyph glyph-name="uniFE84" unicode="&#x623;" horiz-adv-x="250" arabic-form="final" 
d="M250 0q-89 0 -140.5 39.5t-52.5 110.5l-7 494l123 22l-5 -451q0 -37 18.5 -54t63.5 -17l16 -10v-124zM199 744q-48 -3 -86.5 -10t-75.5 -18l-20 46q25 10 48 18q-31 20 -31 57q0 35 24.5 60t59.5 25q43 0 67 -35l-26 -37q-14 11 -35 11q-17 0 -27.5 -8t-10.5 -19
q0 -29 60 -34q15 3 30 4.5t32 3.5z" />
    <glyph glyph-name="uniFE85" unicode="&#x624;" horiz-adv-x="435" arabic-form="isolated" 
d="M41 -72q112 8 174 38.5t80 89.5q-41 -36 -101 -36q-33 0 -61 13t-47.5 37t-30.5 57.5t-11 73.5q0 47 13.5 87t37 69t56 45.5t71.5 16.5q40 0 72.5 -20.5t55.5 -58.5t35.5 -91.5t12.5 -118.5q0 -71 -21.5 -129.5t-61.5 -101.5t-96.5 -68.5t-126.5 -30.5zM219 141
q23 0 44.5 5.5t36.5 14.5q-6 59 -28 90.5t-57 31.5q-33 0 -54 -21t-21 -56q0 -31 21 -48t58 -17zM309 498q-48 -3 -86.5 -10t-75.5 -18l-20 46q25 10 48 18q-31 20 -31 57q0 35 24.5 60t59.5 25q43 0 67 -35l-26 -37q-14 11 -35 11q-17 0 -27.5 -8t-10.5 -19q0 -29 60 -34
q15 3 30 4.5t32 3.5z" />
    <glyph glyph-name="uniFE86" unicode="&#x624;" horiz-adv-x="442" arabic-form="final" 
d="M442 0h-66q-32 -87 -105.5 -139.5t-178.5 -60.5l-51 128q182 12 236 91h-29q-97 0 -150.5 48.5t-53.5 133.5q0 46 13 86t36.5 69.5t56.5 46t72 16.5q40 0 72 -21t54.5 -57.5t35 -87t14.5 -109.5h44l16 -10v-124zM140 206q0 -36 33.5 -49t90.5 -13h38q-5 67 -27 103
t-60 36q-34 0 -54.5 -21.5t-20.5 -55.5zM309 498q-48 -3 -86.5 -10t-75.5 -18l-20 46q25 10 48 18q-31 20 -31 57q0 35 24.5 60t59.5 25q43 0 67 -35l-26 -37q-14 11 -35 11q-17 0 -27.5 -8t-10.5 -19q0 -29 60 -34q15 3 30 4.5t32 3.5z" />
    <glyph glyph-name="uniFE87" unicode="&#x625;" horiz-adv-x="231" arabic-form="isolated" 
d="M62 0l-8 644l123 22l-8 -666h-107zM203 -236q-48 -3 -86.5 -10t-75.5 -18l-20 46q25 10 48 18q-31 22 -31 57t24.5 60t59.5 25q43 0 67 -35l-26 -37q-14 11 -35 11q-17 0 -27.5 -8t-10.5 -19q0 -28 60 -33l30 4t32 3z" />
    <glyph glyph-name="uniFE88" unicode="&#x625;" horiz-adv-x="250" arabic-form="final" 
d="M250 0q-89 0 -140.5 39.5t-52.5 110.5l-7 494l123 22l-5 -451q0 -37 18.5 -54t63.5 -17l16 -10v-124zM199 -236q-48 -3 -86.5 -10t-75.5 -18l-20 46q25 10 48 18q-31 22 -31 57t24.5 60t59.5 25q43 0 67 -35l-26 -37q-14 11 -35 11q-17 0 -27.5 -8t-10.5 -19
q0 -28 60 -33l30 4t32 3z" />
    <glyph glyph-name="uniFE89" unicode="&#x626;" horiz-adv-x="682" arabic-form="isolated" 
d="M417 87q-57 17 -87.5 57.5t-30.5 98.5q0 41 15 78.5t41 66t59.5 45t71.5 16.5q53 0 93.5 -32.5t60.5 -89.5l-69 -52q-34 46 -89 46q-32 0 -54 -16.5t-22 -40.5q0 -10 3.5 -17t12.5 -13.5t25 -13t41 -14.5l58 -18q100 -31 100 -120q0 -50 -29.5 -98t-78.5 -86t-111 -61
t-126 -23q-59 0 -107.5 17.5t-82.5 49t-52.5 76.5t-18.5 100q0 60 22.5 120.5t63.5 109.5l75 -46q-43 -74 -43 -142q0 -64 43.5 -102t115.5 -38q37 0 75 8.5t69 21.5t51 29t20 31q0 10 -10 16.5t-47 17.5zM262 352q-46 -3 -85 -10t-77 -18l-20 46q25 10 48 18q-31 20 -31 57
q0 35 24.5 60t59.5 25q43 0 67 -35l-26 -37q-14 11 -35 11q-17 0 -27.5 -8t-10.5 -19q0 -29 60 -34q12 2 25.5 4t36.5 4z" />
    <glyph glyph-name="uniFE8A" unicode="&#x626;" horiz-adv-x="657" arabic-form="final" 
d="M657 0q-36 0 -63 10q1 -6 1.5 -12t0.5 -12q0 -32 -27 -65t-69.5 -60t-95 -44t-103.5 -17q-59 0 -107.5 17.5t-82.5 49t-52.5 76.5t-18.5 100q0 60 22.5 120.5t63.5 109.5l75 -46q-43 -74 -43 -142q0 -64 43.5 -102t115.5 -38q34 0 66.5 6.5t58 17t41.5 23.5t16 27
q0 7 -4.5 16.5t-15.5 25t-30 38.5t-48 57l93 80q21 -27 39.5 -44.5t37.5 -28t39.5 -15t46.5 -4.5l16 -10v-124zM262 352q-46 -3 -85 -10t-77 -18l-20 46q25 10 48 18q-31 20 -31 57q0 35 24.5 60t59.5 25q43 0 67 -35l-26 -37q-14 11 -35 11q-17 0 -27.5 -8t-10.5 -19
q0 -29 60 -34q12 2 25.5 4t36.5 4z" />
    <glyph glyph-name="uniFE8B" unicode="&#x626;" horiz-adv-x="289" arabic-form="initial" 
d="M-16 10v124l16 10q61 0 100.5 13.5t39.5 33.5q0 16 -5.5 39t-14.5 48.5t-21.5 52.5t-27.5 52l112 63q14 -24 26 -53.5t20.5 -61t13 -63.5t4.5 -60q0 -108 -59.5 -158t-187.5 -50zM208 525q-48 -3 -86.5 -10t-75.5 -18l-20 46q25 10 48 18q-31 20 -31 57q0 35 24.5 60
t59.5 25q43 0 67 -35l-26 -37q-14 11 -35 11q-17 0 -27.5 -8t-10.5 -19q0 -29 60 -34q15 3 30 4.5t32 3.5z" />
    <glyph glyph-name="uniFE8C" unicode="&#x626;" horiz-adv-x="332" arabic-form="medial" 
d="M332 0q-57 0 -95.5 17t-63.5 52q-25 -32 -70 -50.5t-103 -18.5l-16 10v124l16 10q101 0 113 53q4 20 9 51.5t10 69.5l105 -13q-6 -49 -9 -78.5t-3 -35.5q0 -25 25.5 -36t81.5 -11l16 -10v-124zM274 397q-48 -3 -86.5 -10t-75.5 -18l-20 46q25 10 48 18q-31 20 -31 57
q0 35 24.5 60t59.5 25q43 0 67 -35l-26 -37q-14 11 -35 11q-17 0 -27.5 -8t-10.5 -19q0 -29 60 -34q15 3 30 4.5t32 3.5z" />
    <glyph glyph-name="uniFE8D" unicode="&#x627;" horiz-adv-x="231" arabic-form="isolated" 
d="M62 0l-8 644l123 22l-8 -666h-107z" />
    <glyph glyph-name="uniFE8E" unicode="&#x627;" horiz-adv-x="250" arabic-form="final" 
d="M250 0q-89 0 -140.5 39.5t-52.5 110.5l-7 494l123 22l-5 -451q0 -37 18.5 -54t63.5 -17l16 -10v-124z" />
    <glyph glyph-name="uniFE8F" unicode="&#x628;" horiz-adv-x="791" arabic-form="isolated" 
d="M685 446q14 -24 26 -53.5t20.5 -62t13 -65t4.5 -62.5q0 -58 -19 -98t-61.5 -65.5t-110 -37t-164.5 -11.5q-185 0 -270.5 50t-85.5 158q0 49 18.5 105t50.5 105l79 -38q-14 -32 -22.5 -64t-8.5 -55q0 -31 13.5 -52.5t42.5 -35.5t74 -20.5t109 -6.5q55 0 100.5 4t78.5 11
t51 17t18 22q0 16 -5.5 39t-14.5 48.5t-21.5 52.5t-27.5 52zM394 -235l-87 87l87 87l87 -87z" />
    <glyph glyph-name="uniFE90" unicode="&#x628;" horiz-adv-x="863" arabic-form="final" 
d="M863 0q-59 0 -97.5 17.5t-63.5 54.5q-39 -42 -113.5 -61.5t-194.5 -19.5q-185 0 -270.5 50t-85.5 158q0 49 18.5 105t50.5 105l79 -38q-14 -32 -22.5 -64t-8.5 -55q0 -31 13.5 -52.5t42.5 -35.5t74 -20.5t109 -6.5t110 3.5t76 11.5t45.5 21t19.5 31q5 23 9.5 54.5
l8.5 59.5l105 -13q-6 -49 -9 -78.5t-3 -35.5q0 -25 25.5 -36t81.5 -11l16 -10v-124zM394 -235l-87 87l87 87l87 -87z" />
    <glyph glyph-name="uniFE91" unicode="&#x628;" horiz-adv-x="289" arabic-form="initial" 
d="M-16 10v124l16 10q61 0 100.5 13.5t39.5 33.5q0 16 -5.5 39t-14.5 48.5t-21.5 52.5t-27.5 52l112 63q14 -24 26 -53.5t20.5 -61t13 -63.5t4.5 -60q0 -108 -59.5 -158t-187.5 -50zM120 -235l-87 87l87 87l87 -87z" />
    <glyph glyph-name="uniFE92" unicode="&#x628;" horiz-adv-x="332" arabic-form="medial" 
d="M332 0q-57 0 -95.5 17t-63.5 52q-25 -32 -70 -50.5t-103 -18.5l-16 10v124l16 10q101 0 113 53q4 20 9 51.5t10 69.5l105 -13q-6 -49 -9 -78.5t-3 -35.5q0 -25 25.5 -36t81.5 -11l16 -10v-124zM175 -235l-87 87l87 87l87 -87z" />
    <glyph glyph-name="uniFE93" unicode="&#x629;" horiz-adv-x="467" arabic-form="isolated" 
d="M427 177q0 -88 -51 -137t-143 -49q-94 0 -143.5 48.5t-49.5 139.5q0 55 15 104.5t41.5 86t61.5 58t75 21.5t75.5 -21.5t62 -58t41.5 -86t15 -106.5zM323 180q0 55 -25.5 90t-64.5 35q-18 0 -34.5 -8t-28.5 -21.5t-19 -31.5t-7 -39q0 -35 23.5 -54.5t65.5 -19.5
q36 0 63 14.5t27 34.5zM300 504l-67 67l-67 -67l-87 87l87 87l67 -67l67 67l87 -87z" />
    <glyph glyph-name="uniFE94" unicode="&#x629;" horiz-adv-x="484" arabic-form="final" 
d="M484 0q-76 0 -122 29t-59 83q-22 -14 -48 -22t-54 -8q-38 0 -69.5 12t-54 33.5t-35 51.5t-12.5 66q0 85 67 144.5t195 89.5l-1 67l117 21l-6 -352q-1 -37 18 -54t64 -17l16 -10v-124zM227 218q40 0 70 12l-2 122q-33 -2 -62.5 -9t-51.5 -18t-34.5 -25.5t-12.5 -29.5
q0 -25 24.5 -38.5t68.5 -13.5zM296 600l-67 67l-67 -67l-87 87l87 87l67 -67l67 67l87 -87z" />
    <glyph glyph-name="uniFE95" unicode="&#x62a;" horiz-adv-x="791" arabic-form="isolated" 
d="M685 446q14 -24 26 -53.5t20.5 -62t13 -65t4.5 -62.5q0 -58 -19 -98t-61.5 -65.5t-110 -37t-164.5 -11.5q-185 0 -270.5 50t-85.5 158q0 49 18.5 105t50.5 105l79 -38q-14 -32 -22.5 -64t-8.5 -55q0 -31 13.5 -52.5t42.5 -35.5t74 -20.5t109 -6.5q55 0 100.5 4t78.5 11
t51 17t18 22q0 16 -5.5 39t-14.5 48.5t-21.5 52.5t-27.5 52zM451 439l-67 67l-67 -67l-87 87l87 87l67 -67l67 67l87 -87z" />
    <glyph glyph-name="uniFE96" unicode="&#x62a;" horiz-adv-x="863" arabic-form="final" 
d="M863 0q-59 0 -97.5 17.5t-63.5 54.5q-39 -42 -113.5 -61.5t-194.5 -19.5q-185 0 -270.5 50t-85.5 158q0 49 18.5 105t50.5 105l79 -38q-14 -32 -22.5 -64t-8.5 -55q0 -31 13.5 -52.5t42.5 -35.5t74 -20.5t109 -6.5t110 3.5t76 11.5t45.5 21t19.5 31q5 23 9.5 54.5
l8.5 59.5l105 -13q-6 -49 -9 -78.5t-3 -35.5q0 -25 25.5 -36t81.5 -11l16 -10v-124zM488 409l-67 67l-67 -67l-87 87l87 87l67 -67l67 67l87 -87z" />
    <glyph glyph-name="uniFE97" unicode="&#x62a;" horiz-adv-x="289" arabic-form="initial" 
d="M-16 10v124l16 10q61 0 100.5 13.5t39.5 33.5q0 16 -5.5 39t-14.5 48.5t-21.5 52.5t-27.5 52l112 63q14 -24 26 -53.5t20.5 -61t13 -63.5t4.5 -60q0 -108 -59.5 -158t-187.5 -50zM188 501l-67 67l-67 -67l-87 87l87 87l67 -67l67 67l87 -87z" />
    <glyph glyph-name="uniFE98" unicode="&#x62a;" horiz-adv-x="332" arabic-form="medial" 
d="M332 0q-57 0 -95.5 17t-63.5 52q-25 -32 -70 -50.5t-103 -18.5l-16 10v124l16 10q101 0 113 53q4 20 9 51.5t10 69.5l105 -13q-6 -49 -9 -78.5t-3 -35.5q0 -25 25.5 -36t81.5 -11l16 -10v-124zM254 373l-67 67l-67 -67l-87 87l87 87l67 -67l67 67l87 -87z" />
    <glyph glyph-name="uniFE99" unicode="&#x62b;" horiz-adv-x="791" arabic-form="isolated" 
d="M685 446q14 -24 26 -53.5t20.5 -62t13 -65t4.5 -62.5q0 -58 -19 -98t-61.5 -65.5t-110 -37t-164.5 -11.5q-185 0 -270.5 50t-85.5 158q0 49 18.5 105t50.5 105l79 -38q-14 -32 -22.5 -64t-8.5 -55q0 -31 13.5 -52.5t42.5 -35.5t74 -20.5t109 -6.5q55 0 100.5 4t78.5 11
t51 17t18 22q0 16 -5.5 39t-14.5 48.5t-21.5 52.5t-27.5 52zM451 439l-67 67l-67 -67l-87 87l87 87l67 -67l67 67l87 -87zM384 600l-87 87l87 87l87 -87z" />
    <glyph glyph-name="uniFE9A" unicode="&#x62b;" horiz-adv-x="863" arabic-form="final" 
d="M863 0q-59 0 -97.5 17.5t-63.5 54.5q-39 -42 -113.5 -61.5t-194.5 -19.5q-185 0 -270.5 50t-85.5 158q0 49 18.5 105t50.5 105l79 -38q-14 -32 -22.5 -64t-8.5 -55q0 -31 13.5 -52.5t42.5 -35.5t74 -20.5t109 -6.5t110 3.5t76 11.5t45.5 21t19.5 31q5 23 9.5 54.5
l8.5 59.5l105 -13q-6 -49 -9 -78.5t-3 -35.5q0 -25 25.5 -36t81.5 -11l16 -10v-124zM488 409l-67 67l-67 -67l-87 87l87 87l67 -67l67 67l87 -87zM421 570l-87 87l87 87l87 -87z" />
    <glyph glyph-name="uniFE9B" unicode="&#x62b;" horiz-adv-x="289" arabic-form="initial" 
d="M-16 10v124l16 10q61 0 100.5 13.5t39.5 33.5q0 16 -5.5 39t-14.5 48.5t-21.5 52.5t-27.5 52l112 63q14 -24 26 -53.5t20.5 -61t13 -63.5t4.5 -60q0 -108 -59.5 -158t-187.5 -50zM188 501l-67 67l-67 -67l-87 87l87 87l67 -67l67 67l87 -87zM121 662l-87 87l87 87l87 -87
z" />
    <glyph glyph-name="uniFE9C" unicode="&#x62b;" horiz-adv-x="332" arabic-form="medial" 
d="M332 0q-57 0 -95.5 17t-63.5 52q-25 -32 -70 -50.5t-103 -18.5l-16 10v124l16 10q101 0 113 53q4 20 9 51.5t10 69.5l105 -13q-6 -49 -9 -78.5t-3 -35.5q0 -25 25.5 -36t81.5 -11l16 -10v-124zM254 373l-67 67l-67 -67l-87 87l87 87l67 -67l67 67l87 -87zM187 534l-87 87
l87 87l87 -87z" />
    <glyph glyph-name="uniFE9D" unicode="&#x62c;" horiz-adv-x="608" arabic-form="isolated" 
d="M604 -200q-43 -48 -111 -74t-148 -26q-66 0 -120.5 18t-93.5 50.5t-60 78t-21 101.5q0 104 72.5 185t205.5 127q-65 14 -98.5 19t-49.5 5q-24 0 -40.5 -7t-33.5 -25l-69 53q27 55 69.5 84.5t95.5 29.5q30 0 73.5 -8.5t103.5 -26.5q103 -30 161 -30h20v-135
q-92 -18 -164.5 -44t-122.5 -57t-76 -67.5t-26 -75.5q0 -60 55.5 -95t150.5 -35q54 0 107 9.5t87 25.5zM387 -89l-87 87l87 87l87 -87z" />
    <glyph glyph-name="uniFE9E" unicode="&#x62c;" horiz-adv-x="629" arabic-form="final" 
d="M604 -200q-43 -48 -111 -74t-148 -26q-66 0 -120.5 18t-93.5 50.5t-60 78t-21 101.5q0 104 72.5 185t205.5 127q-65 14 -98.5 19t-49.5 5q-24 0 -40.5 -7t-33.5 -25l-69 53q27 55 69.5 84.5t95.5 29.5q30 0 73.5 -8.5t103.5 -26.5q103 -30 161 -30h20v-135
q-92 -18 -164.5 -44t-122.5 -57t-76 -67.5t-26 -75.5q0 -60 55.5 -95t150.5 -35q54 0 107 9.5t87 25.5zM629 0q-89 0 -136.5 48t-47.5 139q0 13 1 29.5t2.5 33.5t3.5 34t4 30l56 -3q-3 -21 -5.5 -44.5t-2.5 -36.5q0 -24 6.5 -40.5t21 -26.5t38.5 -14.5t59 -4.5l16 -10v-124z
M356 -89l-87 87l87 87l87 -87z" />
    <glyph glyph-name="uniFE9F" unicode="&#x62c;" horiz-adv-x="564" arabic-form="initial" 
d="M231 201q27 11 50 20t45 16q-35 13 -61 22t-45.5 14.5t-33.5 8t-26 2.5q-24 0 -40.5 -7t-33.5 -25l-69 53q27 55 69.5 84.5t95.5 29.5q31 0 69.5 -10.5t103.5 -38.5q52 -23 82 -30.5t59 -7.5h20v-135q-24 -6 -46.5 -14t-47.5 -19t-54.5 -27t-68.5 -38q-50 -29 -89.5 -48
t-73.5 -30.5t-66.5 -16t-69.5 -4.5l-16 10v124l16 10q28 0 54.5 3t53.5 9.5t57 17.5t66 27zM255 -215l-87 87l87 87l87 -87z" />
    <glyph glyph-name="uniFEA0" unicode="&#x62c;" horiz-adv-x="574" arabic-form="medial" 
d="M231 201q27 11 50 20t45 16q-35 13 -61 22t-45.5 14.5t-33.5 8t-26 2.5q-24 0 -40.5 -7t-33.5 -25l-69 53q27 55 69.5 84.5t95.5 29.5q31 0 69.5 -10.5t103.5 -38.5q52 -23 82 -30.5t59 -7.5h20v-135q-24 -6 -46.5 -14t-47.5 -19t-54.5 -27t-68.5 -38q-50 -29 -89.5 -48
t-73.5 -30.5t-66.5 -16t-69.5 -4.5l-16 10v124l16 10q28 0 54.5 3t53.5 9.5t57 17.5t66 27zM574 0q-80 0 -123.5 48t-43.5 136q0 17 1 29.5t3 27.5h48q-1 -8 -1.5 -15.5t-0.5 -14.5q0 -38 25.5 -52.5t91.5 -14.5l16 -10v-124zM255 -215l-87 87l87 87l87 -87z" />
    <glyph glyph-name="uniFEA1" unicode="&#x62d;" horiz-adv-x="608" arabic-form="isolated" 
d="M604 -200q-43 -48 -111 -74t-148 -26q-66 0 -120.5 18t-93.5 50.5t-60 78t-21 101.5q0 104 72.5 185t205.5 127q-65 14 -98.5 19t-49.5 5q-24 0 -40.5 -7t-33.5 -25l-69 53q27 55 69.5 84.5t95.5 29.5q30 0 73.5 -8.5t103.5 -26.5q103 -30 161 -30h20v-135
q-92 -18 -164.5 -44t-122.5 -57t-76 -67.5t-26 -75.5q0 -60 55.5 -95t150.5 -35q54 0 107 9.5t87 25.5z" />
    <glyph glyph-name="uniFEA2" unicode="&#x62d;" horiz-adv-x="629" arabic-form="final" 
d="M604 -200q-43 -48 -111 -74t-148 -26q-66 0 -120.5 18t-93.5 50.5t-60 78t-21 101.5q0 104 72.5 185t205.5 127q-65 14 -98.5 19t-49.5 5q-24 0 -40.5 -7t-33.5 -25l-69 53q27 55 69.5 84.5t95.5 29.5q30 0 73.5 -8.5t103.5 -26.5q103 -30 161 -30h20v-135
q-92 -18 -164.5 -44t-122.5 -57t-76 -67.5t-26 -75.5q0 -60 55.5 -95t150.5 -35q54 0 107 9.5t87 25.5zM629 0q-89 0 -136.5 48t-47.5 139q0 13 1 29.5t2.5 33.5t3.5 34t4 30l56 -3q-3 -21 -5.5 -44.5t-2.5 -36.5q0 -24 6.5 -40.5t21 -26.5t38.5 -14.5t59 -4.5l16 -10v-124z
" />
    <glyph glyph-name="uniFEA3" unicode="&#x62d;" horiz-adv-x="564" arabic-form="initial" 
d="M231 201q27 11 50 20t45 16q-35 13 -61 22t-45.5 14.5t-33.5 8t-26 2.5q-24 0 -40.5 -7t-33.5 -25l-69 53q27 55 69.5 84.5t95.5 29.5q31 0 69.5 -10.5t103.5 -38.5q52 -23 82 -30.5t59 -7.5h20v-135q-24 -6 -46.5 -14t-47.5 -19t-54.5 -27t-68.5 -38q-50 -29 -89.5 -48
t-73.5 -30.5t-66.5 -16t-69.5 -4.5l-16 10v124l16 10q28 0 54.5 3t53.5 9.5t57 17.5t66 27z" />
    <glyph glyph-name="uniFEA4" unicode="&#x62d;" horiz-adv-x="574" arabic-form="medial" 
d="M231 201q27 11 50 20t45 16q-35 13 -61 22t-45.5 14.5t-33.5 8t-26 2.5q-24 0 -40.5 -7t-33.5 -25l-69 53q27 55 69.5 84.5t95.5 29.5q31 0 69.5 -10.5t103.5 -38.5q52 -23 82 -30.5t59 -7.5h20v-135q-24 -6 -46.5 -14t-47.5 -19t-54.5 -27t-68.5 -38q-50 -29 -89.5 -48
t-73.5 -30.5t-66.5 -16t-69.5 -4.5l-16 10v124l16 10q28 0 54.5 3t53.5 9.5t57 17.5t66 27zM574 0q-80 0 -123.5 48t-43.5 136q0 17 1 29.5t3 27.5h48q-1 -8 -1.5 -15.5t-0.5 -14.5q0 -38 25.5 -52.5t91.5 -14.5l16 -10v-124z" />
    <glyph glyph-name="uniFEA5" unicode="&#x62e;" horiz-adv-x="608" arabic-form="isolated" 
d="M604 -200q-43 -48 -111 -74t-148 -26q-66 0 -120.5 18t-93.5 50.5t-60 78t-21 101.5q0 104 72.5 185t205.5 127q-65 14 -98.5 19t-49.5 5q-24 0 -40.5 -7t-33.5 -25l-69 53q27 55 69.5 84.5t95.5 29.5q30 0 73.5 -8.5t103.5 -26.5q103 -30 161 -30h20v-135
q-92 -18 -164.5 -44t-122.5 -57t-76 -67.5t-26 -75.5q0 -60 55.5 -95t150.5 -35q54 0 107 9.5t87 25.5zM321 474l-87 87l87 87l87 -87z" />
    <glyph glyph-name="uniFEA6" unicode="&#x62e;" horiz-adv-x="629" arabic-form="final" 
d="M604 -200q-43 -48 -111 -74t-148 -26q-66 0 -120.5 18t-93.5 50.5t-60 78t-21 101.5q0 104 72.5 185t205.5 127q-65 14 -98.5 19t-49.5 5q-24 0 -40.5 -7t-33.5 -25l-69 53q27 55 69.5 84.5t95.5 29.5q30 0 73.5 -8.5t103.5 -26.5q103 -30 161 -30h20v-135
q-92 -18 -164.5 -44t-122.5 -57t-76 -67.5t-26 -75.5q0 -60 55.5 -95t150.5 -35q54 0 107 9.5t87 25.5zM629 0q-89 0 -136.5 48t-47.5 139q0 13 1 29.5t2.5 33.5t3.5 34t4 30l56 -3q-3 -21 -5.5 -44.5t-2.5 -36.5q0 -24 6.5 -40.5t21 -26.5t38.5 -14.5t59 -4.5l16 -10v-124z
M321 474l-87 87l87 87l87 -87z" />
    <glyph glyph-name="uniFEA7" unicode="&#x62e;" horiz-adv-x="564" arabic-form="initial" 
d="M231 201q27 11 50 20t45 16q-35 13 -61 22t-45.5 14.5t-33.5 8t-26 2.5q-24 0 -40.5 -7t-33.5 -25l-69 53q27 55 69.5 84.5t95.5 29.5q31 0 69.5 -10.5t103.5 -38.5q52 -23 82 -30.5t59 -7.5h20v-135q-24 -6 -46.5 -14t-47.5 -19t-54.5 -27t-68.5 -38q-50 -29 -89.5 -48
t-73.5 -30.5t-66.5 -16t-69.5 -4.5l-16 10v124l16 10q28 0 54.5 3t53.5 9.5t57 17.5t66 27zM301 474l-87 87l87 87l87 -87z" />
    <glyph glyph-name="uniFEA8" unicode="&#x62e;" horiz-adv-x="574" arabic-form="medial" 
d="M231 201q27 11 50 20t45 16q-35 13 -61 22t-45.5 14.5t-33.5 8t-26 2.5q-24 0 -40.5 -7t-33.5 -25l-69 53q27 55 69.5 84.5t95.5 29.5q31 0 69.5 -10.5t103.5 -38.5q52 -23 82 -30.5t59 -7.5h20v-135q-24 -6 -46.5 -14t-47.5 -19t-54.5 -27t-68.5 -38q-50 -29 -89.5 -48
t-73.5 -30.5t-66.5 -16t-69.5 -4.5l-16 10v124l16 10q28 0 54.5 3t53.5 9.5t57 17.5t66 27zM574 0q-80 0 -123.5 48t-43.5 136q0 17 1 29.5t3 27.5h48q-1 -8 -1.5 -15.5t-0.5 -14.5q0 -38 25.5 -52.5t91.5 -14.5l16 -10v-124zM301 474l-87 87l87 87l87 -87z" />
    <glyph glyph-name="uniFEA9" unicode="&#x62f;" horiz-adv-x="435" arabic-form="isolated" 
d="M19 146q25 -5 64 -8t72 -3q24 0 48.5 2.5t44 6.5t32 9t12.5 10q0 15 -13 40t-35 54.5t-51.5 61.5t-62.5 62l96 90q85 -78 129 -156.5t44 -153.5q0 -88 -54.5 -129t-172.5 -41q-35 0 -68.5 2.5t-54.5 6.5z" />
    <glyph glyph-name="uniFEAA" unicode="&#x62f;" horiz-adv-x="498" arabic-form="final" 
d="M498 0q-84 0 -138 45q-51 -54 -188 -54q-35 0 -68.5 2.5t-54.5 6.5l-30 146q25 -5 64 -8t72 -3q38 0 73.5 5t61.5 13q-11 24 -22.5 50t-24 57t-26.5 69t-32 86l118 55q21 -61 44 -125t51 -136q8 -20 16 -33t19 -20t26.5 -9.5t38.5 -2.5l16 -10v-124z" />
    <glyph glyph-name="uniFEAB" unicode="&#x630;" horiz-adv-x="435" arabic-form="isolated" 
d="M19 146q25 -5 64 -8t72 -3q24 0 48.5 2.5t44 6.5t32 9t12.5 10q0 15 -13 40t-35 54.5t-51.5 61.5t-62.5 62l96 90q85 -78 129 -156.5t44 -153.5q0 -88 -54.5 -129t-172.5 -41q-35 0 -68.5 2.5t-54.5 6.5zM165 525l-87 87l87 87l87 -87z" />
    <glyph glyph-name="uniFEAC" unicode="&#x630;" horiz-adv-x="498" arabic-form="final" 
d="M498 0q-84 0 -138 45q-51 -54 -188 -54q-35 0 -68.5 2.5t-54.5 6.5l-30 146q25 -5 64 -8t72 -3q38 0 73.5 5t61.5 13q-11 24 -22.5 50t-24 57t-26.5 69t-32 86l118 55q21 -61 44 -125t51 -136q8 -20 16 -33t19 -20t26.5 -9.5t38.5 -2.5l16 -10v-124zM221 525l-87 87
l87 87l87 -87z" />
    <glyph glyph-name="uniFEAD" unicode="&#x631;" horiz-adv-x="374" arabic-form="isolated" 
d="M-18 -77q54 22 99.5 47t78 50t51 48.5t18.5 43.5q0 14 -8 38t-22 54.5t-32.5 64.5t-40.5 68l112 62q46 -61 72 -133.5t26 -138.5q0 -52 -19.5 -100.5t-56.5 -90.5t-90 -76.5t-120 -59.5z" />
    <glyph glyph-name="uniFEAE" unicode="&#x631;" horiz-adv-x="430" arabic-form="final" 
d="M430 0q-34 0 -61 6.5t-52 21.5q-29 -72 -98.5 -132t-168.5 -96l-68 123q217 91 255 189q-17 27 -31.5 62t-34.5 91l118 55q8 -25 16.5 -50.5t20.5 -57.5q8 -21 16 -34.5t19 -21t27.5 -10t41.5 -2.5l16 -10v-124z" />
    <glyph glyph-name="uniFEAF" unicode="&#x632;" horiz-adv-x="374" arabic-form="isolated" 
d="M-18 -77q54 22 99.5 47t78 50t51 48.5t18.5 43.5q0 14 -8 38t-22 54.5t-32.5 64.5t-40.5 68l112 62q46 -61 72 -133.5t26 -138.5q0 -52 -19.5 -100.5t-56.5 -90.5t-90 -76.5t-120 -59.5zM174 454l-87 87l87 87l87 -87z" />
    <glyph glyph-name="uniFEB0" unicode="&#x632;" horiz-adv-x="430" arabic-form="final" 
d="M430 0q-34 0 -61 6.5t-52 21.5q-29 -72 -98.5 -132t-168.5 -96l-68 123q217 91 255 189q-17 27 -31.5 62t-34.5 91l118 55q8 -25 16.5 -50.5t20.5 -57.5q8 -21 16 -34.5t19 -21t27.5 -10t41.5 -2.5l16 -10v-124zM209 375l-87 87l87 87l87 -87z" />
    <glyph glyph-name="uniFEB1" unicode="&#x633;" horiz-adv-x="1148" arabic-form="isolated" 
d="M908 0q-81 0 -128 45q-51 -45 -125 -45q-145 0 -160 139l51 84q26 -83 106 -83q69 0 79 55q2 11 4.5 26.5t5.5 32t5.5 33t4.5 31.5l105 -13q-3 -19 -5 -38t-4 -35t-3 -27.5t-1 -15.5q0 -22 20 -35.5t52 -13.5q16 0 31.5 4t27.5 11t19 16t7 18q0 16 -5.5 39t-15 49.5
t-22 53.5t-27.5 52l112 63q14 -24 26 -53.5t20.5 -61t13 -63t4.5 -60.5q0 -103 -50 -155.5t-148 -52.5zM526 318q14 -28 26.5 -62.5t21.5 -70.5t14.5 -70.5t5.5 -62.5q0 -56 -20.5 -102t-57.5 -79.5t-87.5 -52t-111.5 -18.5q-65 0 -116 16.5t-87 48t-55 76.5t-19 102
q0 60 22.5 120.5t63.5 109.5l75 -46q-43 -74 -43 -142q0 -64 43.5 -102t115.5 -38q35 0 66 7t54 19t36.5 28.5t13.5 34.5q0 29 -20.5 90t-53.5 132z" />
    <glyph glyph-name="uniFEB2" unicode="&#x633;" horiz-adv-x="1189" arabic-form="final" 
d="M1110 329q-2 -73 -8.5 -129t-16.5 -88q-17 -54 -62.5 -83t-114.5 -29q-81 0 -128 45q-51 -45 -125 -45q-145 0 -160 139l51 84q26 -83 106 -83q69 0 79 55q2 11 4.5 26.5t5.5 32t5.5 33t4.5 31.5l105 -13q-3 -19 -5 -38t-4 -35t-3 -27.5t-1 -15.5q0 -22 20 -35.5
t52 -13.5t51 14.5t24 40.5q1 9 3 26t4.5 37t4 41.5t3.5 40.5zM526 318q14 -28 26.5 -62.5t21.5 -70.5t14.5 -70.5t5.5 -62.5q0 -56 -20.5 -102t-57.5 -79.5t-87.5 -52t-111.5 -18.5q-65 0 -116 16.5t-87 48t-55 76.5t-19 102q0 60 22.5 120.5t63.5 109.5l75 -46
q-43 -74 -43 -142q0 -64 43.5 -102t115.5 -38q35 0 66 7t54 19t36.5 28.5t13.5 34.5q0 29 -20.5 90t-53.5 132zM1189 0q-61 0 -105 25t-64 71l75 102q0 -54 94 -54l16 -10v-124z" />
    <glyph glyph-name="uniFEB3" unicode="&#x633;" horiz-adv-x="765" arabic-form="initial" 
d="M525 0q-81 0 -128 45q-51 -45 -125 -45q-145 0 -160 139l51 84q26 -83 106 -83q69 0 79 55q2 11 4.5 26.5t5.5 32t5.5 33t4.5 31.5l105 -13q-3 -19 -5 -38t-4 -35t-3 -27.5t-1 -15.5q0 -22 20 -35.5t52 -13.5q16 0 31.5 4t27.5 11t19 16t7 18q0 16 -5.5 39t-15 49.5
t-22 53.5t-27.5 52l112 63q14 -24 26 -53.5t20.5 -61t13 -63t4.5 -60.5q0 -103 -50 -155.5t-148 -52.5zM-16 10v124l16 10q23 0 38 4.5t27 18.5t22.5 41.5t24.5 74.5l100 -26q-14 -79 -29 -129t-38.5 -78.5t-58 -39t-86.5 -10.5z" />
    <glyph glyph-name="uniFEB4" unicode="&#x633;" horiz-adv-x="806" arabic-form="medial" 
d="M727 329q-2 -73 -8.5 -129t-16.5 -88q-17 -54 -62.5 -83t-114.5 -29q-81 0 -128 45q-51 -45 -125 -45q-145 0 -160 139l51 84q26 -83 106 -83q69 0 79 55q2 11 4.5 26.5t5.5 32t5.5 33t4.5 31.5l105 -13q-3 -19 -5 -38t-4 -35t-3 -27.5t-1 -15.5q0 -22 20 -35.5t52 -13.5
t51 14.5t24 40.5q1 9 3 26t4.5 37t4 41.5t3.5 40.5zM-16 10v124l16 10q23 0 38 4.5t27 18.5t22.5 41.5t24.5 74.5l100 -26q-14 -79 -29 -129t-38.5 -78.5t-58 -39t-86.5 -10.5zM806 0q-61 0 -105 25t-64 71l75 102q0 -54 94 -54l16 -10v-124z" />
    <glyph glyph-name="uniFEB5" unicode="&#x634;" horiz-adv-x="1148" arabic-form="isolated" 
d="M908 0q-81 0 -128 45q-51 -45 -125 -45q-145 0 -160 139l51 84q26 -83 106 -83q69 0 79 55q2 11 4.5 26.5t5.5 32t5.5 33t4.5 31.5l105 -13q-3 -19 -5 -38t-4 -35t-3 -27.5t-1 -15.5q0 -22 20 -35.5t52 -13.5q16 0 31.5 4t27.5 11t19 16t7 18q0 16 -5.5 39t-15 49.5
t-22 53.5t-27.5 52l112 63q14 -24 26 -53.5t20.5 -61t13 -63t4.5 -60.5q0 -103 -50 -155.5t-148 -52.5zM526 318q14 -28 26.5 -62.5t21.5 -70.5t14.5 -70.5t5.5 -62.5q0 -56 -20.5 -102t-57.5 -79.5t-87.5 -52t-111.5 -18.5q-65 0 -116 16.5t-87 48t-55 76.5t-19 102
q0 60 22.5 120.5t63.5 109.5l75 -46q-43 -74 -43 -142q0 -64 43.5 -102t115.5 -38q35 0 66 7t54 19t36.5 28.5t13.5 34.5q0 29 -20.5 90t-53.5 132zM818 421l-67 67l-67 -67l-87 87l87 87l67 -67l67 67l87 -87zM751 582l-87 87l87 87l87 -87z" />
    <glyph glyph-name="uniFEB6" unicode="&#x634;" horiz-adv-x="1189" arabic-form="final" 
d="M1110 329q-2 -73 -8.5 -129t-16.5 -88q-17 -54 -62.5 -83t-114.5 -29q-81 0 -128 45q-51 -45 -125 -45q-145 0 -160 139l51 84q26 -83 106 -83q69 0 79 55q2 11 4.5 26.5t5.5 32t5.5 33t4.5 31.5l105 -13q-3 -19 -5 -38t-4 -35t-3 -27.5t-1 -15.5q0 -22 20 -35.5
t52 -13.5t51 14.5t24 40.5q1 9 3 26t4.5 37t4 41.5t3.5 40.5zM526 318q14 -28 26.5 -62.5t21.5 -70.5t14.5 -70.5t5.5 -62.5q0 -56 -20.5 -102t-57.5 -79.5t-87.5 -52t-111.5 -18.5q-65 0 -116 16.5t-87 48t-55 76.5t-19 102q0 60 22.5 120.5t63.5 109.5l75 -46
q-43 -74 -43 -142q0 -64 43.5 -102t115.5 -38q35 0 66 7t54 19t36.5 28.5t13.5 34.5q0 29 -20.5 90t-53.5 132zM1189 0q-61 0 -105 25t-64 71l75 102q0 -54 94 -54l16 -10v-124zM878 421l-67 67l-67 -67l-87 87l87 87l67 -67l67 67l87 -87zM811 582l-87 87l87 87l87 -87z
" />
    <glyph glyph-name="uniFEB7" unicode="&#x634;" horiz-adv-x="765" arabic-form="initial" 
d="M525 0q-81 0 -128 45q-51 -45 -125 -45q-145 0 -160 139l51 84q26 -83 106 -83q69 0 79 55q2 11 4.5 26.5t5.5 32t5.5 33t4.5 31.5l105 -13q-3 -19 -5 -38t-4 -35t-3 -27.5t-1 -15.5q0 -22 20 -35.5t52 -13.5q16 0 31.5 4t27.5 11t19 16t7 18q0 16 -5.5 39t-15 49.5
t-22 53.5t-27.5 52l112 63q14 -24 26 -53.5t20.5 -61t13 -63t4.5 -60.5q0 -103 -50 -155.5t-148 -52.5zM-16 10v124l16 10q23 0 38 4.5t27 18.5t22.5 41.5t24.5 74.5l100 -26q-14 -79 -29 -129t-38.5 -78.5t-58 -39t-86.5 -10.5zM435 421l-67 67l-67 -67l-87 87l87 87
l67 -67l67 67l87 -87zM368 582l-87 87l87 87l87 -87z" />
    <glyph glyph-name="uniFEB8" unicode="&#x634;" horiz-adv-x="806" arabic-form="medial" 
d="M727 329q-2 -73 -8.5 -129t-16.5 -88q-17 -54 -62.5 -83t-114.5 -29q-81 0 -128 45q-51 -45 -125 -45q-145 0 -160 139l51 84q26 -83 106 -83q69 0 79 55q2 11 4.5 26.5t5.5 32t5.5 33t4.5 31.5l105 -13q-3 -19 -5 -38t-4 -35t-3 -27.5t-1 -15.5q0 -22 20 -35.5t52 -13.5
t51 14.5t24 40.5q1 9 3 26t4.5 37t4 41.5t3.5 40.5zM-16 10v124l16 10q23 0 38 4.5t27 18.5t22.5 41.5t24.5 74.5l100 -26q-14 -79 -29 -129t-38.5 -78.5t-58 -39t-86.5 -10.5zM806 0q-61 0 -105 25t-64 71l75 102q0 -54 94 -54l16 -10v-124zM495 421l-67 67l-67 -67l-87 87
l87 87l67 -67l67 67l87 -87zM428 582l-87 87l87 87l87 -87z" />
    <glyph glyph-name="uniFEB9" unicode="&#x635;" horiz-adv-x="1147" arabic-form="isolated" 
d="M530 307q21 -54 48.5 -88.5t66.5 -54.5q60 137 133 211t148 74q39 0 73.5 -18t59.5 -50t39.5 -75t14.5 -92q0 -108 -83.5 -165.5t-241.5 -57.5q-67 0 -118 13.5t-90 42t-67 74t-48 109.5zM923 305q-45 0 -90.5 -43.5t-87.5 -123.5q28 -3 63 -3q102 0 150 19.5t48 61.5
q0 18 -7 34t-18 28t-26.5 19.5t-31.5 7.5zM526 318q14 -28 26.5 -62.5t21.5 -70.5t14.5 -70.5t5.5 -62.5q0 -56 -20.5 -102t-57.5 -79.5t-87.5 -52t-111.5 -18.5q-65 0 -116 16.5t-87 48t-55 76.5t-19 102q0 60 22.5 120.5t63.5 109.5l75 -46q-43 -74 -43 -142
q0 -64 43.5 -102t115.5 -38q35 0 66 7t54 19t36.5 28.5t13.5 34.5q0 29 -20.5 90t-53.5 132z" />
    <glyph glyph-name="uniFEBA" unicode="&#x635;" horiz-adv-x="1167" arabic-form="final" 
d="M530 307q21 -54 48.5 -88.5t66.5 -54.5q60 137 133 211t148 74q39 0 73.5 -18t59.5 -50t39.5 -75t14.5 -92q0 -108 -83.5 -165.5t-241.5 -57.5q-67 0 -118 13.5t-90 42t-67 74t-48 109.5zM923 305q-45 0 -90.5 -43.5t-87.5 -123.5q28 -3 63 -3q102 0 150 19.5t48 61.5
q0 18 -7 34t-18 28t-26.5 19.5t-31.5 7.5zM526 318q14 -28 26.5 -62.5t21.5 -70.5t14.5 -70.5t5.5 -62.5q0 -56 -20.5 -102t-57.5 -79.5t-87.5 -52t-111.5 -18.5q-65 0 -116 16.5t-87 48t-55 76.5t-19 102q0 60 22.5 120.5t63.5 109.5l75 -46q-43 -74 -43 -142
q0 -64 43.5 -102t115.5 -38q35 0 66 7t54 19t36.5 28.5t13.5 34.5q0 29 -20.5 90t-53.5 132zM1167 0q-61 0 -105 25t-64 71l75 102q0 -54 94 -54l16 -10v-124z" />
    <glyph glyph-name="uniFEBB" unicode="&#x635;" horiz-adv-x="768" arabic-form="initial" 
d="M174 187q28 -25 86 -37q60 143 134.5 221t152.5 78q39 0 73.5 -18t59.5 -50t39.5 -75t14.5 -92q0 -108 -83.5 -165.5t-240.5 -57.5q-97 0 -169 19.5t-103 54.5zM544 305q-45 0 -91 -44t-88 -125q15 -1 31 -1h33q102 0 150 19.5t48 61.5q0 18 -7 34t-18 28t-26.5 19.5
t-31.5 7.5zM-16 10v124l16 10q23 0 38 4.5t27 18.5t22.5 41.5t24.5 74.5l100 -26q-14 -79 -29 -129t-38.5 -78.5t-58 -39t-86.5 -10.5z" />
    <glyph glyph-name="uniFEBC" unicode="&#x635;" horiz-adv-x="788" arabic-form="medial" 
d="M174 187q28 -25 86 -37q60 143 134.5 221t152.5 78q39 0 73.5 -18t59.5 -50t39.5 -75t14.5 -92q0 -108 -83.5 -165.5t-240.5 -57.5q-97 0 -169 19.5t-103 54.5zM544 305q-45 0 -91 -44t-88 -125q15 -1 31 -1h33q102 0 150 19.5t48 61.5q0 18 -7 34t-18 28t-26.5 19.5
t-31.5 7.5zM-16 10v124l16 10q23 0 38 4.5t27 18.5t22.5 41.5t24.5 74.5l100 -26q-14 -79 -29 -129t-38.5 -78.5t-58 -39t-86.5 -10.5zM788 0q-61 0 -105 25t-64 71l75 102q0 -54 94 -54l16 -10v-124z" />
    <glyph glyph-name="uniFEBD" unicode="&#x636;" horiz-adv-x="1147" arabic-form="isolated" 
d="M530 307q21 -54 48.5 -88.5t66.5 -54.5q60 137 133 211t148 74q39 0 73.5 -18t59.5 -50t39.5 -75t14.5 -92q0 -108 -83.5 -165.5t-241.5 -57.5q-67 0 -118 13.5t-90 42t-67 74t-48 109.5zM923 305q-45 0 -90.5 -43.5t-87.5 -123.5q28 -3 63 -3q102 0 150 19.5t48 61.5
q0 18 -7 34t-18 28t-26.5 19.5t-31.5 7.5zM526 318q14 -28 26.5 -62.5t21.5 -70.5t14.5 -70.5t5.5 -62.5q0 -56 -20.5 -102t-57.5 -79.5t-87.5 -52t-111.5 -18.5q-65 0 -116 16.5t-87 48t-55 76.5t-19 102q0 60 22.5 120.5t63.5 109.5l75 -46q-43 -74 -43 -142
q0 -64 43.5 -102t115.5 -38q35 0 66 7t54 19t36.5 28.5t13.5 34.5q0 29 -20.5 90t-53.5 132zM907 504l-87 87l87 87l87 -87z" />
    <glyph glyph-name="uniFEBE" unicode="&#x636;" horiz-adv-x="1167" arabic-form="final" 
d="M530 307q21 -54 48.5 -88.5t66.5 -54.5q60 137 133 211t148 74q39 0 73.5 -18t59.5 -50t39.5 -75t14.5 -92q0 -108 -83.5 -165.5t-241.5 -57.5q-67 0 -118 13.5t-90 42t-67 74t-48 109.5zM923 305q-45 0 -90.5 -43.5t-87.5 -123.5q28 -3 63 -3q102 0 150 19.5t48 61.5
q0 18 -7 34t-18 28t-26.5 19.5t-31.5 7.5zM526 318q14 -28 26.5 -62.5t21.5 -70.5t14.5 -70.5t5.5 -62.5q0 -56 -20.5 -102t-57.5 -79.5t-87.5 -52t-111.5 -18.5q-65 0 -116 16.5t-87 48t-55 76.5t-19 102q0 60 22.5 120.5t63.5 109.5l75 -46q-43 -74 -43 -142
q0 -64 43.5 -102t115.5 -38q35 0 66 7t54 19t36.5 28.5t13.5 34.5q0 29 -20.5 90t-53.5 132zM1167 0q-61 0 -105 25t-64 71l75 102q0 -54 94 -54l16 -10v-124zM907 504l-87 87l87 87l87 -87z" />
    <glyph glyph-name="uniFEBF" unicode="&#x636;" horiz-adv-x="768" arabic-form="initial" 
d="M174 187q28 -25 86 -37q60 143 134.5 221t152.5 78q39 0 73.5 -18t59.5 -50t39.5 -75t14.5 -92q0 -108 -83.5 -165.5t-240.5 -57.5q-97 0 -169 19.5t-103 54.5zM544 305q-45 0 -91 -44t-88 -125q15 -1 31 -1h33q102 0 150 19.5t48 61.5q0 18 -7 34t-18 28t-26.5 19.5
t-31.5 7.5zM-16 10v124l16 10q23 0 38 4.5t27 18.5t22.5 41.5t24.5 74.5l100 -26q-14 -79 -29 -129t-38.5 -78.5t-58 -39t-86.5 -10.5zM528 504l-87 87l87 87l87 -87z" />
    <glyph glyph-name="uniFEC0" unicode="&#x636;" horiz-adv-x="788" arabic-form="medial" 
d="M174 187q28 -25 86 -37q60 143 134.5 221t152.5 78q39 0 73.5 -18t59.5 -50t39.5 -75t14.5 -92q0 -108 -83.5 -165.5t-240.5 -57.5q-97 0 -169 19.5t-103 54.5zM544 305q-45 0 -91 -44t-88 -125q15 -1 31 -1h33q102 0 150 19.5t48 61.5q0 18 -7 34t-18 28t-26.5 19.5
t-31.5 7.5zM-16 10v124l16 10q23 0 38 4.5t27 18.5t22.5 41.5t24.5 74.5l100 -26q-14 -79 -29 -129t-38.5 -78.5t-58 -39t-86.5 -10.5zM788 0q-61 0 -105 25t-64 71l75 102q0 -54 94 -54l16 -10v-124zM528 504l-87 87l87 87l87 -87z" />
    <glyph glyph-name="uniFEC1" unicode="&#x637;" horiz-adv-x="677" arabic-form="isolated" 
d="M19 147q38 -3 76 -5.5t77 -4.5l-12 507l123 22l-9 -369q38 72 85.5 112t95.5 40q40 0 74 -18t59.5 -49.5t40 -74.5t14.5 -93q0 -108 -83.5 -165.5t-241.5 -57.5q-81 0 -153 2t-116 7zM452 305q-44 0 -90 -44.5t-89 -125.5h52q109 0 160 19.5t51 61.5q0 18 -7 34t-18.5 28
t-26.5 19.5t-32 7.5z" />
    <glyph glyph-name="uniFEC2" unicode="&#x637;" horiz-adv-x="697" arabic-form="final" 
d="M19 147q38 -3 76 -5.5t77 -4.5l-12 507l123 22l-9 -369q38 72 85.5 112t95.5 40q40 0 74 -18t59.5 -49.5t40 -74.5t14.5 -93q0 -108 -83.5 -165.5t-241.5 -57.5q-81 0 -153 2t-116 7zM452 305q-44 0 -90 -44.5t-89 -125.5h52q109 0 160 19.5t51 61.5q0 18 -7 34t-18.5 28
t-26.5 19.5t-32 7.5zM697 0q-61 0 -105 25t-64 71l75 102q0 -54 94 -54l16 -10v-124z" />
    <glyph glyph-name="uniFEC3" unicode="&#x637;" horiz-adv-x="563" arabic-form="initial" 
d="M0 0l-16 10v124l16 10h58l-12 500l123 22l-9 -369q38 72 85.5 112t95.5 40q40 0 74 -18t59.5 -49.5t40 -74.5t14.5 -93q0 -106 -81.5 -160t-242.5 -54h-205zM338 305q-43 0 -87.5 -42t-86.5 -119h41q61 0 102.5 3.5t67 12t36.5 22.5t11 34q0 18 -7 34t-18.5 28
t-26.5 19.5t-32 7.5z" />
    <glyph glyph-name="uniFEC4" unicode="&#x637;" horiz-adv-x="583" arabic-form="medial" 
d="M0 0l-16 10v124l16 10h58l-12 500l123 22l-9 -369q38 72 85.5 112t95.5 40q40 0 74 -18t59.5 -49.5t40 -74.5t14.5 -93q0 -106 -81.5 -160t-242.5 -54h-205zM338 305q-43 0 -87.5 -42t-86.5 -119h41q61 0 102.5 3.5t67 12t36.5 22.5t11 34q0 18 -7 34t-18.5 28
t-26.5 19.5t-32 7.5zM583 0q-61 0 -105 25t-64 71l75 102q0 -54 94 -54l16 -10v-124z" />
    <glyph glyph-name="uniFEC5" unicode="&#x638;" horiz-adv-x="677" arabic-form="isolated" 
d="M19 147q38 -3 76 -5.5t77 -4.5l-12 507l123 22l-9 -369q38 72 85.5 112t95.5 40q40 0 74 -18t59.5 -49.5t40 -74.5t14.5 -93q0 -108 -83.5 -165.5t-241.5 -57.5q-81 0 -153 2t-116 7zM452 305q-44 0 -90 -44.5t-89 -125.5h52q109 0 160 19.5t51 61.5q0 18 -7 34t-18.5 28
t-26.5 19.5t-32 7.5zM455 504l-87 87l87 87l87 -87z" />
    <glyph glyph-name="uniFEC6" unicode="&#x638;" horiz-adv-x="697" arabic-form="final" 
d="M19 147q38 -3 76 -5.5t77 -4.5l-12 507l123 22l-9 -369q38 72 85.5 112t95.5 40q40 0 74 -18t59.5 -49.5t40 -74.5t14.5 -93q0 -108 -83.5 -165.5t-241.5 -57.5q-81 0 -153 2t-116 7zM452 305q-44 0 -90 -44.5t-89 -125.5h52q109 0 160 19.5t51 61.5q0 18 -7 34t-18.5 28
t-26.5 19.5t-32 7.5zM697 0q-61 0 -105 25t-64 71l75 102q0 -54 94 -54l16 -10v-124zM455 504l-87 87l87 87l87 -87z" />
    <glyph glyph-name="uniFEC7" unicode="&#x638;" horiz-adv-x="563" arabic-form="initial" 
d="M0 0l-16 10v124l16 10h58l-12 500l123 22l-9 -369q38 72 85.5 112t95.5 40q40 0 74 -18t59.5 -49.5t40 -74.5t14.5 -93q0 -106 -81.5 -160t-242.5 -54h-205zM338 305q-43 0 -87.5 -42t-86.5 -119h41q61 0 102.5 3.5t67 12t36.5 22.5t11 34q0 18 -7 34t-18.5 28
t-26.5 19.5t-32 7.5zM341 504l-87 87l87 87l87 -87z" />
    <glyph glyph-name="uniFEC8" unicode="&#x638;" horiz-adv-x="583" arabic-form="medial" 
d="M0 0l-16 10v124l16 10h58l-12 500l123 22l-9 -369q38 72 85.5 112t95.5 40q40 0 74 -18t59.5 -49.5t40 -74.5t14.5 -93q0 -106 -81.5 -160t-242.5 -54h-205zM338 305q-43 0 -87.5 -42t-86.5 -119h41q61 0 102.5 3.5t67 12t36.5 22.5t11 34q0 18 -7 34t-18.5 28
t-26.5 19.5t-32 7.5zM583 0q-61 0 -105 25t-64 71l75 102q0 -54 94 -54l16 -10v-124zM341 504l-87 87l87 87l87 -87z" />
    <glyph glyph-name="uniFEC9" unicode="&#x639;" horiz-adv-x="519" arabic-form="isolated" 
d="M536 -200q-43 -48 -111 -74t-146 -26q-60 0 -108.5 15.5t-83 45t-53 70.5t-18.5 92q0 75 40.5 136t115.5 103q-69 48 -69 139q0 41 15 77.5t40.5 63.5t60 42.5t73.5 15.5q45 0 83.5 -21t62.5 -59l-53 -71q-38 20 -81 20q-45 0 -73 -19.5t-28 -49.5q0 -32 33.5 -52
t97.5 -27q60 13 131 18l-18 -136q-146 -8 -228 -49t-82 -108q0 -48 45 -74.5t129 -26.5q26 0 53 2.5t52.5 7t47.5 11t39 14.5z" />
    <glyph glyph-name="uniFECA" unicode="&#x639;" horiz-adv-x="530" arabic-form="final" 
d="M534 -200q-43 -48 -111 -74t-149 -26q-57 0 -104.5 15t-81.5 42t-53 64.5t-19 83.5q0 31 9 59.5t28.5 55.5t50.5 53.5t76 55.5q-34 29 -64.5 66t-58.5 82l20 111q39 26 92.5 41t110.5 15q98 0 153 -34t55 -94q0 -79 -96 -166q26 -4 58.5 -5t79.5 -1l16 -10v-124l-16 -10
q-38 0 -71 3.5t-63.5 11.5t-61.5 21t-65 33q-70 -35 -101 -65.5t-31 -63.5q0 -48 43 -71.5t128 -23.5q53 0 106 9.5t87 25.5zM171 292q8 -14 20.5 -29t27 -29.5t30 -26.5t30.5 -21q16 9 34 23t33.5 28t25.5 27t10 21q0 13 -29 21.5t-73 8.5q-35 0 -63.5 -6t-45.5 -17z" />
    <glyph glyph-name="uniFECB" unicode="&#x639;" horiz-adv-x="466" arabic-form="initial" 
d="M407 66q-38 -15 -85.5 -27t-101 -21t-110 -13.5t-110.5 -4.5l-16 10v124l16 10h43.5t44.5 2q-32 43 -32 104q0 41 15 77.5t40.5 63.5t60 42.5t73.5 15.5q45 0 83.5 -21t62.5 -59l-53 -71q-38 20 -81 20q-45 0 -73 -19.5t-28 -49.5q0 -32 34.5 -52.5t99.5 -27.5
q33 5 66 11t68 14z" />
    <glyph glyph-name="uniFECC" unicode="&#x639;" horiz-adv-x="515" arabic-form="medial" 
d="M515 0q-37 0 -69 3.5t-62 11t-59.5 20t-62.5 30.5q-48 -32 -115 -48.5t-147 -16.5l-16 10v124l16 10q42 0 77 1.5t64 5.5q-26 26 -51 57.5t-48 68.5l20 111q39 26 92.5 41t110.5 15q98 0 153 -34t55 -94q0 -79 -96 -166q27 -3 59 -4.5t79 -1.5l16 -10v-124zM156 292
q8 -14 20.5 -29t27 -29.5t30 -26.5t30.5 -21q16 9 34 23t33.5 28t25.5 27t10 21q0 13 -29 21.5t-73 8.5q-35 0 -63.5 -6t-45.5 -17z" />
    <glyph glyph-name="uniFECD" unicode="&#x63a;" horiz-adv-x="519" arabic-form="isolated" 
d="M536 -200q-43 -48 -111 -74t-146 -26q-60 0 -108.5 15.5t-83 45t-53 70.5t-18.5 92q0 75 40.5 136t115.5 103q-69 48 -69 139q0 41 15 77.5t40.5 63.5t60 42.5t73.5 15.5q45 0 83.5 -21t62.5 -59l-53 -71q-38 20 -81 20q-45 0 -73 -19.5t-28 -49.5q0 -32 33.5 -52
t97.5 -27q60 13 131 18l-18 -136q-146 -8 -228 -49t-82 -108q0 -48 45 -74.5t129 -26.5q26 0 53 2.5t52.5 7t47.5 11t39 14.5zM292 554l-87 87l87 87l87 -87z" />
    <glyph glyph-name="uniFECE" unicode="&#x63a;" horiz-adv-x="530" arabic-form="final" 
d="M534 -200q-43 -48 -111 -74t-149 -26q-57 0 -104.5 15t-81.5 42t-53 64.5t-19 83.5q0 31 9 59.5t28.5 55.5t50.5 53.5t76 55.5q-34 29 -64.5 66t-58.5 82l20 111q39 26 92.5 41t110.5 15q98 0 153 -34t55 -94q0 -79 -96 -166q26 -4 58.5 -5t79.5 -1l16 -10v-124l-16 -10
q-38 0 -71 3.5t-63.5 11.5t-61.5 21t-65 33q-70 -35 -101 -65.5t-31 -63.5q0 -48 43 -71.5t128 -23.5q53 0 106 9.5t87 25.5zM171 292q8 -14 20.5 -29t27 -29.5t30 -26.5t30.5 -21q16 9 34 23t33.5 28t25.5 27t10 21q0 13 -29 21.5t-73 8.5q-35 0 -63.5 -6t-45.5 -17z
M280 499l-87 87l87 87l87 -87z" />
    <glyph glyph-name="uniFECF" unicode="&#x63a;" horiz-adv-x="466" arabic-form="initial" 
d="M407 66q-38 -15 -85.5 -27t-101 -21t-110 -13.5t-110.5 -4.5l-16 10v124l16 10h43.5t44.5 2q-32 43 -32 104q0 41 15 77.5t40.5 63.5t60 42.5t73.5 15.5q45 0 83.5 -21t62.5 -59l-53 -71q-38 20 -81 20q-45 0 -73 -19.5t-28 -49.5q0 -32 34.5 -52.5t99.5 -27.5
q33 5 66 11t68 14zM245 504l-87 87l87 87l87 -87z" />
    <glyph glyph-name="uniFED0" unicode="&#x63a;" horiz-adv-x="515" arabic-form="medial" 
d="M515 0q-37 0 -69 3.5t-62 11t-59.5 20t-62.5 30.5q-48 -32 -115 -48.5t-147 -16.5l-16 10v124l16 10q42 0 77 1.5t64 5.5q-26 26 -51 57.5t-48 68.5l20 111q39 26 92.5 41t110.5 15q98 0 153 -34t55 -94q0 -79 -96 -166q27 -3 59 -4.5t79 -1.5l16 -10v-124zM156 292
q8 -14 20.5 -29t27 -29.5t30 -26.5t30.5 -21q16 9 34 23t33.5 28t25.5 27t10 21q0 13 -29 21.5t-73 8.5q-35 0 -63.5 -6t-45.5 -17zM265 499l-87 87l87 87l87 -87z" />
    <glyph glyph-name="uniFED1" unicode="&#x641;" horiz-adv-x="793" arabic-form="isolated" 
d="M644 233q-40 -31 -98 -31q-71 0 -111.5 43t-40.5 119q0 43 13 81t35.5 66t53.5 44t66 16q89 0 135.5 -88t46.5 -256q0 -85 -23.5 -131.5t-78.5 -69.5q-83 -35 -248 -35q-185 0 -270.5 50t-85.5 158q0 49 18.5 105t50.5 105l79 -38q-14 -32 -22.5 -64t-8.5 -55
q0 -31 13.5 -52.5t42.5 -35.5t74 -20.5t109 -6.5q56 0 102 2.5t79 7.5t51 12t18 15v59zM559 314q24 0 45 5t35 16q-8 57 -27.5 83t-52.5 26q-32 0 -52.5 -20.5t-20.5 -52.5q0 -27 19 -42t54 -15zM562 625l-87 87l87 87l87 -87z" />
    <glyph glyph-name="uniFED2" unicode="&#x641;" horiz-adv-x="832" arabic-form="final" 
d="M832 0q-60 0 -117 10.5t-102 30.5q-50 -24 -107 -37t-112 -13q-185 0 -270.5 50t-85.5 158q0 49 18.5 105t50.5 105l79 -38q-14 -32 -22.5 -64t-8.5 -55q0 -31 13.5 -52.5t42.5 -35.5t74 -20.5t109 -6.5h39t36 2q-31 46 -31 109q0 41 14 77.5t37.5 64t55 43.5t67.5 16
t67.5 -16t55 -43.5t37.5 -64.5t14 -78q0 -57 -27 -102q17 -1 35 -1h38l16 -10v-124zM536 242q0 -56 79 -78q73 26 73 78q0 31 -22 51t-54 20t-54 -20t-22 -51zM612 504l-87 87l87 87l87 -87z" />
    <glyph glyph-name="uniFED3" unicode="&#x641;" horiz-adv-x="432" arabic-form="initial" 
d="M283 233q-40 -31 -98 -31q-71 0 -111.5 43t-40.5 119q0 43 13 81t36 66t53.5 44t66.5 16q88 0 134.5 -88t46.5 -256q0 -85 -23.5 -131.5t-78.5 -69.5q-18 -8 -39.5 -13t-50.5 -8t-67.5 -4t-90.5 -1h-33l-16 10v124l16 10h33q69 0 117 2t77.5 5.5t42.5 9t13 13.5v59z
M198 314q24 0 45 5t35 16q-8 57 -27.5 83t-52.5 26q-32 0 -52.5 -20.5t-20.5 -52.5q0 -27 19 -42t54 -15zM202 625l-87 87l87 87l87 -87z" />
    <glyph glyph-name="uniFED4" unicode="&#x641;" horiz-adv-x="440" arabic-form="medial" 
d="M440 0q-60 0 -117.5 10.5t-102.5 30.5q-45 -20 -102.5 -30.5t-117.5 -10.5l-16 10v124l16 10h38t35 1q-27 43 -27 102q0 41 14 78t37.5 64.5t55 43.5t67.5 16t67.5 -16t55 -43.5t37.5 -64.5t14 -78q0 -57 -27 -102q17 -1 35 -1h38l16 -10v-124zM144 242q0 -54 76 -77
q76 23 76 77q0 31 -22 51t-54 20t-54 -20t-22 -51zM220 504l-87 87l87 87l87 -87z" />
    <glyph glyph-name="uniFED5" unicode="&#x642;" horiz-adv-x="672" arabic-form="isolated" 
d="M344 -56q40 0 75 4.5t61 12t41 17.5t15 21v74q-20 -15 -45 -23.5t-54 -8.5q-71 0 -112.5 46t-41.5 124q0 43 13 81t35.5 66.5t53.5 44.5t66 16q92 0 138.5 -92.5t46.5 -276.5q0 -124 -76 -187t-225 -63q-69 0 -123.5 16.5t-93 48t-58.5 76.5t-20 102q0 60 22.5 120.5
t63.5 109.5l75 -46q-21 -36 -32 -73t-11 -69q0 -69 47 -105t139 -36zM450 159q23 0 44 5.5t35 15.5q-8 57 -28.5 84t-53.5 27q-32 0 -52 -20.5t-20 -53.5q0 -27 20 -42.5t55 -15.5zM518 474l-67 67l-67 -67l-87 87l87 87l67 -67l67 67l87 -87z" />
    <glyph glyph-name="uniFED6" unicode="&#x642;" horiz-adv-x="675" arabic-form="final" 
d="M675 0h-43q-14 -99 -89 -149.5t-208 -50.5q-69 0 -123.5 16.5t-93 48t-58.5 76.5t-20 102q0 60 22.5 120.5t63.5 109.5l75 -46q-21 -36 -32 -73t-11 -69q0 -69 47 -105t139 -36q42 0 77.5 3.5t61 10t39.5 15.5t14 20v19h-39q-100 0 -157 53t-57 146q0 43 13 81t35.5 66.5
t53.5 44.5t66 16q158 0 181 -275h43l16 -10v-124zM375 217q0 -39 36 -56t117 -17h5q-6 76 -27 111.5t-59 35.5q-32 0 -52 -20.5t-20 -53.5zM518 474l-67 67l-67 -67l-87 87l87 87l67 -67l67 67l87 -87z" />
    <glyph glyph-name="uniFED7" unicode="&#x642;" horiz-adv-x="432" arabic-form="initial" 
d="M283 233q-40 -31 -98 -31q-71 0 -111.5 43t-40.5 119q0 43 13 81t36 66t53.5 44t66.5 16q88 0 134.5 -88t46.5 -256q0 -85 -23.5 -131.5t-78.5 -69.5q-18 -8 -39.5 -13t-50.5 -8t-67.5 -4t-90.5 -1h-33l-16 10v124l16 10h33q69 0 117 2t77.5 5.5t42.5 9t13 13.5v59z
M198 314q24 0 45 5t35 16q-8 57 -27.5 83t-52.5 26q-32 0 -52.5 -20.5t-20.5 -52.5q0 -27 19 -42t54 -15zM269 625l-67 67l-67 -67l-87 87l87 87l67 -67l67 67l87 -87z" />
    <glyph glyph-name="uniFED8" unicode="&#x642;" horiz-adv-x="440" arabic-form="medial" 
d="M440 0q-60 0 -117.5 10.5t-102.5 30.5q-45 -20 -102.5 -30.5t-117.5 -10.5l-16 10v124l16 10h38t35 1q-27 43 -27 102q0 41 14 78t37.5 64.5t55 43.5t67.5 16t67.5 -16t55 -43.5t37.5 -64.5t14 -78q0 -57 -27 -102q17 -1 35 -1h38l16 -10v-124zM144 242q0 -54 76 -77
q76 23 76 77q0 31 -22 51t-54 20t-54 -20t-22 -51zM287 504l-67 67l-67 -67l-87 87l87 87l67 -67l67 67l87 -87z" />
    <glyph glyph-name="uniFED9" unicode="&#x643;" horiz-adv-x="716" arabic-form="isolated" 
d="M543 644l123 22l-6 -483q-2 -96 -80.5 -144t-232.5 -48q-158 0 -233.5 51t-75.5 157q0 49 18.5 105t50.5 105l79 -38q-14 -32 -22.5 -64t-8.5 -55q0 -60 46 -87.5t146 -27.5q44 0 81 4t64 11.5t42 17t15 21.5zM272 369q45 6 70.5 13t25.5 13q0 3 -20 12l-12 5
q-18 8 -25.5 20t-7.5 32q0 17 10.5 32t29 26.5t44 18.5t55.5 9l-5 -64q-28 -2 -43.5 -8t-15.5 -14q0 -4 4.5 -7t18.5 -8l13 -5q38 -17 38 -45q0 -17 -12.5 -32.5t-34.5 -28t-52 -21t-64 -10.5z" />
    <glyph glyph-name="uniFEDA" unicode="&#x643;" horiz-adv-x="762" arabic-form="final" 
d="M762 0q-54 0 -91 15t-63 47q-37 -35 -101 -53t-160 -18q-157 0 -233 51t-76 157q0 49 18.5 105t50.5 105l79 -38q-14 -32 -22.5 -64t-8.5 -55q0 -60 46 -87.5t146 -27.5q56 0 94.5 5t62.5 13t34.5 17.5t10.5 18.5l-6 453l123 22l-6 -486q16 -20 38 -28t64 -8l16 -10v-124
zM272 369q45 6 70.5 13t25.5 13q0 3 -20 12l-12 5q-18 8 -25.5 20t-7.5 32q0 17 10.5 32t29 26.5t44 18.5t55.5 9l-5 -64q-28 -2 -43.5 -8t-15.5 -14q0 -4 4.5 -7t18.5 -8l13 -5q38 -17 38 -45q0 -17 -12.5 -32.5t-34.5 -28t-52 -21t-64 -10.5z" />
    <glyph glyph-name="uniFEDB" unicode="&#x643;" horiz-adv-x="441" arabic-form="initial" 
d="M-16 10v124l16 10q36 0 76 4t73.5 10.5t55.5 14.5t22 15q0 13 -15 35t-40.5 48.5t-60.5 55.5t-74 57l19 117q85 48 173.5 90t172.5 75l24 -125q-43 -16 -78 -29t-65.5 -25t-58 -23.5t-55.5 -23.5q85 -71 125 -136t40 -131q0 -86 -84.5 -129.5t-249.5 -43.5z" />
    <glyph glyph-name="uniFEDC" unicode="&#x643;" horiz-adv-x="419" arabic-form="medial" 
d="M419 0q-67 0 -113 13t-81 45q-34 -30 -88.5 -44t-136.5 -14l-16 10v124l16 10q57 0 91.5 4t59.5 14l-121 222l19 117q85 48 174 90t172 75l24 -125q-46 -17 -83.5 -31t-69.5 -26.5t-62 -25.5t-61 -27l122 -222q11 -20 23 -32.5t29 -19.5t41.5 -10t60.5 -3l16 -10v-124z
" />
    <glyph glyph-name="uniFEDD" unicode="&#x644;" horiz-adv-x="632" arabic-form="isolated" 
d="M455 644l123 22l-8 -626q-1 -56 -19.5 -100t-52.5 -75.5t-82.5 -48t-108.5 -16.5q-62 0 -111 17t-84 48.5t-53.5 76.5t-18.5 101q0 60 22.5 120.5t63.5 109.5l75 -46q-21 -35 -32 -72t-11 -70q0 -68 38.5 -104t110.5 -36q34 0 62.5 6.5t49.5 18.5t32 28.5t11 35.5z" />
    <glyph glyph-name="uniFEDE" unicode="&#x644;" horiz-adv-x="674" arabic-form="final" 
d="M674 0q-66 0 -105 23q-3 -51 -22.5 -92.5t-53 -70.5t-81 -44.5t-105.5 -15.5q-62 0 -111 17t-84 48.5t-53.5 76.5t-18.5 101q0 60 22.5 120.5t63.5 109.5l75 -46q-21 -35 -32 -72t-11 -70q0 -68 38.5 -104t110.5 -36q34 0 62.5 6.5t49.5 18.5t32 28.5t11 35.5l-7 610
l123 22l-6 -486q16 -20 38 -28t64 -8l16 -10v-124z" />
    <glyph glyph-name="uniFEDF" unicode="&#x644;" horiz-adv-x="264" arabic-form="initial" 
d="M-16 10v124l16 10q45 0 71 10.5t26 29.5l-6 460l123 22l-6 -471q-2 -94 -55 -144.5t-153 -50.5z" />
    <glyph glyph-name="uniFEE0" unicode="&#x644;" horiz-adv-x="310" arabic-form="medial" 
d="M310 0q-53 0 -89 13.5t-61 44.5q-26 -29 -67 -43.5t-93 -14.5l-16 10v124l16 10q45 0 71 10.5t26 29.5l-6 460l123 22l-6 -486q16 -20 38 -28t64 -8l16 -10v-124z" />
    <glyph glyph-name="uniFEE1" unicode="&#x645;" horiz-adv-x="559" arabic-form="isolated" 
d="M41 -380l-8 432q-1 43 26 67.5t75 24.5h28q-23 35 -23 82q0 39 15.5 74t41.5 61.5t60.5 42t73.5 15.5q40 0 75 -16t60 -44.5t39.5 -67t14.5 -84.5q0 -45 -15 -83t-41 -65.5t-62.5 -43t-79.5 -15.5h-151q-20 0 -20 -17l-2 -363h-107zM241 208q0 -38 39.5 -59.5
t108.5 -21.5h4q24 25 24 64q0 40 -24.5 64t-65.5 24q-37 0 -61.5 -20t-24.5 -51z" />
    <glyph glyph-name="uniFEE2" unicode="&#x645;" horiz-adv-x="579" arabic-form="final" 
d="M579 0q-76 0 -122 36q-45 -45 -122 -45q-98 0 -167 75l-15 -31q-4 -8 -4 -18l-1 -397h-107l-8 404q-1 22 3.5 37.5t15.5 35.5l120 206q33 57 73.5 86.5t86.5 29.5q36 0 68.5 -19t57 -51t38.5 -74t14 -88v-15t-1 -14q25 -14 70 -14l16 -10v-124zM225 182
q19 -24 50.5 -39.5t64.5 -15.5q31 0 49.5 18t18.5 47q0 36 -24 61.5t-58 25.5q-54 0 -91 -76z" />
    <glyph glyph-name="uniFEE3" unicode="&#x645;" horiz-adv-x="532" arabic-form="initial" 
d="M317 -9q-103 0 -171 80q-29 -37 -64 -54t-82 -17l-16 10v124l16 10q19 0 33 3t25.5 11.5t22.5 22.5t23 36l50 86q32 57 73 86.5t87 29.5q36 0 68.5 -19t57 -51t38.5 -75t14 -92q0 -90 -46.5 -140.5t-128.5 -50.5zM206 182q20 -25 51.5 -40t64.5 -15q30 0 49 18t19 47
q0 36 -24 61.5t-58 25.5q-54 0 -91 -76z" />
    <glyph glyph-name="uniFEE4" unicode="&#x645;" horiz-adv-x="561" arabic-form="medial" 
d="M317 -9q-103 0 -171 80q-29 -37 -64 -54t-82 -17l-16 10v124l16 10q19 0 33 3t25.5 11.5t22.5 22.5t23 36l50 86q32 57 73 86.5t87 29.5q36 0 68.5 -19t57 -51t38.5 -75t14 -92q0 -90 -46.5 -140.5t-128.5 -50.5zM206 182q20 -25 51.5 -40t64.5 -15q30 0 49 18t19 47
q0 36 -24 61.5t-58 25.5q-54 0 -91 -76zM561 0q-61 0 -105 25t-64 71l75 102q0 -54 94 -54l16 -10v-124z" />
    <glyph glyph-name="uniFEE5" unicode="&#x646;" horiz-adv-x="630" arabic-form="isolated" 
d="M526 318q14 -28 26.5 -62.5t21.5 -70.5t14.5 -70.5t5.5 -62.5q0 -56 -20.5 -102t-57.5 -79.5t-87.5 -52t-111.5 -18.5q-65 0 -116 16.5t-87 48t-55 76.5t-19 102q0 60 22.5 120.5t63.5 109.5l75 -46q-43 -74 -43 -142q0 -64 43.5 -102t115.5 -38q35 0 66 7t54 19
t36.5 28.5t13.5 34.5q0 29 -20.5 90t-53.5 132zM309 328l-87 87l87 87l87 -87z" />
    <glyph glyph-name="uniFEE6" unicode="&#x646;" horiz-adv-x="663" arabic-form="final" 
d="M526 318q14 -28 26.5 -62.5t21.5 -70.5t14.5 -70.5t5.5 -62.5q0 -56 -20.5 -102t-57.5 -79.5t-87.5 -52t-111.5 -18.5q-65 0 -116 16.5t-87 48t-55 76.5t-19 102q0 60 22.5 120.5t63.5 109.5l75 -46q-43 -74 -43 -142q0 -64 43.5 -102t115.5 -38q35 0 66 7t54 19
t36.5 28.5t13.5 34.5q0 29 -20.5 90t-53.5 132zM663 0q-61 0 -105 25t-64 71l75 102q0 -54 94 -54l16 -10v-124zM309 328l-87 87l87 87l87 -87z" />
    <glyph glyph-name="uniFEE7" unicode="&#x646;" horiz-adv-x="289" arabic-form="initial" 
d="M-16 10v124l16 10q61 0 100.5 13.5t39.5 33.5q0 16 -5.5 39t-14.5 48.5t-21.5 52.5t-27.5 52l112 63q14 -24 26 -53.5t20.5 -61t13 -63.5t4.5 -60q0 -108 -59.5 -158t-187.5 -50zM121 501l-87 87l87 87l87 -87z" />
    <glyph glyph-name="uniFEE8" unicode="&#x646;" horiz-adv-x="332" arabic-form="medial" 
d="M332 0q-57 0 -95.5 17t-63.5 52q-25 -32 -70 -50.5t-103 -18.5l-16 10v124l16 10q101 0 113 53q4 20 9 51.5t10 69.5l105 -13q-6 -49 -9 -78.5t-3 -35.5q0 -25 25.5 -36t81.5 -11l16 -10v-124zM187 373l-87 87l87 87l87 -87z" />
    <glyph glyph-name="uniFEE9" unicode="&#x647;" horiz-adv-x="467" arabic-form="isolated" 
d="M427 177q0 -88 -51 -137t-143 -49q-94 0 -143.5 48.5t-49.5 139.5q0 55 15 104.5t41.5 86t61.5 58t75 21.5t75.5 -21.5t62 -58t41.5 -86t15 -106.5zM323 180q0 55 -25.5 90t-64.5 35q-18 0 -34.5 -8t-28.5 -21.5t-19 -31.5t-7 -39q0 -35 23.5 -54.5t65.5 -19.5
q36 0 63 14.5t27 34.5z" />
    <glyph glyph-name="uniFEEA" unicode="&#x647;" horiz-adv-x="484" arabic-form="final" 
d="M484 0q-76 0 -122 29t-59 83q-22 -14 -48 -22t-54 -8q-38 0 -69.5 12t-54 33.5t-35 51.5t-12.5 66q0 85 67 144.5t195 89.5l-1 67l117 21l-6 -352q-1 -37 18 -54t64 -17l16 -10v-124zM227 218q40 0 70 12l-2 122q-33 -2 -62.5 -9t-51.5 -18t-34.5 -25.5t-12.5 -29.5
q0 -25 24.5 -38.5t68.5 -13.5z" />
    <glyph glyph-name="uniFEEB" unicode="&#x647;" horiz-adv-x="593" arabic-form="initial" 
d="M359 239q0 -52 -23 -95h6q49 0 81 10.5t32 27.5q0 42 -19 84t-52.5 78t-79 63.5t-99.5 41.5l50 118q69 -26 125 -66t95.5 -89.5t60.5 -106.5t21 -117q0 -88 -53 -138t-146 -50q-37 0 -75.5 9.5t-83.5 30.5q-50 -19 -101.5 -29.5t-97.5 -10.5l-16 10v124l16 10h37t34 1
q-22 41 -22 94q0 35 12.5 66t33.5 54t49 36.5t60 13.5t60.5 -13.5t49.5 -36.5t33 -54t12 -66zM137 236q0 -24 17 -42.5t49 -30.5q68 22 68 73q0 29 -18.5 48.5t-48.5 19.5t-48.5 -20t-18.5 -48z" />
    <glyph glyph-name="uniFEEC" unicode="&#x647;" horiz-adv-x="458" arabic-form="medial" 
d="M458 0h-40q12 -26 12 -58q0 -34 -13 -62t-36.5 -48.5t-55.5 -32t-71 -11.5q-84 0 -138 57.5t-68 155.5q-12 -1 -24 -1h-24l-16 10v124l16 10h51q10 60 31.5 115t50 97t62 67.5t67.5 25.5q27 0 53 -18t46.5 -47t32.5 -66.5t12 -77.5q0 -53 -23 -96h75l16 -10v-124z
M251 311q-17 0 -33 -13t-30.5 -35.5t-26 -51.5t-17.5 -62q88 8 128 29t40 57q0 30 -18.5 53t-42.5 23zM336 -24q0 51 -69 69q-26 -11 -55.5 -20t-64.5 -14q12 -43 40 -66t70 -23q35 0 57 15t22 39z" />
    <glyph glyph-name="uniFEED" unicode="&#x648;" horiz-adv-x="435" arabic-form="isolated" 
d="M41 -72q112 8 174 38.5t80 89.5q-41 -36 -101 -36q-33 0 -61 13t-47.5 37t-30.5 57.5t-11 73.5q0 47 13.5 87t37 69t56 45.5t71.5 16.5q40 0 72.5 -20.5t55.5 -58.5t35.5 -91.5t12.5 -118.5q0 -71 -21.5 -129.5t-61.5 -101.5t-96.5 -68.5t-126.5 -30.5zM219 141
q23 0 44.5 5.5t36.5 14.5q-6 59 -28 90.5t-57 31.5q-33 0 -54 -21t-21 -56q0 -31 21 -48t58 -17z" />
    <glyph glyph-name="uniFEEE" unicode="&#x648;" horiz-adv-x="442" arabic-form="final" 
d="M442 0h-66q-32 -87 -105.5 -139.5t-178.5 -60.5l-51 128q182 12 236 91h-29q-97 0 -150.5 48.5t-53.5 133.5q0 46 13 86t36.5 69.5t56.5 46t72 16.5q40 0 72 -21t54.5 -57.5t35 -87t14.5 -109.5h44l16 -10v-124zM140 206q0 -36 33.5 -49t90.5 -13h38q-5 67 -27 103
t-60 36q-34 0 -54.5 -21.5t-20.5 -55.5z" />
    <glyph glyph-name="uniFEEF" unicode="&#x649;" horiz-adv-x="682" arabic-form="isolated" 
d="M417 87q-57 17 -87.5 57.5t-30.5 98.5q0 41 15 78.5t41 66t59.5 45t71.5 16.5q53 0 93.5 -32.5t60.5 -89.5l-69 -52q-34 46 -89 46q-32 0 -54 -16.5t-22 -40.5q0 -10 3.5 -17t12.5 -13.5t25 -13t41 -14.5l58 -18q100 -31 100 -120q0 -50 -29.5 -98t-78.5 -86t-111 -61
t-126 -23q-59 0 -107.5 17.5t-82.5 49t-52.5 76.5t-18.5 100q0 60 22.5 120.5t63.5 109.5l75 -46q-43 -74 -43 -142q0 -64 43.5 -102t115.5 -38q37 0 75 8.5t69 21.5t51 29t20 31q0 10 -10 16.5t-47 17.5z" />
    <glyph glyph-name="uniFEF0" unicode="&#x649;" horiz-adv-x="657" arabic-form="final" 
d="M657 0q-36 0 -63 10q1 -6 1.5 -12t0.5 -12q0 -32 -27 -65t-69.5 -60t-95 -44t-103.5 -17q-59 0 -107.5 17.5t-82.5 49t-52.5 76.5t-18.5 100q0 60 22.5 120.5t63.5 109.5l75 -46q-43 -74 -43 -142q0 -64 43.5 -102t115.5 -38q34 0 66.5 6.5t58 17t41.5 23.5t16 27
q0 7 -4.5 16.5t-15.5 25t-30 38.5t-48 57l93 80q21 -27 39.5 -44.5t37.5 -28t39.5 -15t46.5 -4.5l16 -10v-124z" />
    <glyph glyph-name="uniFEF1" unicode="&#x64a;" horiz-adv-x="682" arabic-form="isolated" 
d="M417 87q-57 17 -87.5 57.5t-30.5 98.5q0 41 15 78.5t41 66t59.5 45t71.5 16.5q53 0 93.5 -32.5t60.5 -89.5l-69 -52q-34 46 -89 46q-32 0 -54 -16.5t-22 -40.5q0 -10 3.5 -17t12.5 -13.5t25 -13t41 -14.5l58 -18q100 -31 100 -120q0 -50 -29.5 -98t-78.5 -86t-111 -61
t-126 -23q-59 0 -107.5 17.5t-82.5 49t-52.5 76.5t-18.5 100q0 60 22.5 120.5t63.5 109.5l75 -46q-43 -74 -43 -142q0 -64 43.5 -102t115.5 -38q37 0 75 8.5t69 21.5t51 29t20 31q0 10 -10 16.5t-47 17.5zM368 -434l-67 67l-67 -67l-87 87l87 87l67 -67l67 67l87 -87z" />
    <glyph glyph-name="uniFEF2" unicode="&#x64a;" horiz-adv-x="657" arabic-form="final" 
d="M657 0q-36 0 -63 10q1 -6 1.5 -12t0.5 -12q0 -32 -27 -65t-69.5 -60t-95 -44t-103.5 -17q-59 0 -107.5 17.5t-82.5 49t-52.5 76.5t-18.5 100q0 60 22.5 120.5t63.5 109.5l75 -46q-43 -74 -43 -142q0 -64 43.5 -102t115.5 -38q34 0 66.5 6.5t58 17t41.5 23.5t16 27
q0 7 -4.5 16.5t-15.5 25t-30 38.5t-48 57l93 80q21 -27 39.5 -44.5t37.5 -28t39.5 -15t46.5 -4.5l16 -10v-124zM368 -434l-67 67l-67 -67l-87 87l87 87l67 -67l67 67l87 -87z" />
    <glyph glyph-name="uniFEF3" unicode="&#x64a;" horiz-adv-x="289" arabic-form="initial" 
d="M-16 10v124l16 10q61 0 100.5 13.5t39.5 33.5q0 16 -5.5 39t-14.5 48.5t-21.5 52.5t-27.5 52l112 63q14 -24 26 -53.5t20.5 -61t13 -63.5t4.5 -60q0 -108 -59.5 -158t-187.5 -50zM187 -235l-67 67l-67 -67l-87 87l87 87l67 -67l67 67l87 -87z" />
    <glyph glyph-name="uniFEF4" unicode="&#x64a;" horiz-adv-x="332" arabic-form="medial" 
d="M332 0q-57 0 -95.5 17t-63.5 52q-25 -32 -70 -50.5t-103 -18.5l-16 10v124l16 10q101 0 113 53q4 20 9 51.5t10 69.5l105 -13q-6 -49 -9 -78.5t-3 -35.5q0 -25 25.5 -36t81.5 -11l16 -10v-124zM242 -235l-67 67l-67 -67l-87 87l87 87l67 -67l67 67l87 -87z" />
    <glyph glyph-name=".notdef" horiz-adv-x="364" 
d="M33 0v666h265v-666h-265zM66 33h199v600h-199v-600z" />
    <glyph glyph-name=".null" horiz-adv-x="0" 
 />
    <glyph glyph-name="nonmarkingreturn" unicode="&#x9;" horiz-adv-x="181" 
 />
    <glyph glyph-name="nonmarkingreturn" unicode="&#xd;" horiz-adv-x="181" 
 />
    <glyph glyph-name="uni0008" horiz-adv-x="0" 
 />
    <glyph glyph-name="uni0008" horiz-adv-x="0" 
 />
    <glyph glyph-name="uni0008" horiz-adv-x="0" 
 />
    <glyph glyph-name="space" unicode=" " horiz-adv-x="181" 
 />
    <glyph glyph-name="exclam" unicode="!" horiz-adv-x="288" 
d="M65 667h158l-6 -450h-146zM65 154h157v-154h-157v154z" />
    <glyph glyph-name="quotedbl" unicode="&#x22;" horiz-adv-x="421" 
d="M47 667h133v-249h-133v249zM241 667h133v-249h-133v249z" />
    <glyph glyph-name="numbersign" unicode="#" horiz-adv-x="728" 
d="M146 145h-93v101h120l35 130h-93v101h120l41 152h113l-41 -152h124l41 152h113l-41 -152h90v-101h-117l-35 -130h90v-101h-117l-39 -145h-113l39 145h-124l-39 -145h-113zM410 246l35 130h-124l-35 -130h124z" />
    <glyph glyph-name="dollar" unicode="$" 
d="M100 190q29 -31 74.5 -55.5t102.5 -24.5q16 0 32 3t29 10.5t21 20t8 30.5q0 15 -7 27t-23.5 22.5t-43 19.5t-64.5 20q-94 26 -141 73t-47 119q0 77 49.5 125.5t136.5 59.5v89h96v-89q64 -8 104.5 -33t63.5 -47l-86 -96q-9 8 -22 17.5t-29.5 18t-36 14t-41.5 5.5
q-15 0 -32 -3.5t-31 -10.5t-23 -19t-9 -28q0 -32 30 -47.5t92 -31.5q37 -9 74 -24t66.5 -38.5t47.5 -57.5t18 -83q0 -39 -14.5 -70.5t-39.5 -55t-59 -39t-73 -21.5v-97h-96v93q-72 7 -127 36.5t-90 67.5z" />
    <glyph glyph-name="percent" unicode="%" horiz-adv-x="925" 
d="M597 630h125l-400 -630h-127zM714 -10q-76 0 -118.5 48.5t-42.5 133.5t42.5 132.5t118.5 47.5t118.5 -47.5t42.5 -132.5t-42.5 -133.5t-118.5 -48.5zM714 77q26 0 39.5 26.5t13.5 68.5q0 41 -13.5 67.5t-39.5 26.5t-39.5 -26.5t-13.5 -67.5q0 -42 13.5 -68.5t39.5 -26.5z
M209 284q-76 0 -118.5 48.5t-42.5 133.5t42.5 132.5t118.5 47.5t118.5 -47.5t42.5 -132.5t-42.5 -133.5t-118.5 -48.5zM209 371q26 0 39.5 26.5t13.5 68.5q0 41 -13.5 67.5t-39.5 26.5t-39.5 -26.5t-13.5 -67.5q0 -42 13.5 -68.5t39.5 -26.5z" />
    <glyph glyph-name="ampersand" unicode="&#x26;" horiz-adv-x="666" 
d="M435 55q-45 -37 -88.5 -54t-98.5 -17q-50 0 -90.5 14.5t-69.5 40t-44.5 61t-15.5 78.5q0 59 31 112.5t100 95.5q-23 31 -33.5 63.5t-10.5 61.5q0 36 14.5 67.5t41 55t64 37.5t84.5 14q73 0 118.5 -34t68.5 -82l-102 -63q-16 34 -36 48t-43 14q-30 0 -48.5 -17.5
t-18.5 -43.5q0 -20 10.5 -38.5t24.5 -35.5l156 -185l90 103l97 -85l-103 -117l126 -149h-177zM233 295q-36 -26 -50 -51t-14 -54q0 -36 24.5 -58t66.5 -22q29 0 50.5 11t44.5 31z" />
    <glyph glyph-name="quotesingle" unicode="'" horiz-adv-x="227" 
d="M47 667h133v-249h-133v249z" />
    <glyph glyph-name="parenleft" unicode="(" horiz-adv-x="322" 
d="M151 -93q-10 18 -26 54.5t-31.5 88t-26.5 116.5t-11 140t11 140t26.5 116.5t31.5 88.5t26 55h144q-10 -18 -25.5 -57t-29.5 -92.5t-24.5 -117.5t-10.5 -133q0 -68 10.5 -132.5t24.5 -117.5t29.5 -92t25.5 -57h-144z" />
    <glyph glyph-name="parenright" unicode=")" horiz-adv-x="322" 
d="M27 -93q10 18 25.5 57t29.5 92t24.5 117.5t10.5 132.5q0 69 -10.5 133t-24.5 117.5t-29.5 92.5t-25.5 57h144q10 -18 26 -55t31.5 -88.5t26.5 -116.5t11 -140t-11 -140t-26.5 -116.5t-31.5 -88t-26 -54.5h-144z" />
    <glyph glyph-name="asterisk" unicode="*" horiz-adv-x="493" 
d="M49 468l108 50l-108 50l56 97l95 -66l-10 115h112l-8 -116l94 65l56 -97l-107 -47l107 -50l-56 -97l-95 66l9 -116h-112l11 114l-96 -65z" />
    <glyph glyph-name="plus" unicode="+" 
d="M73 376h140v142h118v-142h141v-115h-141v-140h-118v140h-140v115z" />
    <glyph glyph-name="comma" unicode="," horiz-adv-x="283" 
d="M115 0h-57v160h165v-159l-84 -144h-87z" />
    <glyph glyph-name="hyphen" unicode="-" horiz-adv-x="445" 
d="M64 348h317v-137h-317v137z" />
    <glyph glyph-name="period" unicode="." horiz-adv-x="283" 
d="M60 159h163v-159h-163v159z" />
    <glyph glyph-name="slash" unicode="/" horiz-adv-x="448" 
d="M286 685h142l-263 -701h-145z" />
    <glyph glyph-name="zero" unicode="0" 
d="M272 -16q-62 0 -108 24.5t-77.5 68.5t-47 106t-15.5 136q0 73 15.5 134t47 104t78 67t108.5 24q63 0 110 -24t77.5 -67t45.5 -104t15 -134q0 -74 -15 -136t-46 -106t-77.5 -68.5t-110.5 -24.5zM273 115q27 0 46.5 16t32 43.5t18 64.5t5.5 80q0 42 -6 78t-18.5 62.5
t-32 41.5t-46.5 15t-46.5 -15t-32 -41.5t-18 -62.5t-5.5 -78q0 -43 5.5 -80t18 -64.5t32 -43.5t47.5 -16z" />
    <glyph glyph-name="one" unicode="1" 
d="M112 123h109v350l-105 -56l-61 110l187 103h119v-507h103v-123h-352v123z" />
    <glyph glyph-name="two" unicode="2" 
d="M49 85q0 50 20.5 90t51.5 73t67.5 60.5t67.5 52t51.5 48t20.5 48.5q0 24 -19 45t-63 21q-22 0 -39.5 -7t-31 -17.5t-23 -23t-16.5 -22.5l-105 73q13 22 33.5 44t49 39.5t65.5 28t83 10.5q54 0 94 -15.5t66.5 -40.5t39.5 -57t13 -66q0 -45 -19 -81t-48 -66t-62.5 -55.5
t-62.5 -48.5t-48.5 -45t-19.5 -45h263v-128h-429v85z" />
    <glyph glyph-name="three" unicode="3" 
d="M88 163q31 -27 63.5 -41.5t71.5 -14.5q46 0 76.5 25t30.5 70q0 35 -23.5 62t-74.5 27q-19 0 -35.5 -3.5t-25.5 -7.5l-37 59l161 165h-235v125h396v-103l-131 -148q75 -14 113.5 -63t38.5 -123q0 -50 -20.5 -89t-54.5 -65.5t-78.5 -40.5t-92.5 -14q-70 0 -125.5 21
t-95.5 57z" />
    <glyph glyph-name="four" unicode="4" 
d="M29 226l272 404h143v-402h64v-113h-64v-115h-134v115h-281v111zM310 228v233l-152 -233h152z" />
    <glyph glyph-name="five" unicode="5" 
d="M93 163q27 -25 58 -40t73 -15q28 0 48.5 8.5t33.5 22.5t19 32t6 37q0 15 -6 32t-19 31t-34 23t-51 9q-26 0 -48 -5.5t-42 -13.5l-66 49l55 296h340v-126h-241l-19 -101q7 3 25.5 5.5t37.5 2.5q46 0 85 -14t67.5 -40.5t44 -63.5t15.5 -83q0 -45 -14.5 -86t-45 -72
t-77 -49.5t-110.5 -18.5q-72 0 -123 22.5t-89 57.5z" />
    <glyph glyph-name="six" unicode="6" 
d="M433 497q-12 6 -39.5 16.5t-61.5 10.5q-27 0 -51.5 -10.5t-43.5 -30t-32 -46.5t-16 -60q22 14 52 25.5t68 11.5q46 0 83.5 -15t63.5 -42t40 -65t14 -84t-15 -87t-44 -71.5t-70.5 -48.5t-95.5 -18q-51 0 -95.5 17.5t-77 56t-51 98t-18.5 143.5q0 74 18.5 138t55.5 111
t90.5 74t124.5 27q54 0 92.5 -14t62.5 -26zM186 264q0 -45 8.5 -75.5t22 -48.5t31.5 -25.5t37 -7.5q42 0 66.5 28.5t24.5 73.5q0 42 -25 66t-63 24q-36 0 -60.5 -10.5t-41.5 -24.5z" />
    <glyph glyph-name="seven" unicode="7" 
d="M108 0q19 62 48 135t60 143t61 129.5t52 94.5h-278v128h425v-121q-30 -51 -61.5 -115t-60 -132t-53.5 -136t-42 -126h-151z" />
    <glyph glyph-name="eight" unicode="8" 
d="M272 388q35 11 58 34t23 52q0 32 -22.5 52t-58.5 20q-35 0 -58.5 -20.5t-23.5 -53.5q0 -27 23.5 -50t58.5 -34zM271 285q-20 -5 -38 -13.5t-32.5 -21.5t-23 -29.5t-8.5 -36.5q0 -23 9 -39t23.5 -26.5t33 -15.5t37.5 -5q18 0 36.5 5t33.5 15.5t24 26.5t9 39q0 20 -9 36.5
t-24 29.5t-33.5 21.5t-37.5 13.5zM135 347q-30 18 -53 52.5t-23 79.5q0 36 15 67t43 53.5t67.5 35.5t87.5 13q50 0 90 -12.5t67.5 -35t42 -53t14.5 -66.5q0 -46 -24 -80t-54 -52q51 -23 81 -65t30 -103q0 -33 -14.5 -68t-44.5 -63.5t-77 -47t-111 -18.5q-65 0 -111.5 17.5
t-76.5 45t-44.5 62.5t-14.5 70q0 61 30.5 103t79.5 65z" />
    <glyph glyph-name="nine" unicode="9" 
d="M112 136q6 -3 17.5 -8t26.5 -9.5t32 -8t34 -3.5q65 0 97.5 40.5t37.5 102.5q-20 -13 -50.5 -24.5t-73.5 -11.5q-47 0 -83.5 17t-61.5 45.5t-38.5 66t-13.5 79.5q0 46 15 87t43.5 72t70 49t95.5 18q51 0 95.5 -18t76.5 -57t50.5 -101t18.5 -149q0 -68 -16 -129.5
t-49.5 -108t-86.5 -74t-127 -27.5q-54 0 -98 13.5t-67 26.5zM360 367q0 43 -7.5 73t-21 48.5t-31 26.5t-38.5 8q-42 0 -67 -27.5t-25 -72.5q0 -38 23.5 -64.5t62.5 -26.5q40 0 62.5 10.5t41.5 24.5z" />
    <glyph glyph-name="colon" unicode=":" horiz-adv-x="283" 
d="M60 159h163v-159h-163v159zM60 469h163v-159h-163v159z" />
    <glyph glyph-name="semicolon" unicode=";" horiz-adv-x="283" 
d="M115 0h-57v160h165v-159l-84 -144h-87zM60 469h163v-159h-163v159z" />
    <glyph glyph-name="less" unicode="&#x3c;" 
d="M67 360l355 190l52 -102l-248 -129l252 -129l-56 -105l-355 190v85z" />
    <glyph glyph-name="equal" unicode="=" 
d="M73 281h399v-115h-399v115zM73 463h399v-115h-399v115z" />
    <glyph glyph-name="greater" unicode="&#x3e;" 
d="M75 190l252 129l-248 129l52 102l355 -190v-85l-355 -190z" />
    <glyph glyph-name="question" unicode="?" horiz-adv-x="523" 
d="M174 230q0 54 18.5 95t60.5 72q15 11 29 21.5t25.5 21.5t18.5 23.5t7 27.5q0 31 -25 46.5t-57 15.5q-23 0 -43 -6t-36.5 -15.5t-30 -20t-22.5 -19.5l-88 93q13 15 34 32.5t49.5 32.5t65 25t81.5 10q46 0 86 -12.5t69 -36.5t45.5 -58.5t16.5 -77.5q0 -29 -6 -51t-17 -40
t-26 -33t-33 -28q-18 -14 -34 -26t-27 -25t-17.5 -29t-6.5 -38v-13h-137v13zM164 154h157v-154h-157v154z" />
    <glyph glyph-name="at" unicode="@" horiz-adv-x="960" 
d="M556 208q-2 -1 -15.5 1t-31.5 2q-57 0 -82.5 -17t-25.5 -48q0 -28 18 -43t51 -15q34 0 60 21t26 60v39zM152 -18q-16 13 -35.5 39t-37 63.5t-29 85t-11.5 101.5q0 105 37.5 183t99.5 129.5t143 77t168 25.5q103 0 184 -27.5t136 -79t84 -125.5t29 -166q0 -87 -21 -145
t-53 -93t-70.5 -50t-74.5 -15q-45 0 -73 13.5t-48 44.5q-31 -30 -66.5 -44.5t-91.5 -14.5q-25 0 -52.5 7.5t-51 25t-39 45.5t-15.5 69t16 72.5t44.5 52.5t68 31.5t85.5 10.5q23 0 46.5 -1t31.5 -3v18q0 32 -25.5 47t-58.5 15q-50 0 -81 -12t-53 -27l-60 88q15 12 34.5 23
t45 19.5t58 14t75.5 5.5q93 0 147 -47t54 -132v-166q0 -49 35 -49q14 0 29 12t27 37t19.5 62t7.5 88q0 79 -26 135.5t-70.5 92.5t-103.5 52.5t-125 16.5q-57 0 -116 -16.5t-107.5 -53.5t-79 -96.5t-30.5 -145.5q0 -46 9.5 -84t22.5 -67.5t26.5 -48.5t22.5 -28z" />
    <glyph glyph-name="A" unicode="A" horiz-adv-x="674" 
d="M256 667h167l244 -667h-165l-51 153h-235l-51 -153h-158zM415 270l-81 252l-83 -252h164z" />
    <glyph glyph-name="B" unicode="B" horiz-adv-x="614" 
d="M65 667h250q62 0 105 -14.5t70 -38.5t39 -55.5t12 -65.5q0 -32 -11.5 -56.5t-27 -42t-32.5 -27.5t-29 -13q19 -5 40 -15q41 -18 68 -56t27 -92q0 -52 -18.5 -88t-52 -59t-82 -33.5t-108.5 -10.5h-250v667zM310 116q16 0 36 2.5t37 11.5t28.5 26t11.5 47q0 27 -11 44
t-28 26.5t-37 13t-37 3.5h-98v-174h98zM301 400q17 0 33.5 4t29 12.5t20.5 23t8 35.5q0 22 -8 36.5t-21 23t-29.5 12t-32.5 3.5h-89v-150h89z" />
    <glyph glyph-name="C" unicode="C" horiz-adv-x="681" 
d="M667 123q-21 -29 -51 -54.5t-66.5 -44.5t-79 -30t-88.5 -11q-76 0 -139 26t-108.5 72.5t-70.5 110t-25 139.5q0 74 25 138.5t70.5 112t109 75t140.5 27.5q93 0 162.5 -34t115.5 -98l-103 -99q-30 42 -71 67.5t-98 25.5q-45 0 -81 -16.5t-61 -45.5t-38.5 -67.5
t-13.5 -81.5q0 -44 13.5 -82t38.5 -66t60 -44t79 -16q36 0 62.5 7.5t47 20t36.5 29t31 33.5z" />
    <glyph glyph-name="D" unicode="D" horiz-adv-x="712" 
d="M65 667h252q77 0 142.5 -20t113 -61t74 -105t26.5 -151q0 -83 -27 -144.5t-74.5 -103t-113 -62t-142.5 -20.5h-251v667zM308 134q100 0 154 52.5t54 144.5q0 46 -12.5 83.5t-38 64t-64.5 41t-93 14.5h-92v-400h92z" />
    <glyph glyph-name="E" unicode="E" horiz-adv-x="580" 
d="M65 667h456v-132h-305v-130h237v-128h-237v-144h327v-133h-478v667z" />
    <glyph glyph-name="F" unicode="F" horiz-adv-x="539" 
d="M65 667h448v-133h-297v-151h226v-129h-226v-254h-151v667z" />
    <glyph glyph-name="G" unicode="G" horiz-adv-x="723" 
d="M410 367h257v-289q-52 -45 -121.5 -69.5t-158.5 -24.5q-82 0 -146.5 25.5t-109.5 71.5t-68.5 110t-23.5 141q0 75 25 139t71 111.5t109 74.5t140 27q91 0 159.5 -33.5t113.5 -93.5l-102 -97q-32 38 -70.5 62t-94.5 24q-46 0 -82 -17t-61 -46t-38 -68t-13 -83
q0 -48 15 -87t42 -66.5t63.5 -42.5t79.5 -15q40 0 73 9.5t59 30.5v84h-118v122z" />
    <glyph glyph-name="H" unicode="H" horiz-adv-x="721" 
d="M65 667h151v-256h289v256h151v-667h-151v274h-289v-274h-151v667z" />
    <glyph glyph-name="I" unicode="I" horiz-adv-x="281" 
d="M65 667h151v-667h-151v667z" />
    <glyph glyph-name="J" unicode="J" horiz-adv-x="524" 
d="M108 174q27 -32 54.5 -45.5t59.5 -13.5q42 0 66.5 25t24.5 73v454h151v-464q0 -57 -19 -99t-51 -69t-73.5 -40t-87.5 -13q-145 0 -223 99z" />
    <glyph glyph-name="K" unicode="K" horiz-adv-x="654" 
d="M65 667h151v-266l223 266h175l-229 -260l260 -407h-183l-178 291l-68 -76v-215h-151v667z" />
    <glyph glyph-name="L" unicode="L" horiz-adv-x="559" 
d="M65 667h151v-533h319v-134h-470v667z" />
    <glyph glyph-name="M" unicode="M" horiz-adv-x="801" 
d="M85 667h143l174 -313l170 313h144l31 -667h-151l-19 436l-138 -260h-78l-146 257l-17 -433h-144z" />
    <glyph glyph-name="N" unicode="N" horiz-adv-x="712" 
d="M65 667h144l289 -433v433h149v-667h-137l-296 441v-441h-149v667z" />
    <glyph glyph-name="O" unicode="O" horiz-adv-x="772" 
d="M386 -17q-74 0 -137.5 27t-110 74t-73 111.5t-26.5 138.5q0 75 26.5 139t73 111t110 74t137.5 27t137.5 -27t110 -74t73 -111t26.5 -139q0 -74 -26.5 -138.5t-73 -111.5t-110 -74t-137.5 -27zM386 125q44 0 79 17t59.5 46t37.5 67t13 81t-13 81t-37.5 66.5t-59.5 45
t-79 16.5t-79.5 -16.5t-60 -45t-37.5 -66.5t-13 -81t13 -81t37.5 -67t60 -46t79.5 -17z" />
    <glyph glyph-name="P" unicode="P" horiz-adv-x="578" 
d="M65 667h243q62 0 106 -18t72.5 -47.5t42 -68.5t13.5 -81q0 -54 -18.5 -94.5t-50 -67.5t-72.5 -41t-86 -14h-103v-235h-147v667zM300 357q42 0 66.5 25.5t24.5 66.5q0 42 -25 68.5t-67 26.5h-87v-187h88z" />
    <glyph glyph-name="Q" unicode="Q" horiz-adv-x="772" 
d="M542 18q-35 -17 -74.5 -26t-81.5 -9q-74 0 -137.5 27t-110 74t-73 111.5t-26.5 138.5q0 75 26.5 139t73 111t110 74t137.5 27t137.5 -27t110 -74t73 -111t26.5 -139q0 -76 -27.5 -141t-76.5 -113l70 -87l-82 -68zM375 226l81 68l76 -96q21 28 32 63.5t11 74.5
q0 43 -13 81t-37.5 66.5t-59.5 45t-79 16.5t-79.5 -16.5t-60 -45t-37.5 -66.5t-13 -81t13 -81t37.5 -67t60 -46t79.5 -17q17 0 32 2.5t29 7.5z" />
    <glyph glyph-name="R" unicode="R" horiz-adv-x="607" 
d="M65 667h248q58 0 102 -16.5t73.5 -45t44 -66.5t14.5 -81q0 -65 -28.5 -113.5t-80.5 -77.5l148 -267h-166l-124 245h-84v-245h-147v667zM305 366q42 0 66 25t24 63q0 41 -24 65t-66 24h-93v-177h93z" />
    <glyph glyph-name="S" unicode="S" horiz-adv-x="591" 
d="M115 199q13 -14 30.5 -28.5t39 -26.5t47 -19.5t54.5 -7.5q17 0 34 5t31 14.5t22.5 23t8.5 30.5q0 37 -36 57.5t-114 40.5q-38 9 -70.5 26t-56 41t-36.5 55t-13 69q0 42 15 79t45.5 65.5t76 45t107.5 16.5q51 0 90 -10.5t66.5 -25t45 -30t26.5 -24.5l-87 -96
q-11 9 -25.5 19.5t-32.5 19.5t-39.5 15t-45.5 6q-16 0 -31.5 -5t-28 -13.5t-20 -20t-7.5 -24.5q0 -34 36 -55t99 -35q37 -9 72.5 -24.5t63.5 -40.5t45 -61.5t17 -88.5q0 -45 -20 -83t-54.5 -66t-81 -43.5t-100.5 -15.5q-50 0 -91 9.5t-74 25t-59.5 35.5t-45.5 41z" />
    <glyph glyph-name="T" unicode="T" horiz-adv-x="625" 
d="M237 534h-216v133h583v-133h-215v-534h-152v534z" />
    <glyph glyph-name="U" unicode="U" horiz-adv-x="680" 
d="M60 667h152v-395q0 -33 6.5 -59.5t21.5 -45.5t39.5 -29.5t60.5 -10.5q35 0 59.5 10.5t39.5 29.5t21.5 45.5t6.5 59.5v395h153v-414q0 -60 -19.5 -110t-56 -85.5t-88.5 -55.5t-116 -20t-116 19.5t-88.5 55.5t-56 86t-19.5 110v414z" />
    <glyph glyph-name="V" unicode="V" horiz-adv-x="663" 
d="M7 667h167l163 -487l159 487h160l-245 -667h-159z" />
    <glyph glyph-name="W" unicode="W" horiz-adv-x="911" 
d="M13 667h162l98 -483l117 465h137l118 -465l97 483h156l-170 -667h-159l-114 436l-116 -436h-159z" />
    <glyph glyph-name="X" unicode="X" horiz-adv-x="654" 
d="M234 343l-220 324h185l125 -196l120 196h167l-206 -314l240 -353h-186l-144 224l-140 -224h-166z" />
    <glyph glyph-name="Y" unicode="Y" horiz-adv-x="643" 
d="M245 279l-234 388h171l145 -252l141 252h164l-234 -387v-280h-153v279z" />
    <glyph glyph-name="Z" unicode="Z" horiz-adv-x="635" 
d="M39 123l365 411h-348v133h533v-124l-358 -411h365v-132h-557v123z" />
    <glyph glyph-name="bracketleft" unicode="[" horiz-adv-x="343" 
d="M71 706h251v-117h-117v-564h117v-118h-251v799z" />
    <glyph glyph-name="backslash" unicode="\" horiz-adv-x="448" 
d="M20 685h142l266 -701h-145z" />
    <glyph glyph-name="bracketright" unicode="]" horiz-adv-x="343" 
d="M21 25h117v564h-117v117h251v-799h-251v118z" />
    <glyph glyph-name="asciicircum" unicode="^" 
d="M211 667h124l176 -367h-144l-94 211l-94 -211h-144z" />
    <glyph glyph-name="underscore" unicode="_" horiz-adv-x="500" 
d="M0 -65h500v-55h-500v55z" />
    <glyph glyph-name="grave" unicode="`" horiz-adv-x="471" 
d="M130 682h143l48 -142h-106z" />
    <glyph glyph-name="a" unicode="a" horiz-adv-x="515" 
d="M325 44q-24 -28 -60.5 -43t-81.5 -15q-25 0 -52.5 7t-51 23.5t-39 44.5t-15.5 70q0 41 16.5 73t45.5 53.5t68.5 32.5t85.5 11q25 0 50.5 -1t33.5 -3v10q0 18 -7.5 30.5t-20 21t-28.5 12t-34 3.5q-48 0 -79.5 -12t-53.5 -27l-59 88q15 11 34 22t45 20t58.5 14.5t74.5 5.5
q107 0 158 -57.5t51 -154.5v-273h-135zM325 207q-5 1 -19 2.5t-32 1.5q-60 0 -85 -17t-25 -48q0 -58 70 -58q17 0 33.5 5.5t29 15.5t20.5 25t8 35v38z" />
    <glyph glyph-name="b" unicode="b" horiz-adv-x="561" 
d="M197 114q12 -5 26.5 -7.5t40.5 -2.5q57 0 88.5 37t31.5 97q0 22 -5.5 43t-16.5 37.5t-28.5 27t-42.5 10.5q-48 0 -71 -26.5t-23 -70.5v-145zM53 667h144v-233q20 21 54.5 33t68.5 12q50 0 89 -19t65.5 -51.5t40.5 -75t14 -90.5q0 -57 -18.5 -105t-53.5 -82t-86 -53
t-116 -19q-60 0 -113.5 11t-88.5 23v649z" />
    <glyph glyph-name="c" unicode="c" horiz-adv-x="487" 
d="M474 62q-29 -32 -76.5 -55t-112.5 -23q-57 0 -103.5 18.5t-79.5 52t-51.5 79.5t-18.5 101q0 52 19 97.5t52.5 79.5t80 53.5t101.5 19.5q64 0 111 -21t79 -56l-87 -94q-16 18 -39 32t-61 14q-26 0 -46.5 -10.5t-35 -27.5t-22 -39.5t-7.5 -47.5q0 -23 7.5 -45.5t22 -40
t35 -28.5t46.5 -11q37 0 62 14.5t40 31.5z" />
    <glyph glyph-name="d" unicode="d" horiz-adv-x="565" 
d="M372 47q-22 -26 -56.5 -43.5t-78.5 -17.5q-43 0 -80.5 17t-65 48.5t-43.5 76t-16 100.5q0 63 22.5 110.5t58 78.5t79 46.5t85.5 15.5q34 0 53 -4.5t39 -11.5v204h143v-667h-134zM369 340q-15 9 -32.5 13t-43.5 4q-55 0 -85.5 -37t-30.5 -95q0 -51 25 -83.5t75 -32.5
q24 0 41.5 8.5t29 22.5t16.5 33t5 39v128z" />
    <glyph glyph-name="e" unicode="e" horiz-adv-x="535" 
d="M496 51q-8 -5 -24 -16.5t-41.5 -22.5t-60.5 -19.5t-80 -8.5q-60 0 -108 18.5t-81.5 51.5t-51 79.5t-17.5 102.5q0 49 16.5 94.5t47.5 79.5t76 54.5t102 20.5t100 -20t72.5 -55.5t44.5 -85t15 -108.5v-24h-334q1 -38 33.5 -66.5t89.5 -28.5q56 0 91 16.5t51 28.5zM370 284
q0 15 -6 30.5t-18 28.5t-30 21.5t-43 8.5t-44 -8.5t-31.5 -21.5t-19 -28.5t-6.5 -30.5h198z" />
    <glyph glyph-name="f" unicode="f" horiz-adv-x="356" 
d="M90 356h-76v113h76v24q0 50 16.5 86t43.5 59.5t61.5 35t70.5 11.5q38 0 77 -11t71 -38q-15 -23 -30.5 -45.5t-30.5 -45.5q-15 11 -33 17t-37 6q-30 0 -48 -19t-18 -54v-26h111v-113h-111v-356h-143v356z" />
    <glyph glyph-name="g" unicode="g" horiz-adv-x="561" 
d="M130 -60q28 -17 59.5 -26.5t69.5 -9.5q49 0 77 26t28 78v33q-45 -39 -120 -39q-50 0 -89.5 16.5t-66.5 46.5t-41.5 71t-14.5 90q0 57 19.5 103.5t55 80t85 51.5t110.5 18q58 0 110.5 -10t94.5 -25v-429q0 -116 -64 -171.5t-175 -55.5q-63 0 -110 12t-86 38zM365 350
q-14 5 -28 7.5t-37 2.5q-31 0 -54 -10.5t-38.5 -28t-23 -41t-7.5 -49.5q0 -51 24.5 -81t71.5 -30q44 0 68 21.5t24 67.5v141z" />
    <glyph glyph-name="h" unicode="h" horiz-adv-x="564" 
d="M53 667h143v-243q23 27 61 41.5t77 14.5q81 0 129.5 -48t48.5 -142v-290h-143v268q0 41 -21 64t-56 23q-23 0 -41 -8.5t-30 -22.5t-18 -32.5t-6 -39.5v-252h-144v667z" />
    <glyph glyph-name="i" unicode="i" horiz-adv-x="258" 
d="M52 667h154v-129h-154v129zM57 469h144v-469h-144v469z" />
    <glyph glyph-name="j" unicode="j" horiz-adv-x="265" 
d="M58 667h154v-129h-154v129zM-54 -60q11 -7 25.5 -12.5t31.5 -5.5q34 0 47.5 21t13.5 59v467h143v-445q0 -44 -7 -84.5t-27 -71.5t-55 -49.5t-91 -18.5q-43 0 -77 12.5t-57 30.5z" />
    <glyph glyph-name="k" unicode="k" horiz-adv-x="533" 
d="M53 667h144v-346l143 148h163l-168 -173l191 -296h-167l-120 198l-42 -43v-155h-144v667z" />
    <glyph glyph-name="l" unicode="l" horiz-adv-x="250" 
d="M53 667h144v-667h-144v667z" />
    <glyph glyph-name="m" unicode="m" horiz-adv-x="863" 
d="M53 469h138l5 -52q22 27 56 45t80 18q28 0 50 -6t38.5 -15.5t29 -21t20.5 -22.5q29 31 70.5 48t86.5 17q90 0 137.5 -51t47.5 -139v-290h-144v267q0 42 -18.5 65t-55.5 23q-42 0 -67 -29t-25 -74v-252h-139v267q0 42 -18.5 65t-55.5 23q-41 0 -66.5 -29t-25.5 -74v-252
h-144v469z" />
    <glyph glyph-name="n" unicode="n" horiz-adv-x="562" 
d="M54 469h138l4 -51q23 28 60.5 45t78.5 17q81 0 128.5 -48t47.5 -142v-290h-144v270q0 39 -19.5 62t-54.5 23q-24 0 -42 -8.5t-30 -22.5t-18 -32.5t-6 -39.5v-252h-143v469z" />
    <glyph glyph-name="o" unicode="o" horiz-adv-x="567" 
d="M284 109q27 0 48 10.5t35.5 28.5t21.5 40.5t7 46.5t-7 46.5t-21.5 40t-35.5 28t-48 10.5t-48.5 -10.5t-35.5 -28t-21.5 -40t-7.5 -46.5t7.5 -46.5t21.5 -40.5t35.5 -28.5t48.5 -10.5zM32 235q0 52 18.5 97.5t51.5 79.5t79.5 53.5t102.5 19.5t102 -19.5t79 -53.5
t51.5 -79.5t18.5 -97.5t-18.5 -97.5t-51.5 -79.5t-79 -54t-102 -20t-102.5 20t-79.5 54t-51.5 79.5t-18.5 97.5z" />
    <glyph glyph-name="p" unicode="p" horiz-adv-x="569" 
d="M53 469h138q2 -13 3 -25.5t2 -25.5q23 29 59 44.5t75 15.5q51 0 90 -20t65 -53.5t39 -77t13 -89.5q0 -65 -22 -113t-57 -79t-79 -46t-87 -15q-34 0 -56 6t-40 12v-203h-143v669zM196 124q28 -19 83 -19q53 0 83.5 35.5t30.5 94.5q0 23 -5.5 45t-17 38.5t-30 26.5
t-45.5 10q-24 0 -42.5 -9t-31 -24t-19 -34t-6.5 -39v-125z" />
    <glyph glyph-name="q" unicode="q" horiz-adv-x="564" 
d="M367 27q-16 -17 -45.5 -28.5t-72.5 -11.5q-50 0 -90 17t-68 48.5t-43.5 76t-15.5 100.5q0 53 18.5 98.5t53.5 79.5t85.5 53t114.5 19q57 0 108 -9t99 -26v-644h-144v227zM367 348q-14 5 -27.5 7t-37.5 2q-62 0 -93.5 -35t-31.5 -94q0 -24 6 -45.5t18 -38t30.5 -26
t44.5 -9.5q45 0 68 23t23 73v143z" />
    <glyph glyph-name="r" unicode="r" horiz-adv-x="393" 
d="M53 469h138l5 -59q18 24 49.5 46t81.5 22q19 0 32.5 -2t26.5 -7l-23 -127q-22 7 -52 7q-51 0 -82.5 -30.5t-31.5 -86.5v-232h-144v469z" />
    <glyph glyph-name="s" unicode="s" horiz-adv-x="482" 
d="M101 145q23 -21 60.5 -35t72.5 -14q32 0 53 8t21 31q0 9 -4.5 16.5t-16.5 14t-33.5 13.5t-54.5 16q-27 7 -53.5 18.5t-47 28.5t-33 41t-12.5 56q0 33 15 59.5t41.5 46t63 30t78.5 10.5q60 0 105 -13.5t83 -39.5l-61 -95q-23 15 -52.5 27t-66.5 12q-33 0 -48 -9.5
t-15 -25.5q0 -23 31 -34t84 -25q72 -20 104.5 -55t32.5 -93q0 -39 -17.5 -67t-47 -46.5t-67 -27.5t-76.5 -9q-63 0 -119 17t-91 52z" />
    <glyph glyph-name="t" unicode="t" horiz-adv-x="418" 
d="M88 356h-74v113h74v154h144v-154h121v-113h-121v-185q0 -34 13.5 -52.5t42.5 -18.5q22 0 38 7.5t30 17.5l58 -88q-68 -54 -148 -54q-50 0 -84 14.5t-55 40t-30 61.5t-9 80v177z" />
    <glyph glyph-name="u" unicode="u" horiz-adv-x="561" 
d="M51 469h144v-270q0 -40 19.5 -63t57.5 -23q22 0 39 8.5t29 22.5t18 33t6 39v253h143v-469h-138l-4 50q-23 -27 -60.5 -44.5t-78.5 -17.5q-81 0 -128 48t-47 142v291z" />
    <glyph glyph-name="v" unicode="v" 
d="M5 469h160l111 -308l107 308h157l-201 -469h-136z" />
    <glyph glyph-name="w" unicode="w" horiz-adv-x="769" 
d="M7 469h148l82 -301l91 301h115l92 -301l82 301h145l-161 -469h-130l-88 262l-87 -262h-128z" />
    <glyph glyph-name="x" unicode="x" horiz-adv-x="527" 
d="M180 235l-171 234h172l84 -125l85 125h157l-165 -224l180 -245h-172l-93 135l-94 -135h-157z" />
    <glyph glyph-name="y" unicode="y" horiz-adv-x="550" 
d="M79 -74q12 -9 26.5 -16t31.5 -7q23 0 38.5 14.5t29.5 49.5l14 38l-214 464h164l117 -296l106 296h153l-192 -466q-16 -39 -31.5 -77.5t-38 -69t-55 -49.5t-81.5 -19q-38 0 -69 10t-57 29z" />
    <glyph glyph-name="z" unicode="z" horiz-adv-x="490" 
d="M40 97l230 256h-220v116h402v-99l-231 -257h232v-113h-413v97z" />
    <glyph glyph-name="braceleft" unicode="{" horiz-adv-x="310" 
d="M101 194q-3 31 -19 52t-54 21v80q38 0 54 21t19 52l14 165q4 44 15 73t34 48h132q-23 -23 -34.5 -60.5t-15.5 -79.5l-14 -165q-3 -36 -26.5 -61t-51.5 -33q35 -11 54 -40.5t27 -83.5l13 -165q2 -29 16 -61t32 -50h-132q-23 19 -34 48.5t-15 73.5z" />
    <glyph glyph-name="bar" unicode="|" horiz-adv-x="263" 
d="M66 833h130v-997h-130v997z" />
    <glyph glyph-name="braceright" unicode="}" horiz-adv-x="310" 
d="M14 -93q18 18 32 50t16 61l13 165q8 54 27 83.5t54 40.5q-28 8 -51.5 33t-26.5 61l-14 165q-4 42 -15.5 79.5t-34.5 60.5h132q23 -19 34 -48t15 -73l14 -165q3 -31 19 -52t54 -21v-80q-38 0 -54 -21t-19 -52l-14 -165q-4 -44 -15 -73.5t-34 -48.5h-132z" />
    <glyph glyph-name="asciitilde" unicode="~" 
d="M494 282q-31 -33 -67 -50.5t-69 -17.5q-23 0 -41.5 7.5t-35.5 17t-35 17t-40 7.5q-28 0 -52 -10.5t-48 -29.5l-56 93q27 29 62 48.5t74 19.5q23 0 41.5 -7.5t36 -17t35 -17t39.5 -7.5q26 0 49.5 9.5t50.5 30.5z" />
    <glyph glyph-name="uni00A0" unicode="&#xa0;" horiz-adv-x="181" 
 />
    <glyph glyph-name="exclamdown" unicode="&#xa1;" horiz-adv-x="288" 
d="M71 252h146l6 -449h-158zM65 469h157v-154h-157v154z" />
    <glyph glyph-name="cent" unicode="&#xa2;" 
d="M273 66q-47 7 -85 28t-65 53.5t-41.5 74.5t-14.5 91q0 46 15 87.5t42.5 74t65.5 54.5t83 30v90h88v-89q48 -6 85 -25.5t64 -48.5l-87 -94q-16 18 -39 32t-61 14q-26 0 -46.5 -10.5t-35 -27.5t-22 -39.5t-7.5 -47.5t8 -47.5t22 -40t34.5 -27.5t46.5 -10q37 0 62 15t40 32
l84 -95q-25 -27 -62 -47.5t-86 -27.5v-84h-88v85z" />
    <glyph glyph-name="sterling" unicode="&#xa3;" 
d="M110 269h-73v96h73v61q0 41 12.5 80.5t39 71t68.5 51t102 19.5q69 0 114 -24t75 -57l-88 -96q-18 19 -38.5 31.5t-50.5 12.5q-23 0 -39 -9t-25.5 -23.5t-14 -33.5t-4.5 -39v-45h178v-96h-178v-136h263v-133h-414v269z" />
    <glyph glyph-name="currency" unicode="&#xa4;" 
d="M92 226q-25 45 -25 98t24 95l-64 66l80 81l65 -66q21 11 45 18t50 7q27 0 52.5 -7.5t48.5 -21.5l68 70l81 -81l-71 -72q10 -20 16 -42.5t6 -46.5q0 -25 -6 -48t-17 -44l72 -73l-81 -80l-70 71q-46 -26 -99 -26q-52 0 -92 23l-68 -68l-80 80zM178 324q0 -37 26 -63t63 -26
t63 26t26 63t-26 63t-63 26t-63 -26t-26 -63z" />
    <glyph glyph-name="yen" unicode="&#xa5;" 
d="M66 190h131v70h-131v82h87l-154 288h160l116 -256l116 256h155l-155 -288h92v-82h-135v-70h135v-82h-135v-108h-151v108h-131v82z" />
    <glyph glyph-name="brokenbar" unicode="&#xa6;" horiz-adv-x="263" 
d="M66 215h130v-379h-130v379zM66 833h130v-379h-130v379z" />
    <glyph glyph-name="section" unicode="&#xa7;" horiz-adv-x="470" 
d="M145 327q-51 32 -73 75.5t-22 91.5q0 39 14.5 73.5t41 61t63 41.5t81.5 15q32 0 58 -7.5t46 -17.5t33.5 -20t19.5 -15l-69 -105q-18 12 -40.5 24t-46.5 12q-28 0 -43.5 -16t-15.5 -36q0 -17 7 -32t33 -32l194 -130l-77 -115zM127 -48q18 -12 40 -24t47 -12q27 0 43 16.5
t16 36.5q0 17 -7 31.5t-33 31.5l-194 131l77 115l204 -133q50 -32 72 -75.5t22 -91.5q0 -39 -14.5 -73.5t-41 -60.5t-63 -41t-81.5 -15q-32 0 -58 7.5t-46 17t-33.5 19.5t-19.5 15z" />
    <glyph glyph-name="dieresis" unicode="&#xa8;" horiz-adv-x="393" 
d="M231 668h123v-114h-123v114zM38 668h123v-114h-123v114z" />
    <glyph glyph-name="copyright" unicode="&#xa9;" horiz-adv-x="806" 
d="M562 229q-24 -35 -63.5 -59t-91.5 -24q-43 0 -78 14.5t-60 40t-39 61t-14 76.5q0 39 14 74t39.5 60.5t60.5 40.5t77 15q52 0 91.5 -24.5t63.5 -59.5l-70 -54q-11 19 -32 33.5t-48 14.5q-44 0 -70 -29t-26 -72q0 -42 26.5 -71t69.5 -29q29 0 49 15.5t31 32.5zM402 -14
q-73 0 -136 27t-109.5 74.5t-73.5 111t-27 136.5t27 136.5t73.5 110.5t110 74.5t136.5 27.5t136 -27.5t109.5 -74.5t73.5 -110.5t27 -136.5t-27 -136.5t-74 -111t-110 -74.5t-136 -27zM402 69q55 0 102 20.5t81.5 56t54 84t19.5 105.5q0 56 -19.5 104.5t-54 84.5t-81.5 56.5
t-101 20.5q-55 0 -102 -20.5t-81.5 -56.5t-54.5 -84.5t-20 -104.5q0 -57 19.5 -105.5t54 -84t81.5 -56t102 -20.5z" />
    <glyph glyph-name="ordfeminine" unicode="&#xaa;" horiz-adv-x="384" 
d="M45 604q29 22 63.5 33t81.5 11q63 0 102.5 -31.5t39.5 -91.5v-203h-93q0 3 -0.5 11t-1.5 15q-17 -17 -40.5 -26.5t-49.5 -9.5q-22 0 -42 6.5t-35 19t-24 31.5t-9 44q0 29 12.5 49.5t33 33t47 18.5t54.5 6q24 0 51 -3v12q0 20 -16 30.5t-39 10.5q-29 0 -51 -8t-41 -20z
M235 454q-5 1 -15 2t-30 1q-29 0 -43 -11t-14 -26q0 -34 46 -34q24 0 40 14t16 35v19z" />
    <glyph glyph-name="guillemotleft" unicode="&#xab;" horiz-adv-x="577" 
d="M53 241l104 197h142l-102 -197l102 -197h-142zM274 241l104 197h142l-102 -197l102 -197h-142z" />
    <glyph glyph-name="logicalnot" unicode="&#xac;" 
d="M73 376h399v-255h-118v140h-281v115z" />
    <glyph glyph-name="uni00AD" unicode="&#xad;" horiz-adv-x="445" 
d="M64 348h317v-137h-317v137z" />
    <glyph glyph-name="registered" unicode="&#xae;" horiz-adv-x="520" 
d="M260 233q-49 0 -91 16.5t-72.5 46t-47.5 71t-17 91.5q0 51 17 92.5t47.5 71t72.5 46t91 16.5t91 -16.5t72.5 -46t47.5 -71t17 -92.5q0 -50 -17 -91.5t-47.5 -71t-72.5 -46t-91 -16.5zM260 292q36 0 65.5 12t51.5 34t34 52.5t12 67.5t-12 67.5t-34 52.5t-51.5 34t-65.5 12
t-65.5 -12t-51.5 -34t-34 -52.5t-12 -67.5t12 -67.5t34 -52.5t51.5 -34t65.5 -12zM181 576h91q33 0 54 -18.5t21 -49.5q0 -25 -11.5 -41.5t-29.5 -24.5l54 -85h-58l-49 77h-21v-77h-51v219zM257 475q20 0 29 6.5t9 23.5q0 14 -8 22t-21 8h-34v-60h25z" />
    <glyph glyph-name="macron" unicode="&#xaf;" horiz-adv-x="393" 
d="M60 654h273v-102h-273v102z" />
    <glyph glyph-name="degree" unicode="&#xb0;" horiz-adv-x="359" 
d="M34 524q0 31 11.5 57.5t31 45.5t46 29.5t56.5 10.5t57 -10.5t46.5 -29.5t31 -45t11.5 -57t-11.5 -57t-31 -45t-46.5 -29.5t-57 -10.5t-56.5 10.5t-46 29.5t-31 45t-11.5 56zM179 467q25 0 40.5 16.5t15.5 41.5q0 24 -15.5 40.5t-40.5 16.5t-40 -16.5t-15 -41.5
q0 -24 15 -40.5t40 -16.5z" />
    <glyph glyph-name="plusminus" unicode="&#xb1;" 
d="M73 115h399v-115h-399v115zM73 376h140v142h118v-142h141v-115h-141v-117h-118v117h-140v115z" />
    <glyph glyph-name="uni00B2" unicode="&#xb2;" horiz-adv-x="360" 
d="M44 438q0 25 12 44.5t30 35.5t39 29.5t39 26t30 24t12 23.5q0 14 -9.5 20.5t-25.5 6.5q-20 0 -43.5 -9t-44.5 -23l-46 72q31 21 66.5 34.5t77.5 13.5q62 0 98.5 -28t36.5 -78q0 -35 -15 -57t-37.5 -38.5t-47.5 -30.5t-46 -33h148v-87h-274v54z" />
    <glyph glyph-name="uni00B3" unicode="&#xb3;" horiz-adv-x="360" 
d="M71 492q20 -14 43 -22.5t47 -8.5q21 0 35 8.5t14 26.5q0 22 -17 29t-38 7q-12 0 -25.5 -2t-24.5 -5l-21 43l109 75h-138v84h247v-76l-74 -59q48 -8 68 -36.5t20 -67.5q0 -27 -12.5 -48.5t-33.5 -36t-49 -22t-59 -7.5q-40 0 -75.5 11.5t-64.5 31.5z" />
    <glyph glyph-name="acute" unicode="&#xb4;" horiz-adv-x="471" 
d="M212 682h142l-84 -142h-106z" />
    <glyph glyph-name="mu" unicode="&#xb5;" horiz-adv-x="562" 
d="M54 469h143v-269q0 -42 20 -64.5t57 -22.5q45 0 68.5 29.5t23.5 71.5v255h144v-469h-138q-2 11 -2.5 22.5t-1.5 22.5q-16 -23 -44.5 -38t-64.5 -15q-16 0 -30.5 3.5t-31.5 12.5v-208h-143v669z" />
    <glyph glyph-name="paragraph" unicode="&#xb6;" horiz-adv-x="568" 
d="M364 667h137v-789h-137v789zM270 296q-49 0 -92.5 9t-76 30t-51.5 56.5t-19 89.5q0 53 19 89t52 57.5t76.5 30.5t91.5 9h36v-371h-36zM169 250q23 -7 50.5 -9t50.5 -2h36v-361h-137v372z" />
    <glyph glyph-name="periodcentered" unicode="&#xb7;" horiz-adv-x="283" 
d="M60 314h163v-159h-163v159z" />
    <glyph glyph-name="cedilla" unicode="&#xb8;" horiz-adv-x="572" 
d="M109 -135q18 -6 35.5 -9.5t34.5 -3.5q21 0 38.5 6.5t17.5 23.5q0 15 -15.5 21t-36.5 6q-36 0 -66 -12l13 68q20 5 40 8.5t46 3.5q49 0 83 -23.5t34 -69.5q0 -27 -11.5 -47t-30.5 -33t-43 -19.5t-49 -6.5q-38 0 -64.5 5.5t-39.5 10.5z" />
    <glyph glyph-name="uni00B9" unicode="&#xb9;" horiz-adv-x="360" 
d="M165 618l-72 -36l-40 79l124 66h97v-343h-109v234z" />
    <glyph glyph-name="ordmasculine" unicode="&#xba;" horiz-adv-x="423" 
d="M42 480q0 36 12.5 66.5t35 53t53.5 35.5t69 13q37 0 68 -13t53 -35.5t34.5 -53t12.5 -66.5t-12.5 -66.5t-34.5 -53t-53 -35t-68 -12.5q-38 0 -69 12.5t-53.5 35t-35 53t-12.5 66.5zM212 404q32 0 49.5 22t17.5 54t-17.5 54.5t-49.5 22.5q-33 0 -50.5 -22.5t-17.5 -54.5
t17.5 -54t50.5 -22z" />
    <glyph glyph-name="guillemotright" unicode="&#xbb;" horiz-adv-x="577" 
d="M159 241l-102 197h142l104 -197l-104 -197h-142zM380 241l-102 197h142l104 -197l-104 -197h-142z" />
    <glyph glyph-name="onequarter" unicode="&#xbc;" horiz-adv-x="925" 
d="M595 630h125l-400 -630h-127zM535 139l160 205h111v-210h39v-74h-39v-59h-98v59h-173v79zM708 134v121l-91 -121h91zM176 528l-72 -36l-40 79l124 66h97v-343h-109v234z" />
    <glyph glyph-name="onehalf" unicode="&#xbd;" horiz-adv-x="925" 
d="M577 630h125l-400 -630h-127zM584 55q0 25 12 44.5t30 35.5t39 29.5t39 26t30 24t12 23.5q0 14 -9.5 20.5t-25.5 6.5q-20 0 -43.5 -9t-44.5 -23l-46 72q31 21 66.5 34.5t77.5 13.5q62 0 98.5 -28t36.5 -78q0 -35 -15 -57t-37.5 -38.5t-47.5 -30.5t-46 -33h148v-87h-274
v54zM161 528l-72 -36l-40 79l124 66h97v-343h-109v234z" />
    <glyph glyph-name="threequarters" unicode="&#xbe;" horiz-adv-x="925" 
d="M619 630h125l-400 -630h-127zM554 139l160 205h111v-210h39v-74h-39v-59h-98v59h-173v79zM727 134v121l-91 -121h91zM112 402q20 -14 43 -22.5t47 -8.5q21 0 35 8.5t14 26.5q0 22 -17 29t-38 7q-12 0 -25.5 -2t-24.5 -5l-21 43l109 75h-138v84h247v-76l-74 -59
q48 -8 68 -36.5t20 -67.5q0 -27 -12.5 -48.5t-33.5 -36t-49 -22t-59 -7.5q-40 0 -75.5 11.5t-64.5 31.5z" />
    <glyph glyph-name="questiondown" unicode="&#xbf;" horiz-adv-x="523" 
d="M492 -116q-14 -15 -34.5 -32.5t-49 -32.5t-65 -25t-81.5 -10q-47 0 -86.5 12.5t-68.5 36.5t-45.5 58.5t-16.5 77.5q0 29 6 51t17 40t26 32.5t33 28.5t34 26t27 25t17.5 29t6.5 38v13h137v-13q0 -54 -18.5 -95t-60.5 -72q-15 -11 -29 -21.5t-25.5 -21.5t-18.5 -23.5
t-7 -27.5q0 -31 25 -46.5t57 -15.5q22 0 42.5 6t37 15.5t30 20t22.5 19.5zM202 469h157v-154h-157v154z" />
    <glyph glyph-name="Agrave" unicode="&#xc0;" horiz-adv-x="674" 
d="M256 667h167l244 -667h-165l-51 153h-235l-51 -153h-158zM415 270l-81 252l-83 -252h164zM176 873h163l73 -156h-117z" />
    <glyph glyph-name="Aacute" unicode="&#xc1;" horiz-adv-x="674" 
d="M256 667h167l244 -667h-165l-51 153h-235l-51 -153h-158zM415 270l-81 252l-83 -252h164zM346 873h163l-119 -156h-117z" />
    <glyph glyph-name="Acircumflex" unicode="&#xc2;" horiz-adv-x="674" 
d="M256 667h167l244 -667h-165l-51 153h-235l-51 -153h-158zM415 270l-81 252l-83 -252h164zM277 873h120l113 -156h-120l-53 75l-54 -75h-119z" />
    <glyph glyph-name="Atilde" unicode="&#xc3;" horiz-adv-x="674" 
d="M256 667h167l244 -667h-165l-51 153h-235l-51 -153h-158zM415 270l-81 252l-83 -252h164zM131 806q21 23 54.5 42.5t74.5 19.5q20 0 36.5 -6.5t32.5 -14.5t32 -14.5t36 -6.5q31 0 53.5 11.5t39.5 25.5l54 -82q-22 -23 -55 -43t-74 -20q-20 0 -36.5 6.5t-32.5 15t-32 15
t-36 6.5q-32 0 -54 -11.5t-39 -25.5z" />
    <glyph glyph-name="Adieresis" unicode="&#xc4;" horiz-adv-x="674" 
d="M256 667h167l244 -667h-165l-51 153h-235l-51 -153h-158zM415 270l-81 252l-83 -252h164zM380 856h132v-122h-132v122zM161 856h132v-122h-132v122z" />
    <glyph glyph-name="Aring" unicode="&#xc5;" horiz-adv-x="674" 
d="M252 658q-23 17 -36 44t-13 59q0 28 10.5 52.5t29 42.5t43.5 28t53 10t53 -10t44 -28t29.5 -42.5t10.5 -52.5q0 -32 -13.5 -59t-36.5 -44l241 -658h-165l-51 153h-235l-51 -153h-158zM415 270l-81 252l-83 -252h164zM340 713q20 0 33 14t13 34q0 21 -13 34.5t-34 13.5
q-20 0 -33 -13.5t-13 -34.5q0 -20 13 -34t34 -14z" />
    <glyph glyph-name="AE" unicode="&#xc6;" horiz-adv-x="959" 
d="M365 667h535v-132h-292v-130h225v-128h-225v-144h314v-133h-459v155h-222l-80 -155h-161zM463 271v272h-22l-140 -272h162z" />
    <glyph glyph-name="Ccedilla" unicode="&#xc7;" horiz-adv-x="681" 
d="M667 123q-21 -29 -51 -54.5t-66.5 -44.5t-79 -30t-88.5 -11q-76 0 -139 26t-108.5 72.5t-70.5 110t-25 139.5q0 74 25 138.5t70.5 112t109 75t140.5 27.5q93 0 162.5 -34t115.5 -98l-103 -99q-30 42 -71 67.5t-98 25.5q-45 0 -81 -16.5t-61 -45.5t-38.5 -67.5
t-13.5 -81.5q0 -44 13.5 -82t38.5 -66t60 -44t79 -16q36 0 62.5 7.5t47 20t36.5 29t31 33.5zM268 -144q36 -12 71 -12q20 0 37.5 5t17.5 22q0 14 -15.5 19.5t-35.5 5.5q-17 0 -34.5 -2.5t-32.5 -7.5l13 68q20 6 40.5 8.5t46.5 2.5q49 0 84 -23t35 -68q0 -27 -12 -47
t-31.5 -33t-43.5 -19t-49 -6q-38 0 -65 5t-40 10z" />
    <glyph glyph-name="Egrave" unicode="&#xc8;" horiz-adv-x="580" 
d="M65 667h456v-132h-305v-130h237v-128h-237v-144h327v-133h-478v667zM148 873h163l73 -156h-117z" />
    <glyph glyph-name="Eacute" unicode="&#xc9;" horiz-adv-x="580" 
d="M65 667h456v-132h-305v-130h237v-128h-237v-144h327v-133h-478v667zM306 873h163l-119 -156h-117z" />
    <glyph glyph-name="Ecircumflex" unicode="&#xca;" horiz-adv-x="580" 
d="M65 667h456v-132h-305v-130h237v-128h-237v-144h327v-133h-478v667zM236 873h120l113 -156h-120l-53 75l-54 -75h-119z" />
    <glyph glyph-name="Edieresis" unicode="&#xcb;" horiz-adv-x="580" 
d="M65 667h456v-132h-305v-130h237v-128h-237v-144h327v-133h-478v667zM338 856h132v-122h-132v122zM119 856h132v-122h-132v122z" />
    <glyph glyph-name="Igrave" unicode="&#xcc;" horiz-adv-x="281" 
d="M65 667h151v-667h-151v667zM-23 873h163l73 -156h-117z" />
    <glyph glyph-name="Iacute" unicode="&#xcd;" horiz-adv-x="281" 
d="M65 667h151v-667h-151v667zM144 873h163l-119 -156h-117z" />
    <glyph glyph-name="Icircumflex" unicode="&#xce;" horiz-adv-x="281" 
d="M65 667h151v-667h-151v667zM82 873h120l113 -156h-120l-53 75l-54 -75h-119z" />
    <glyph glyph-name="Idieresis" unicode="&#xcf;" horiz-adv-x="281" 
d="M65 667h151v-667h-151v667zM185 856h132v-122h-132v122zM-34 856h132v-122h-132v122z" />
    <glyph glyph-name="Eth" unicode="&#xd0;" horiz-adv-x="712" 
d="M65 288h-64v96h64v283h252q77 0 142.5 -20t113 -61t74 -105t26.5 -151q0 -83 -27 -144.5t-74.5 -103t-113 -62t-142.5 -20.5h-251v288zM309 134q100 0 154 52.5t54 144.5q0 46 -12 83.5t-37.5 64t-65 41t-93.5 14.5h-93v-150h132v-96h-132v-154h93z" />
    <glyph glyph-name="Ntilde" unicode="&#xd1;" horiz-adv-x="712" 
d="M65 667h144l289 -433v433h149v-667h-137l-296 441v-441h-149v667zM142 806q21 23 54.5 42.5t74.5 19.5q20 0 36.5 -6.5t32.5 -14.5t32 -14.5t36 -6.5q31 0 53.5 11.5t39.5 25.5l54 -82q-22 -23 -55 -43t-74 -20q-20 0 -36.5 6.5t-32.5 15t-32 15t-36 6.5q-32 0 -54 -11.5
t-39 -25.5z" />
    <glyph glyph-name="Ograve" unicode="&#xd2;" horiz-adv-x="772" 
d="M386 -17q-74 0 -137.5 27t-110 74t-73 111.5t-26.5 138.5q0 75 26.5 139t73 111t110 74t137.5 27t137.5 -27t110 -74t73 -111t26.5 -139q0 -74 -26.5 -138.5t-73 -111.5t-110 -74t-137.5 -27zM386 125q44 0 79 17t59.5 46t37.5 67t13 81t-13 81t-37.5 66.5t-59.5 45
t-79 16.5t-79.5 -16.5t-60 -45t-37.5 -66.5t-13 -81t13 -81t37.5 -67t60 -46t79.5 -17zM225 873h163l73 -156h-117z" />
    <glyph glyph-name="Oacute" unicode="&#xd3;" horiz-adv-x="772" 
d="M386 -17q-74 0 -137.5 27t-110 74t-73 111.5t-26.5 138.5q0 75 26.5 139t73 111t110 74t137.5 27t137.5 -27t110 -74t73 -111t26.5 -139q0 -74 -26.5 -138.5t-73 -111.5t-110 -74t-137.5 -27zM386 125q44 0 79 17t59.5 46t37.5 67t13 81t-13 81t-37.5 66.5t-59.5 45
t-79 16.5t-79.5 -16.5t-60 -45t-37.5 -66.5t-13 -81t13 -81t37.5 -67t60 -46t79.5 -17zM383 873h163l-119 -156h-117z" />
    <glyph glyph-name="Ocircumflex" unicode="&#xd4;" horiz-adv-x="772" 
d="M386 -17q-74 0 -137.5 27t-110 74t-73 111.5t-26.5 138.5q0 75 26.5 139t73 111t110 74t137.5 27t137.5 -27t110 -74t73 -111t26.5 -139q0 -74 -26.5 -138.5t-73 -111.5t-110 -74t-137.5 -27zM386 125q44 0 79 17t59.5 46t37.5 67t13 81t-13 81t-37.5 66.5t-59.5 45
t-79 16.5t-79.5 -16.5t-60 -45t-37.5 -66.5t-13 -81t13 -81t37.5 -67t60 -46t79.5 -17zM326 873h120l113 -156h-120l-53 75l-54 -75h-119z" />
    <glyph glyph-name="Otilde" unicode="&#xd5;" horiz-adv-x="772" 
d="M386 -17q-74 0 -137.5 27t-110 74t-73 111.5t-26.5 138.5q0 75 26.5 139t73 111t110 74t137.5 27t137.5 -27t110 -74t73 -111t26.5 -139q0 -74 -26.5 -138.5t-73 -111.5t-110 -74t-137.5 -27zM386 125q44 0 79 17t59.5 46t37.5 67t13 81t-13 81t-37.5 66.5t-59.5 45
t-79 16.5t-79.5 -16.5t-60 -45t-37.5 -66.5t-13 -81t13 -81t37.5 -67t60 -46t79.5 -17zM180 806q21 23 54.5 42.5t74.5 19.5q20 0 36.5 -6.5t32.5 -14.5t32 -14.5t36 -6.5q31 0 53.5 11.5t39.5 25.5l54 -82q-22 -23 -55 -43t-74 -20q-20 0 -36.5 6.5t-32.5 15t-32 15
t-36 6.5q-32 0 -54 -11.5t-39 -25.5z" />
    <glyph glyph-name="Odieresis" unicode="&#xd6;" horiz-adv-x="772" 
d="M386 -17q-74 0 -137.5 27t-110 74t-73 111.5t-26.5 138.5q0 75 26.5 139t73 111t110 74t137.5 27t137.5 -27t110 -74t73 -111t26.5 -139q0 -74 -26.5 -138.5t-73 -111.5t-110 -74t-137.5 -27zM386 125q44 0 79 17t59.5 46t37.5 67t13 81t-13 81t-37.5 66.5t-59.5 45
t-79 16.5t-79.5 -16.5t-60 -45t-37.5 -66.5t-13 -81t13 -81t37.5 -67t60 -46t79.5 -17zM429 856h132v-122h-132v122zM210 856h132v-122h-132v122z" />
    <glyph glyph-name="multiply" unicode="&#xd7;" 
d="M191 318l-115 116l81 81l116 -116l117 117l80 -81l-116 -117l115 -115l-81 -82l-116 116l-116 -117l-81 81z" />
    <glyph glyph-name="Oslash" unicode="&#xd8;" horiz-adv-x="772" 
d="M147 73q-51 48 -79.5 114.5t-28.5 144.5q0 75 26.5 139t73 111t110 74t137.5 27q86 0 158 -37l57 83l84 -54l-59 -86q50 -48 78.5 -113.5t28.5 -143.5q0 -74 -26.5 -138.5t-73 -111.5t-110 -74t-137.5 -27q-43 0 -82.5 9t-74.5 26l-56 -81l-84 54zM462 528q-35 15 -76 15
q-44 0 -79.5 -16.5t-60 -45t-37.5 -66.5t-13 -81q0 -78 39 -134zM313 138q31 -15 73 -15q44 0 79 17t59.5 46t37.5 67t13 81q0 73 -37 129z" />
    <glyph glyph-name="Ugrave" unicode="&#xd9;" horiz-adv-x="680" 
d="M60 667h152v-395q0 -33 6.5 -59.5t21.5 -45.5t39.5 -29.5t60.5 -10.5q35 0 59.5 10.5t39.5 29.5t21.5 45.5t6.5 59.5v395h153v-414q0 -60 -19.5 -110t-56 -85.5t-88.5 -55.5t-116 -20t-116 19.5t-88.5 55.5t-56 86t-19.5 110v414zM190 873h163l73 -156h-117z" />
    <glyph glyph-name="Uacute" unicode="&#xda;" horiz-adv-x="680" 
d="M60 667h152v-395q0 -33 6.5 -59.5t21.5 -45.5t39.5 -29.5t60.5 -10.5q35 0 59.5 10.5t39.5 29.5t21.5 45.5t6.5 59.5v395h153v-414q0 -60 -19.5 -110t-56 -85.5t-88.5 -55.5t-116 -20t-116 19.5t-88.5 55.5t-56 86t-19.5 110v414zM341 873h163l-119 -156h-117z" />
    <glyph glyph-name="Ucircumflex" unicode="&#xdb;" horiz-adv-x="680" 
d="M60 667h152v-395q0 -33 6.5 -59.5t21.5 -45.5t39.5 -29.5t60.5 -10.5q35 0 59.5 10.5t39.5 29.5t21.5 45.5t6.5 59.5v395h153v-414q0 -60 -19.5 -110t-56 -85.5t-88.5 -55.5t-116 -20t-116 19.5t-88.5 55.5t-56 86t-19.5 110v414zM280 873h120l113 -156h-120l-53 75
l-54 -75h-119z" />
    <glyph glyph-name="Udieresis" unicode="&#xdc;" horiz-adv-x="680" 
d="M60 667h152v-395q0 -33 6.5 -59.5t21.5 -45.5t39.5 -29.5t60.5 -10.5q35 0 59.5 10.5t39.5 29.5t21.5 45.5t6.5 59.5v395h153v-414q0 -60 -19.5 -110t-56 -85.5t-88.5 -55.5t-116 -20t-116 19.5t-88.5 55.5t-56 86t-19.5 110v414zM383 856h132v-122h-132v122zM164 856
h132v-122h-132v122z" />
    <glyph glyph-name="Yacute" unicode="&#xdd;" horiz-adv-x="643" 
d="M245 279l-234 388h171l145 -252l141 252h164l-234 -387v-280h-153v279zM339 873h163l-119 -156h-117z" />
    <glyph glyph-name="Thorn" unicode="&#xde;" horiz-adv-x="578" 
d="M65 667h147v-109h96q62 0 106 -18t72.5 -47.5t42 -68t13.5 -80.5q0 -54 -18.5 -95t-50 -68t-72.5 -41t-86 -14h-103v-126h-147v667zM300 249q42 0 66.5 25t24.5 66q0 43 -25 69t-67 26h-87v-186h88z" />
    <glyph glyph-name="germandbls" unicode="&#xdf;" horiz-adv-x="610" 
d="M51 467q0 59 18 100t50 67t77 38t98 12q40 0 77 -10t65.5 -30t46 -50.5t17.5 -70.5q0 -37 -14.5 -64.5t-32.5 -49t-32.5 -38.5t-14.5 -32q0 -17 17.5 -27t46.5 -19q25 -8 47 -19t38.5 -28.5t25.5 -43t9 -61.5q0 -37 -15 -66t-40.5 -48.5t-60 -30t-74.5 -10.5
q-48 0 -91.5 12t-77.5 39l73 97q19 -16 41.5 -25t43.5 -9q29 0 46.5 9t17.5 31q0 23 -20 36t-65 29q-20 7 -38 16t-32.5 23t-23 35t-8.5 51q0 31 14.5 55.5t32.5 45.5t32.5 39.5t14.5 36.5q0 29 -19.5 45.5t-53.5 16.5q-50 0 -71 -30.5t-21 -76.5v-462h-144v467z" />
    <glyph glyph-name="agrave" unicode="&#xe0;" horiz-adv-x="515" 
d="M325 44q-24 -28 -60.5 -43t-81.5 -15q-25 0 -52.5 7t-51 23.5t-39 44.5t-15.5 70q0 41 16.5 73t45.5 53.5t68.5 32.5t85.5 11q25 0 50.5 -1t33.5 -3v10q0 18 -7.5 30.5t-20 21t-28.5 12t-34 3.5q-48 0 -79.5 -12t-53.5 -27l-59 88q15 11 34 22t45 20t58.5 14.5t74.5 5.5
q107 0 158 -57.5t51 -154.5v-273h-135zM325 207q-5 1 -19 2.5t-32 1.5q-60 0 -85 -17t-25 -48q0 -58 70 -58q17 0 33.5 5.5t29 15.5t20.5 25t8 35v38zM132 682h143l48 -142h-106z" />
    <glyph glyph-name="aacute" unicode="&#xe1;" horiz-adv-x="515" 
d="M325 44q-24 -28 -60.5 -43t-81.5 -15q-25 0 -52.5 7t-51 23.5t-39 44.5t-15.5 70q0 41 16.5 73t45.5 53.5t68.5 32.5t85.5 11q25 0 50.5 -1t33.5 -3v10q0 18 -7.5 30.5t-20 21t-28.5 12t-34 3.5q-48 0 -79.5 -12t-53.5 -27l-59 88q15 11 34 22t45 20t58.5 14.5t74.5 5.5
q107 0 158 -57.5t51 -154.5v-273h-135zM325 207q-5 1 -19 2.5t-32 1.5q-60 0 -85 -17t-25 -48q0 -58 70 -58q17 0 33.5 5.5t29 15.5t20.5 25t8 35v38zM240 682h142l-84 -142h-106z" />
    <glyph glyph-name="acircumflex" unicode="&#xe2;" horiz-adv-x="515" 
d="M325 44q-24 -28 -60.5 -43t-81.5 -15q-25 0 -52.5 7t-51 23.5t-39 44.5t-15.5 70q0 41 16.5 73t45.5 53.5t68.5 32.5t85.5 11q25 0 50.5 -1t33.5 -3v10q0 18 -7.5 30.5t-20 21t-28.5 12t-34 3.5q-48 0 -79.5 -12t-53.5 -27l-59 88q15 11 34 22t45 20t58.5 14.5t74.5 5.5
q107 0 158 -57.5t51 -154.5v-273h-135zM325 207q-5 1 -19 2.5t-32 1.5q-60 0 -85 -17t-25 -48q0 -58 70 -58q17 0 33.5 5.5t29 15.5t20.5 25t8 35v38zM193 682h121l106 -142h-119l-48 66l-47 -66h-119z" />
    <glyph glyph-name="atilde" unicode="&#xe3;" horiz-adv-x="515" 
d="M325 44q-24 -28 -60.5 -43t-81.5 -15q-25 0 -52.5 7t-51 23.5t-39 44.5t-15.5 70q0 41 16.5 73t45.5 53.5t68.5 32.5t85.5 11q25 0 50.5 -1t33.5 -3v10q0 18 -7.5 30.5t-20 21t-28.5 12t-34 3.5q-48 0 -79.5 -12t-53.5 -27l-59 88q15 11 34 22t45 20t58.5 14.5t74.5 5.5
q107 0 158 -57.5t51 -154.5v-273h-135zM325 207q-5 1 -19 2.5t-32 1.5q-60 0 -85 -17t-25 -48q0 -58 70 -58q17 0 33.5 5.5t29 15.5t20.5 25t8 35v38zM52 620q20 22 52.5 41t71.5 19q19 0 35.5 -6.5t31.5 -14.5t31 -14.5t35 -6.5q30 0 51.5 12t38.5 25l51 -79
q-20 -22 -52.5 -41.5t-71.5 -19.5q-20 0 -36 6.5t-31 14.5t-31 14.5t-35 6.5q-30 0 -51.5 -11.5t-38.5 -24.5z" />
    <glyph glyph-name="adieresis" unicode="&#xe4;" horiz-adv-x="515" 
d="M325 44q-24 -28 -60.5 -43t-81.5 -15q-25 0 -52.5 7t-51 23.5t-39 44.5t-15.5 70q0 41 16.5 73t45.5 53.5t68.5 32.5t85.5 11q25 0 50.5 -1t33.5 -3v10q0 18 -7.5 30.5t-20 21t-28.5 12t-34 3.5q-48 0 -79.5 -12t-53.5 -27l-59 88q15 11 34 22t45 20t58.5 14.5t74.5 5.5
q107 0 158 -57.5t51 -154.5v-273h-135zM325 207q-5 1 -19 2.5t-32 1.5q-60 0 -85 -17t-25 -48q0 -58 70 -58q17 0 33.5 5.5t29 15.5t20.5 25t8 35v38zM293 668h123v-114h-123v114zM100 668h123v-114h-123v114z" />
    <glyph glyph-name="aring" unicode="&#xe5;" horiz-adv-x="515" 
d="M325 44q-24 -28 -60.5 -43t-81.5 -15q-25 0 -52.5 7t-51 23.5t-39 44.5t-15.5 70q0 41 16.5 73t45.5 53.5t68.5 32.5t85.5 11q25 0 50.5 -1t33.5 -3v10q0 18 -7.5 30.5t-20 21t-28.5 12t-34 3.5q-48 0 -79.5 -12t-53.5 -27l-59 88q15 11 34 22t45 20t58.5 14.5t74.5 5.5
q107 0 158 -57.5t51 -154.5v-273h-135zM325 207q-5 1 -19 2.5t-32 1.5q-60 0 -85 -17t-25 -48q0 -58 70 -58q17 0 33.5 5.5t29 15.5t20.5 25t8 35v38zM137 645q0 25 9.5 46.5t26 37t38.5 24t46 8.5q25 0 47 -8.5t38.5 -24t26 -37t9.5 -46.5t-9.5 -46t-26 -36.5t-38.5 -24.5
t-46 -9q-25 0 -47 9t-38.5 24.5t-26 36.5t-9.5 46zM257 604q17 0 29 12t12 29t-11.5 29t-28.5 12t-29 -12t-12 -29t11.5 -29t28.5 -12z" />
    <glyph glyph-name="ae" unicode="&#xe6;" horiz-adv-x="821" 
d="M43 423q15 11 34 22t44 20t56.5 14.5t70.5 5.5q55 0 93.5 -15.5t64.5 -44.5q27 29 67 44.5t92 15.5q56 0 98.5 -20t71 -55.5t43 -85t14.5 -108.5v-24h-334q0 -19 9 -36t25 -30t38.5 -21t51.5 -8q56 0 91 16.5t51 28.5q14 -23 29 -45.5t29 -45.5q-8 -5 -24 -16.5
t-41 -22.5t-60 -19.5t-80 -8.5q-63 0 -109.5 19.5t-78.5 54.5q-39 -40 -82.5 -56.5t-103.5 -16.5q-34 0 -66 8t-57 25.5t-40 45.5t-15 69t16.5 72t45.5 51.5t68.5 30.5t85.5 10q24 0 49 -1.5t35 -2.5v14q0 36 -27.5 51.5t-66.5 15.5q-44 0 -75.5 -12t-53.5 -27zM325 203
q-15 3 -60 3q-49 0 -76 -14.5t-27 -45.5q0 -28 18.5 -43t53.5 -15q38 0 64.5 21t26.5 60v34zM657 284q0 16 -6 32t-18 29t-30 20.5t-43 7.5t-44 -8.5t-32 -21.5t-19.5 -28.5t-6.5 -30.5h199z" />
    <glyph glyph-name="ccedilla" unicode="&#xe7;" horiz-adv-x="487" 
d="M474 62q-29 -32 -76.5 -55t-112.5 -23q-57 0 -103.5 18.5t-79.5 52t-51.5 79.5t-18.5 101q0 52 19 97.5t52.5 79.5t80 53.5t101.5 19.5q64 0 111 -21t79 -56l-87 -94q-16 18 -39 32t-61 14q-26 0 -46.5 -10.5t-35 -27.5t-22 -39.5t-7.5 -47.5q0 -23 7.5 -45.5t22 -40
t35 -28.5t46.5 -11q37 0 62 14.5t40 31.5zM173 -144q18 -6 35.5 -9.5t34.5 -3.5q21 0 38.5 6.5t17.5 23.5q0 15 -15.5 21t-36.5 6q-36 0 -66 -12l13 68q20 5 40 8.5t46 3.5q49 0 83 -23.5t34 -69.5q0 -27 -11.5 -47t-30.5 -33t-43 -19.5t-49 -6.5q-38 0 -64.5 5.5
t-39.5 10.5z" />
    <glyph glyph-name="egrave" unicode="&#xe8;" horiz-adv-x="535" 
d="M496 51q-8 -5 -24 -16.5t-41.5 -22.5t-60.5 -19.5t-80 -8.5q-60 0 -108 18.5t-81.5 51.5t-51 79.5t-17.5 102.5q0 49 16.5 94.5t47.5 79.5t76 54.5t102 20.5t100 -20t72.5 -55.5t44.5 -85t15 -108.5v-24h-334q1 -38 33.5 -66.5t89.5 -28.5q56 0 91 16.5t51 28.5zM370 284
q0 15 -6 30.5t-18 28.5t-30 21.5t-43 8.5t-44 -8.5t-31.5 -21.5t-19 -28.5t-6.5 -30.5h198zM148 682h143l48 -142h-106z" />
    <glyph glyph-name="eacute" unicode="&#xe9;" horiz-adv-x="535" 
d="M496 51q-8 -5 -24 -16.5t-41.5 -22.5t-60.5 -19.5t-80 -8.5q-60 0 -108 18.5t-81.5 51.5t-51 79.5t-17.5 102.5q0 49 16.5 94.5t47.5 79.5t76 54.5t102 20.5t100 -20t72.5 -55.5t44.5 -85t15 -108.5v-24h-334q1 -38 33.5 -66.5t89.5 -28.5q56 0 91 16.5t51 28.5zM370 284
q0 15 -6 30.5t-18 28.5t-30 21.5t-43 8.5t-44 -8.5t-31.5 -21.5t-19 -28.5t-6.5 -30.5h198zM265 682h142l-84 -142h-106z" />
    <glyph glyph-name="ecircumflex" unicode="&#xea;" horiz-adv-x="535" 
d="M496 51q-8 -5 -24 -16.5t-41.5 -22.5t-60.5 -19.5t-80 -8.5q-60 0 -108 18.5t-81.5 51.5t-51 79.5t-17.5 102.5q0 49 16.5 94.5t47.5 79.5t76 54.5t102 20.5t100 -20t72.5 -55.5t44.5 -85t15 -108.5v-24h-334q1 -38 33.5 -66.5t89.5 -28.5q56 0 91 16.5t51 28.5zM370 284
q0 15 -6 30.5t-18 28.5t-30 21.5t-43 8.5t-44 -8.5t-31.5 -21.5t-19 -28.5t-6.5 -30.5h198zM209 682h121l106 -142h-119l-48 66l-47 -66h-119z" />
    <glyph glyph-name="edieresis" unicode="&#xeb;" horiz-adv-x="535" 
d="M496 51q-8 -5 -24 -16.5t-41.5 -22.5t-60.5 -19.5t-80 -8.5q-60 0 -108 18.5t-81.5 51.5t-51 79.5t-17.5 102.5q0 49 16.5 94.5t47.5 79.5t76 54.5t102 20.5t100 -20t72.5 -55.5t44.5 -85t15 -108.5v-24h-334q1 -38 33.5 -66.5t89.5 -28.5q56 0 91 16.5t51 28.5zM370 284
q0 15 -6 30.5t-18 28.5t-30 21.5t-43 8.5t-44 -8.5t-31.5 -21.5t-19 -28.5t-6.5 -30.5h198zM304 668h123v-114h-123v114zM111 668h123v-114h-123v114z" />
    <glyph glyph-name="igrave" unicode="&#xec;" horiz-adv-x="258" 
d="M57 469h144v-469h-144v469zM-5 682h143l48 -142h-106z" />
    <glyph glyph-name="iacute" unicode="&#xed;" horiz-adv-x="258" 
d="M57 469h144v-469h-144v469zM121 682h142l-84 -142h-106z" />
    <glyph glyph-name="icircumflex" unicode="&#xee;" horiz-adv-x="258" 
d="M57 469h144v-469h-144v469zM70 682h121l106 -142h-119l-48 66l-47 -66h-119z" />
    <glyph glyph-name="idieresis" unicode="&#xef;" horiz-adv-x="258" 
d="M57 469h144v-469h-144v469zM165 668h123v-114h-123v114zM-28 668h123v-114h-123v114z" />
    <glyph glyph-name="eth" unicode="&#xf0;" horiz-adv-x="559" 
d="M181 570q-17 5 -36 8t-39 5l18 98q65 -5 119 -18l41 60l65 -42l-30 -45q57 -27 96.5 -65.5t64 -85.5t35.5 -100t11 -108q0 -72 -19 -127t-53 -91.5t-81.5 -55.5t-103.5 -19q-48 0 -91.5 16t-75.5 46.5t-51 74t-19 98.5q0 49 18.5 91t50 73t74 48.5t91.5 17.5q30 0 54 -5
t39 -10q-13 29 -37 57t-66 51l-47 -70l-65 43zM380 313q-16 9 -38.5 16.5t-49.5 7.5q-25 0 -47 -7.5t-38 -22.5t-25.5 -36.5t-9.5 -49.5q0 -48 29 -80t74 -32q49 0 80 38t31 110q0 13 -1 27t-5 29z" />
    <glyph glyph-name="ntilde" unicode="&#xf1;" horiz-adv-x="562" 
d="M54 469h138l4 -51q23 28 60.5 45t78.5 17q81 0 128.5 -48t47.5 -142v-290h-144v270q0 39 -19.5 62t-54.5 23q-24 0 -42 -8.5t-30 -22.5t-18 -32.5t-6 -39.5v-252h-143v469zM78 620q20 22 52.5 41t71.5 19q19 0 35.5 -6.5t31.5 -14.5t31 -14.5t35 -6.5q30 0 51.5 12
t38.5 25l51 -79q-20 -22 -52.5 -41.5t-71.5 -19.5q-20 0 -36 6.5t-31 14.5t-31 14.5t-35 6.5q-30 0 -51.5 -11.5t-38.5 -24.5z" />
    <glyph glyph-name="ograve" unicode="&#xf2;" horiz-adv-x="567" 
d="M284 109q27 0 48 10.5t35.5 28.5t21.5 40.5t7 46.5t-7 46.5t-21.5 40t-35.5 28t-48 10.5t-48.5 -10.5t-35.5 -28t-21.5 -40t-7.5 -46.5t7.5 -46.5t21.5 -40.5t35.5 -28.5t48.5 -10.5zM32 235q0 52 18.5 97.5t51.5 79.5t79.5 53.5t102.5 19.5t102 -19.5t79 -53.5
t51.5 -79.5t18.5 -97.5t-18.5 -97.5t-51.5 -79.5t-79 -54t-102 -20t-102.5 20t-79.5 54t-51.5 79.5t-18.5 97.5zM158 682h143l48 -142h-106z" />
    <glyph glyph-name="oacute" unicode="&#xf3;" horiz-adv-x="567" 
d="M284 109q27 0 48 10.5t35.5 28.5t21.5 40.5t7 46.5t-7 46.5t-21.5 40t-35.5 28t-48 10.5t-48.5 -10.5t-35.5 -28t-21.5 -40t-7.5 -46.5t7.5 -46.5t21.5 -40.5t35.5 -28.5t48.5 -10.5zM32 235q0 52 18.5 97.5t51.5 79.5t79.5 53.5t102.5 19.5t102 -19.5t79 -53.5
t51.5 -79.5t18.5 -97.5t-18.5 -97.5t-51.5 -79.5t-79 -54t-102 -20t-102.5 20t-79.5 54t-51.5 79.5t-18.5 97.5zM268 682h142l-84 -142h-106z" />
    <glyph glyph-name="ocircumflex" unicode="&#xf4;" horiz-adv-x="567" 
d="M284 109q27 0 48 10.5t35.5 28.5t21.5 40.5t7 46.5t-7 46.5t-21.5 40t-35.5 28t-48 10.5t-48.5 -10.5t-35.5 -28t-21.5 -40t-7.5 -46.5t7.5 -46.5t21.5 -40.5t35.5 -28.5t48.5 -10.5zM32 235q0 52 18.5 97.5t51.5 79.5t79.5 53.5t102.5 19.5t102 -19.5t79 -53.5
t51.5 -79.5t18.5 -97.5t-18.5 -97.5t-51.5 -79.5t-79 -54t-102 -20t-102.5 20t-79.5 54t-51.5 79.5t-18.5 97.5zM224 682h121l106 -142h-119l-48 66l-47 -66h-119z" />
    <glyph glyph-name="otilde" unicode="&#xf5;" horiz-adv-x="567" 
d="M284 109q27 0 48 10.5t35.5 28.5t21.5 40.5t7 46.5t-7 46.5t-21.5 40t-35.5 28t-48 10.5t-48.5 -10.5t-35.5 -28t-21.5 -40t-7.5 -46.5t7.5 -46.5t21.5 -40.5t35.5 -28.5t48.5 -10.5zM32 235q0 52 18.5 97.5t51.5 79.5t79.5 53.5t102.5 19.5t102 -19.5t79 -53.5
t51.5 -79.5t18.5 -97.5t-18.5 -97.5t-51.5 -79.5t-79 -54t-102 -20t-102.5 20t-79.5 54t-51.5 79.5t-18.5 97.5zM86 620q20 22 52.5 41t71.5 19q19 0 35.5 -6.5t31.5 -14.5t31 -14.5t35 -6.5q30 0 51.5 12t38.5 25l51 -79q-20 -22 -52.5 -41.5t-71.5 -19.5q-20 0 -36 6.5
t-31 14.5t-31 14.5t-35 6.5q-30 0 -51.5 -11.5t-38.5 -24.5z" />
    <glyph glyph-name="odieresis" unicode="&#xf6;" horiz-adv-x="567" 
d="M284 109q27 0 48 10.5t35.5 28.5t21.5 40.5t7 46.5t-7 46.5t-21.5 40t-35.5 28t-48 10.5t-48.5 -10.5t-35.5 -28t-21.5 -40t-7.5 -46.5t7.5 -46.5t21.5 -40.5t35.5 -28.5t48.5 -10.5zM32 235q0 52 18.5 97.5t51.5 79.5t79.5 53.5t102.5 19.5t102 -19.5t79 -53.5
t51.5 -79.5t18.5 -97.5t-18.5 -97.5t-51.5 -79.5t-79 -54t-102 -20t-102.5 20t-79.5 54t-51.5 79.5t-18.5 97.5zM319 668h123v-114h-123v114zM126 668h123v-114h-123v114z" />
    <glyph glyph-name="divide" unicode="&#xf7;" 
d="M209 207h127v-118h-127v118zM209 549h127v-118h-127v118zM73 376h399v-115h-399v115z" />
    <glyph glyph-name="oslash" unicode="&#xf8;" horiz-adv-x="567" 
d="M107 52q-35 35 -55 82t-20 101q0 52 18.5 97.5t51.5 79.5t79.5 53.5t102.5 19.5q59 0 108 -23l44 63l68 -45l-44 -64q35 -35 55 -81t20 -100q0 -52 -18.5 -97.5t-51.5 -79.5t-79 -54t-102 -20q-59 0 -109 22l-43 -62l-68 45zM248 111q18 -5 36 -5q28 0 49.5 11t36 29
t22 41.5t7.5 47.5q0 37 -17 68zM319 357q-17 6 -35 6q-28 0 -49.5 -11t-36 -29t-22 -41t-7.5 -47q0 -19 4 -37t13 -33z" />
    <glyph glyph-name="ugrave" unicode="&#xf9;" horiz-adv-x="561" 
d="M51 469h144v-270q0 -40 19.5 -63t57.5 -23q22 0 39 8.5t29 22.5t18 33t6 39v253h143v-469h-138l-4 50q-23 -27 -60.5 -44.5t-78.5 -17.5q-81 0 -128 48t-47 142v291zM158 682h143l48 -142h-106z" />
    <glyph glyph-name="uacute" unicode="&#xfa;" horiz-adv-x="561" 
d="M51 469h144v-270q0 -40 19.5 -63t57.5 -23q22 0 39 8.5t29 22.5t18 33t6 39v253h143v-469h-138l-4 50q-23 -27 -60.5 -44.5t-78.5 -17.5q-81 0 -128 48t-47 142v291zM267 682h142l-84 -142h-106z" />
    <glyph glyph-name="ucircumflex" unicode="&#xfb;" horiz-adv-x="561" 
d="M51 469h144v-270q0 -40 19.5 -63t57.5 -23q22 0 39 8.5t29 22.5t18 33t6 39v253h143v-469h-138l-4 50q-23 -27 -60.5 -44.5t-78.5 -17.5q-81 0 -128 48t-47 142v291zM220 682h121l106 -142h-119l-48 66l-47 -66h-119z" />
    <glyph glyph-name="udieresis" unicode="&#xfc;" horiz-adv-x="561" 
d="M51 469h144v-270q0 -40 19.5 -63t57.5 -23q22 0 39 8.5t29 22.5t18 33t6 39v253h143v-469h-138l-4 50q-23 -27 -60.5 -44.5t-78.5 -17.5q-81 0 -128 48t-47 142v291zM317 668h123v-114h-123v114zM124 668h123v-114h-123v114z" />
    <glyph glyph-name="yacute" unicode="&#xfd;" horiz-adv-x="550" 
d="M79 -74q12 -9 26.5 -16t31.5 -7q23 0 38.5 14.5t29.5 49.5l14 38l-214 464h164l117 -296l106 296h153l-192 -466q-16 -39 -31.5 -77.5t-38 -69t-55 -49.5t-81.5 -19q-38 0 -69 10t-57 29zM273 682h142l-84 -142h-106z" />
    <glyph glyph-name="thorn" unicode="&#xfe;" horiz-adv-x="569" 
d="M53 667h143v-246q23 29 60 43t74 14q51 0 90 -20t65 -53t39 -76t13 -89q0 -66 -21.5 -114t-56.5 -79.5t-79 -46.5t-88 -15q-34 0 -56 6t-40 12v-204h-143v868zM196 124q28 -19 83 -19q53 0 83.5 35.5t30.5 96.5q0 23 -5.5 44.5t-17 38t-30 26t-45.5 9.5q-24 0 -42.5 -9
t-31 -24t-19 -34t-6.5 -39v-125z" />
    <glyph glyph-name="ydieresis" unicode="&#xff;" horiz-adv-x="550" 
d="M79 -74q12 -9 26.5 -16t31.5 -7q23 0 38.5 14.5t29.5 49.5l14 38l-214 464h164l117 -296l106 296h153l-192 -466q-16 -39 -31.5 -77.5t-38 -69t-55 -49.5t-81.5 -19q-38 0 -69 10t-57 29zM312 668h123v-114h-123v114zM119 668h123v-114h-123v114z" />
    <glyph glyph-name="Amacron" unicode="&#x100;" horiz-adv-x="674" 
d="M256 667h167l244 -667h-165l-51 153h-235l-51 -153h-158zM415 270l-81 252l-83 -252h164zM178 848h317v-106h-317v106z" />
    <glyph glyph-name="amacron" unicode="&#x101;" horiz-adv-x="515" 
d="M325 44q-24 -28 -60.5 -43t-81.5 -15q-25 0 -52.5 7t-51 23.5t-39 44.5t-15.5 70q0 41 16.5 73t45.5 53.5t68.5 32.5t85.5 11q25 0 50.5 -1t33.5 -3v10q0 18 -7.5 30.5t-20 21t-28.5 12t-34 3.5q-48 0 -79.5 -12t-53.5 -27l-59 88q15 11 34 22t45 20t58.5 14.5t74.5 5.5
q107 0 158 -57.5t51 -154.5v-273h-135zM325 207q-5 1 -19 2.5t-32 1.5q-60 0 -85 -17t-25 -48q0 -58 70 -58q17 0 33.5 5.5t29 15.5t20.5 25t8 35v38zM123 654h273v-102h-273v102z" />
    <glyph glyph-name="Abreve" unicode="&#x102;" horiz-adv-x="674" 
d="M256 667h167l244 -667h-165l-51 153h-235l-51 -153h-158zM415 270l-81 252l-83 -252h164zM279 863q1 -23 15.5 -40t41.5 -17t41.5 17t14.5 40h106q0 -65 -43.5 -107t-118.5 -42t-118.5 42t-43.5 107h105z" />
    <glyph glyph-name="abreve" unicode="&#x103;" horiz-adv-x="515" 
d="M325 44q-24 -28 -60.5 -43t-81.5 -15q-25 0 -52.5 7t-51 23.5t-39 44.5t-15.5 70q0 41 16.5 73t45.5 53.5t68.5 32.5t85.5 11q25 0 50.5 -1t33.5 -3v10q0 18 -7.5 30.5t-20 21t-28.5 12t-34 3.5q-48 0 -79.5 -12t-53.5 -27l-59 88q15 11 34 22t45 20t58.5 14.5t74.5 5.5
q107 0 158 -57.5t51 -154.5v-273h-135zM325 207q-5 1 -19 2.5t-32 1.5q-60 0 -85 -17t-25 -48q0 -58 70 -58q17 0 33.5 5.5t29 15.5t20.5 25t8 35v38zM199 682q1 -22 12.5 -39t39.5 -17q29 0 40.5 17t11.5 39h104q0 -31 -11 -57t-31.5 -45t-49.5 -29.5t-64 -10.5t-64 10.5
t-49 29.5t-31.5 45t-11.5 57h104z" />
    <glyph glyph-name="Aogonek" unicode="&#x104;" horiz-adv-x="674" 
d="M256 667h167l244 -667h-165l-51 153h-235l-51 -153h-158zM415 270l-81 252l-83 -252h164zM667 0q-8 -8 -16.5 -18t-16 -21t-12 -21.5t-4.5 -19.5q0 -22 25 -22q14 0 26.5 4.5t23.5 12.5l31 -80q-26 -17 -56 -26.5t-59 -9.5q-47 0 -74.5 20.5t-27.5 62.5q0 32 19 62t44 56
h97z" />
    <glyph glyph-name="aogonek" unicode="&#x105;" horiz-adv-x="515" 
d="M325 44q-24 -28 -60.5 -43t-81.5 -15q-25 0 -52.5 7t-51 23.5t-39 44.5t-15.5 70q0 41 16.5 73t45.5 53.5t68.5 32.5t85.5 11q25 0 50.5 -1t33.5 -3v10q0 18 -7.5 30.5t-20 21t-28.5 12t-34 3.5q-48 0 -79.5 -12t-53.5 -27l-59 88q15 11 34 22t45 20t58.5 14.5t74.5 5.5
q107 0 158 -57.5t51 -154.5v-273h-135zM325 207q-5 1 -19 2.5t-32 1.5q-60 0 -85 -17t-25 -48q0 -58 70 -58q17 0 33.5 5.5t29 15.5t20.5 25t8 35v38zM464 0q-8 -8 -16.5 -18t-16.5 -20.5t-13 -21t-5 -18.5q0 -21 25 -21q14 0 27 4.5t25 12.5l30 -78q-25 -17 -55 -26t-58 -9
q-45 0 -72 20t-27 60q0 32 19 61t42 54h95z" />
    <glyph glyph-name="Cacute" unicode="&#x106;" horiz-adv-x="681" 
d="M667 123q-21 -29 -51 -54.5t-66.5 -44.5t-79 -30t-88.5 -11q-76 0 -139 26t-108.5 72.5t-70.5 110t-25 139.5q0 74 25 138.5t70.5 112t109 75t140.5 27.5q93 0 162.5 -34t115.5 -98l-103 -99q-30 42 -71 67.5t-98 25.5q-45 0 -81 -16.5t-61 -45.5t-38.5 -67.5
t-13.5 -81.5q0 -44 13.5 -82t38.5 -66t60 -44t79 -16q36 0 62.5 7.5t47 20t36.5 29t31 33.5zM381 873h163l-119 -156h-117z" />
    <glyph glyph-name="cacute" unicode="&#x107;" horiz-adv-x="487" 
d="M474 62q-29 -32 -76.5 -55t-112.5 -23q-57 0 -103.5 18.5t-79.5 52t-51.5 79.5t-18.5 101q0 52 19 97.5t52.5 79.5t80 53.5t101.5 19.5q64 0 111 -21t79 -56l-87 -94q-16 18 -39 32t-61 14q-26 0 -46.5 -10.5t-35 -27.5t-22 -39.5t-7.5 -47.5q0 -23 7.5 -45.5t22 -40
t35 -28.5t46.5 -11q37 0 62 14.5t40 31.5zM267 682h142l-84 -142h-106z" />
    <glyph glyph-name="Ccircumflex" unicode="&#x108;" horiz-adv-x="681" 
d="M667 123q-21 -29 -51 -54.5t-66.5 -44.5t-79 -30t-88.5 -11q-76 0 -139 26t-108.5 72.5t-70.5 110t-25 139.5q0 74 25 138.5t70.5 112t109 75t140.5 27.5q93 0 162.5 -34t115.5 -98l-103 -99q-30 42 -71 67.5t-98 25.5q-45 0 -81 -16.5t-61 -45.5t-38.5 -67.5
t-13.5 -81.5q0 -44 13.5 -82t38.5 -66t60 -44t79 -16q36 0 62.5 7.5t47 20t36.5 29t31 33.5zM318 873h120l113 -156h-120l-53 75l-54 -75h-119z" />
    <glyph glyph-name="ccircumflex" unicode="&#x109;" horiz-adv-x="487" 
d="M474 62q-29 -32 -76.5 -55t-112.5 -23q-57 0 -103.5 18.5t-79.5 52t-51.5 79.5t-18.5 101q0 52 19 97.5t52.5 79.5t80 53.5t101.5 19.5q64 0 111 -21t79 -56l-87 -94q-16 18 -39 32t-61 14q-26 0 -46.5 -10.5t-35 -27.5t-22 -39.5t-7.5 -47.5q0 -23 7.5 -45.5t22 -40
t35 -28.5t46.5 -11q37 0 62 14.5t40 31.5zM220 682h121l106 -142h-119l-48 66l-47 -66h-119z" />
    <glyph glyph-name="Cdotaccent" unicode="&#x10a;" horiz-adv-x="681" 
d="M667 123q-21 -29 -51 -54.5t-66.5 -44.5t-79 -30t-88.5 -11q-76 0 -139 26t-108.5 72.5t-70.5 110t-25 139.5q0 74 25 138.5t70.5 112t109 75t140.5 27.5q93 0 162.5 -34t115.5 -98l-103 -99q-30 42 -71 67.5t-98 25.5q-45 0 -81 -16.5t-61 -45.5t-38.5 -67.5
t-13.5 -81.5q0 -44 13.5 -82t38.5 -66t60 -44t79 -16q36 0 62.5 7.5t47 20t36.5 29t31 33.5zM311 860h139v-130h-139v130z" />
    <glyph glyph-name="cdotaccent" unicode="&#x10b;" horiz-adv-x="487" 
d="M474 62q-29 -32 -76.5 -55t-112.5 -23q-57 0 -103.5 18.5t-79.5 52t-51.5 79.5t-18.5 101q0 52 19 97.5t52.5 79.5t80 53.5t101.5 19.5q64 0 111 -21t79 -56l-87 -94q-16 18 -39 32t-61 14q-26 0 -46.5 -10.5t-35 -27.5t-22 -39.5t-7.5 -47.5q0 -23 7.5 -45.5t22 -40
t35 -28.5t46.5 -11q37 0 62 14.5t40 31.5zM205 679h154v-129h-154v129z" />
    <glyph glyph-name="Ccaron" unicode="&#x10c;" horiz-adv-x="681" 
d="M667 123q-21 -29 -51 -54.5t-66.5 -44.5t-79 -30t-88.5 -11q-76 0 -139 26t-108.5 72.5t-70.5 110t-25 139.5q0 74 25 138.5t70.5 112t109 75t140.5 27.5q93 0 162.5 -34t115.5 -98l-103 -99q-30 42 -71 67.5t-98 25.5q-45 0 -81 -16.5t-61 -45.5t-38.5 -67.5
t-13.5 -81.5q0 -44 13.5 -82t38.5 -66t60 -44t79 -16q36 0 62.5 7.5t47 20t36.5 29t31 33.5zM215 873h120l53 -75l54 75h119l-113 -156h-120z" />
    <glyph glyph-name="ccaron" unicode="&#x10d;" horiz-adv-x="487" 
d="M474 62q-29 -32 -76.5 -55t-112.5 -23q-57 0 -103.5 18.5t-79.5 52t-51.5 79.5t-18.5 101q0 52 19 97.5t52.5 79.5t80 53.5t101.5 19.5q64 0 111 -21t79 -56l-87 -94q-16 18 -39 32t-61 14q-26 0 -46.5 -10.5t-35 -27.5t-22 -39.5t-7.5 -47.5q0 -23 7.5 -45.5t22 -40
t35 -28.5t46.5 -11q37 0 62 14.5t40 31.5zM110 682h118l49 -67l47 67h119l-106 -142h-122z" />
    <glyph glyph-name="Dcaron" unicode="&#x10e;" horiz-adv-x="712" 
d="M65 667h252q77 0 142.5 -20t113 -61t74 -105t26.5 -151q0 -83 -27 -144.5t-74.5 -103t-113 -62t-142.5 -20.5h-251v667zM308 134q100 0 154 52.5t54 144.5q0 46 -12.5 83.5t-38 64t-64.5 41t-93 14.5h-92v-400h92zM143 873h120l53 -75l54 75h119l-113 -156h-120z" />
    <glyph glyph-name="dcaron" unicode="&#x10f;" horiz-adv-x="656" 
d="M372 47q-22 -26 -56.5 -43.5t-78.5 -17.5q-43 0 -80.5 17t-65 48.5t-43.5 76t-16 100.5q0 63 22.5 110.5t58 78.5t79 46.5t85.5 15.5q34 0 53 -4.5t39 -11.5v204h143v-667h-134zM369 340q-15 9 -32.5 13t-43.5 4q-55 0 -85.5 -37t-30.5 -95q0 -51 25 -83.5t75 -32.5
q24 0 41.5 8.5t29 22.5t16.5 33t5 39v128zM569 667h127l-37 -181h-90v181z" />
    <glyph glyph-name="Dcroat" unicode="&#x110;" horiz-adv-x="712" 
d="M65 288h-64v96h64v283h252q77 0 142.5 -20t113 -61t74 -105t26.5 -151q0 -83 -27 -144.5t-74.5 -103t-113 -62t-142.5 -20.5h-251v288zM309 134q100 0 154 52.5t54 144.5q0 46 -12 83.5t-37.5 64t-65 41t-93.5 14.5h-93v-150h132v-96h-132v-154h93z" />
    <glyph glyph-name="dcroat" unicode="&#x111;" horiz-adv-x="565" 
d="M372 47q-22 -26 -56.5 -43.5t-78.5 -17.5q-43 0 -80.5 16t-65 46.5t-43.5 74t-16 99.5q0 62 22.5 107.5t57.5 75t79 44t86 14.5q34 0 53 -4.5t39 -11.5v73h-161v83h161v64h143v-64h56v-83h-56v-520h-136zM369 324q-15 8 -33.5 12.5t-42.5 4.5q-56 0 -86 -33.5t-30 -88.5
q0 -51 25 -80.5t75 -29.5q24 0 41.5 8.5t29 22.5t16.5 33t5 39v112z" />
    <glyph glyph-name="Emacron" unicode="&#x112;" horiz-adv-x="580" 
d="M65 667h456v-132h-305v-130h237v-128h-237v-144h327v-133h-478v667zM143 848h317v-106h-317v106z" />
    <glyph glyph-name="emacron" unicode="&#x113;" horiz-adv-x="535" 
d="M496 51q-8 -5 -24 -16.5t-41.5 -22.5t-60.5 -19.5t-80 -8.5q-60 0 -108 18.5t-81.5 51.5t-51 79.5t-17.5 102.5q0 49 16.5 94.5t47.5 79.5t76 54.5t102 20.5t100 -20t72.5 -55.5t44.5 -85t15 -108.5v-24h-334q1 -38 33.5 -66.5t89.5 -28.5q56 0 91 16.5t51 28.5zM370 284
q0 15 -6 30.5t-18 28.5t-30 21.5t-43 8.5t-44 -8.5t-31.5 -21.5t-19 -28.5t-6.5 -30.5h198zM143 654h273v-102h-273v102z" />
    <glyph glyph-name="Ebreve" unicode="&#x114;" horiz-adv-x="580" 
d="M65 667h456v-132h-305v-130h237v-128h-237v-144h327v-133h-478v667zM242 863q1 -23 15.5 -40t41.5 -17t41.5 17t14.5 40h106q0 -65 -43.5 -107t-118.5 -42t-118.5 42t-43.5 107h105z" />
    <glyph glyph-name="ebreve" unicode="&#x115;" horiz-adv-x="535" 
d="M496 51q-8 -5 -24 -16.5t-41.5 -22.5t-60.5 -19.5t-80 -8.5q-60 0 -108 18.5t-81.5 51.5t-51 79.5t-17.5 102.5q0 49 16.5 94.5t47.5 79.5t76 54.5t102 20.5t100 -20t72.5 -55.5t44.5 -85t15 -108.5v-24h-334q1 -38 33.5 -66.5t89.5 -28.5q56 0 91 16.5t51 28.5zM370 284
q0 15 -6 30.5t-18 28.5t-30 21.5t-43 8.5t-44 -8.5t-31.5 -21.5t-19 -28.5t-6.5 -30.5h198zM222 682q1 -22 12.5 -39t39.5 -17q29 0 40.5 17t11.5 39h104q0 -31 -11 -57t-31.5 -45t-49.5 -29.5t-64 -10.5t-64 10.5t-49 29.5t-31.5 45t-11.5 57h104z" />
    <glyph glyph-name="Edotaccent" unicode="&#x116;" horiz-adv-x="580" 
d="M65 667h456v-132h-305v-130h237v-128h-237v-144h327v-133h-478v667zM229 860h139v-130h-139v130z" />
    <glyph glyph-name="edotaccent" unicode="&#x117;" horiz-adv-x="535" 
d="M496 51q-8 -5 -24 -16.5t-41.5 -22.5t-60.5 -19.5t-80 -8.5q-60 0 -108 18.5t-81.5 51.5t-51 79.5t-17.5 102.5q0 49 16.5 94.5t47.5 79.5t76 54.5t102 20.5t100 -20t72.5 -55.5t44.5 -85t15 -108.5v-24h-334q1 -38 33.5 -66.5t89.5 -28.5q56 0 91 16.5t51 28.5zM370 284
q0 15 -6 30.5t-18 28.5t-30 21.5t-43 8.5t-44 -8.5t-31.5 -21.5t-19 -28.5t-6.5 -30.5h198zM199 679h154v-129h-154v129z" />
    <glyph glyph-name="Eogonek" unicode="&#x118;" horiz-adv-x="580" 
d="M65 667h456v-132h-305v-130h237v-128h-237v-144h327v-133h-478v667zM492 0q-8 -8 -16.5 -18t-16 -21t-12 -21.5t-4.5 -19.5q0 -22 25 -22q14 0 26.5 4.5t23.5 12.5l31 -80q-26 -17 -56 -26.5t-59 -9.5q-47 0 -74.5 20.5t-27.5 62.5q0 32 19 62t44 56h97z" />
    <glyph glyph-name="eogonek" unicode="&#x119;" horiz-adv-x="535" 
d="M482 -160q-25 -17 -55 -26t-58 -9q-45 0 -72 20t-27 61q0 26 13.5 51.5t33.5 47.5q-5 -1 -14 -1h-13q-60 0 -108 18.5t-81.5 51.5t-51 79.5t-17.5 102.5q0 49 16.5 94.5t47.5 79.5t76 54.5t102 20.5t100 -20t72.5 -55.5t44.5 -85t15 -108.5v-24h-334q1 -38 33.5 -66.5
t89.5 -28.5q56 0 91 16.5t51 28.5l59 -91q-56 -33 -88.5 -65.5t-32.5 -59.5q0 -25 25 -25q14 0 27 5t25 13zM370 284q0 15 -6 30.5t-18 28.5t-30 21.5t-43 8.5t-44 -8.5t-31.5 -21.5t-19 -28.5t-6.5 -30.5h198z" />
    <glyph glyph-name="Ecaron" unicode="&#x11a;" horiz-adv-x="580" 
d="M65 667h456v-132h-305v-130h237v-128h-237v-144h327v-133h-478v667zM130 873h120l53 -75l54 75h119l-113 -156h-120z" />
    <glyph glyph-name="ecaron" unicode="&#x11b;" horiz-adv-x="535" 
d="M496 51q-8 -5 -24 -16.5t-41.5 -22.5t-60.5 -19.5t-80 -8.5q-60 0 -108 18.5t-81.5 51.5t-51 79.5t-17.5 102.5q0 49 16.5 94.5t47.5 79.5t76 54.5t102 20.5t100 -20t72.5 -55.5t44.5 -85t15 -108.5v-24h-334q1 -38 33.5 -66.5t89.5 -28.5q56 0 91 16.5t51 28.5zM370 284
q0 15 -6 30.5t-18 28.5t-30 21.5t-43 8.5t-44 -8.5t-31.5 -21.5t-19 -28.5t-6.5 -30.5h198zM108 682h118l49 -67l47 67h119l-106 -142h-122z" />
    <glyph glyph-name="Gcircumflex" unicode="&#x11c;" horiz-adv-x="723" 
d="M410 367h257v-289q-52 -45 -121.5 -69.5t-158.5 -24.5q-82 0 -146.5 25.5t-109.5 71.5t-68.5 110t-23.5 141q0 75 25 139t71 111.5t109 74.5t140 27q91 0 159.5 -33.5t113.5 -93.5l-102 -97q-32 38 -70.5 62t-94.5 24q-46 0 -82 -17t-61 -46t-38 -68t-13 -83
q0 -48 15 -87t42 -66.5t63.5 -42.5t79.5 -15q40 0 73 9.5t59 30.5v84h-118v122zM314 873h120l113 -156h-120l-53 75l-54 -75h-119z" />
    <glyph glyph-name="gcircumflex" unicode="&#x11d;" horiz-adv-x="561" 
d="M130 -60q28 -17 59.5 -26.5t69.5 -9.5q49 0 77 26t28 78v33q-45 -39 -120 -39q-50 0 -89.5 16.5t-66.5 46.5t-41.5 71t-14.5 90q0 57 19.5 103.5t55 80t85 51.5t110.5 18q58 0 110.5 -10t94.5 -25v-429q0 -116 -64 -171.5t-175 -55.5q-63 0 -110 12t-86 38zM365 350
q-14 5 -28 7.5t-37 2.5q-31 0 -54 -10.5t-38.5 -28t-23 -41t-7.5 -49.5q0 -51 24.5 -81t71.5 -30q44 0 68 21.5t24 67.5v141zM234 682h121l106 -142h-119l-48 66l-47 -66h-119z" />
    <glyph glyph-name="Gbreve" unicode="&#x11e;" horiz-adv-x="723" 
d="M410 367h257v-289q-52 -45 -121.5 -69.5t-158.5 -24.5q-82 0 -146.5 25.5t-109.5 71.5t-68.5 110t-23.5 141q0 75 25 139t71 111.5t109 74.5t140 27q91 0 159.5 -33.5t113.5 -93.5l-102 -97q-32 38 -70.5 62t-94.5 24q-46 0 -82 -17t-61 -46t-38 -68t-13 -83
q0 -48 15 -87t42 -66.5t63.5 -42.5t79.5 -15q40 0 73 9.5t59 30.5v84h-118v122zM319 863q1 -23 15.5 -40t41.5 -17t41.5 17t14.5 40h106q0 -65 -43.5 -107t-118.5 -42t-118.5 42t-43.5 107h105z" />
    <glyph glyph-name="gbreve" unicode="&#x11f;" horiz-adv-x="561" 
d="M130 -60q28 -17 59.5 -26.5t69.5 -9.5q49 0 77 26t28 78v33q-45 -39 -120 -39q-50 0 -89.5 16.5t-66.5 46.5t-41.5 71t-14.5 90q0 57 19.5 103.5t55 80t85 51.5t110.5 18q58 0 110.5 -10t94.5 -25v-429q0 -116 -64 -171.5t-175 -55.5q-63 0 -110 12t-86 38zM365 350
q-14 5 -28 7.5t-37 2.5q-31 0 -54 -10.5t-38.5 -28t-23 -41t-7.5 -49.5q0 -51 24.5 -81t71.5 -30q44 0 68 21.5t24 67.5v141zM248 682q1 -22 12.5 -39t39.5 -17q29 0 40.5 17t11.5 39h104q0 -31 -11 -57t-31.5 -45t-49.5 -29.5t-64 -10.5t-64 10.5t-49 29.5t-31.5 45
t-11.5 57h104z" />
    <glyph glyph-name="Gdotaccent" unicode="&#x120;" horiz-adv-x="723" 
d="M410 367h257v-289q-52 -45 -121.5 -69.5t-158.5 -24.5q-82 0 -146.5 25.5t-109.5 71.5t-68.5 110t-23.5 141q0 75 25 139t71 111.5t109 74.5t140 27q91 0 159.5 -33.5t113.5 -93.5l-102 -97q-32 38 -70.5 62t-94.5 24q-46 0 -82 -17t-61 -46t-38 -68t-13 -83
q0 -48 15 -87t42 -66.5t63.5 -42.5t79.5 -15q40 0 73 9.5t59 30.5v84h-118v122zM310 860h139v-130h-139v130z" />
    <glyph glyph-name="gdotaccent" unicode="&#x121;" horiz-adv-x="561" 
d="M130 -60q28 -17 59.5 -26.5t69.5 -9.5q49 0 77 26t28 78v33q-45 -39 -120 -39q-50 0 -89.5 16.5t-66.5 46.5t-41.5 71t-14.5 90q0 57 19.5 103.5t55 80t85 51.5t110.5 18q58 0 110.5 -10t94.5 -25v-429q0 -116 -64 -171.5t-175 -55.5q-63 0 -110 12t-86 38zM365 350
q-14 5 -28 7.5t-37 2.5q-31 0 -54 -10.5t-38.5 -28t-23 -41t-7.5 -49.5q0 -51 24.5 -81t71.5 -30q44 0 68 21.5t24 67.5v141zM229 679h154v-129h-154v129z" />
    <glyph glyph-name="uni0122" unicode="&#x122;" horiz-adv-x="723" 
d="M410 367h257v-289q-52 -45 -121.5 -69.5t-158.5 -24.5q-82 0 -146.5 25.5t-109.5 71.5t-68.5 110t-23.5 141q0 75 25 139t71 111.5t109 74.5t140 27q91 0 159.5 -33.5t113.5 -93.5l-102 -97q-32 38 -70.5 62t-94.5 24q-46 0 -82 -17t-61 -46t-38 -68t-13 -83
q0 -48 15 -87t42 -66.5t63.5 -42.5t79.5 -15q40 0 73 9.5t59 30.5v84h-118v122zM312 -51h156l-94 -158h-115z" />
    <glyph glyph-name="uni0123" unicode="&#x123;" horiz-adv-x="561" 
d="M130 -60q28 -17 59.5 -26.5t69.5 -9.5q49 0 77 26t28 78v33q-45 -39 -120 -39q-50 0 -89.5 16.5t-66.5 46.5t-41.5 71t-14.5 90q0 57 19.5 103.5t55 80t85 51.5t110.5 18q58 0 110.5 -10t94.5 -25v-429q0 -116 -64 -171.5t-175 -55.5q-63 0 -110 12t-86 38zM365 350
q-14 5 -28 7.5t-37 2.5q-31 0 -54 -10.5t-38.5 -28t-23 -41t-7.5 -49.5q0 -51 24.5 -81t71.5 -30q44 0 68 21.5t24 67.5v141zM307 682h106l-48 -142h-143z" />
    <glyph glyph-name="Hcircumflex" unicode="&#x124;" horiz-adv-x="721" 
d="M65 667h151v-256h289v256h151v-667h-151v274h-289v-274h-151v667zM299 873h120l113 -156h-120l-53 75l-54 -75h-119z" />
    <glyph glyph-name="hcircumflex" unicode="&#x125;" horiz-adv-x="564" 
d="M53 667h143v-243q23 27 61 41.5t77 14.5q81 0 129.5 -48t48.5 -142v-290h-143v268q0 41 -21 64t-56 23q-23 0 -41 -8.5t-30 -22.5t-18 -32.5t-6 -39.5v-252h-144v667zM66 873h120l113 -156h-120l-53 75l-54 -75h-119z" />
    <glyph glyph-name="Hbar" unicode="&#x126;" horiz-adv-x="725" 
d="M67 486h-64v88h64v93h151v-93h289v93h151v-93h64v-88h-64v-486h-151v259h-289v-259h-151v486zM507 396v90h-289v-90h289z" />
    <glyph glyph-name="hbar" unicode="&#x127;" horiz-adv-x="570" 
d="M59 521h-56v82h56v64h143v-64h161v-82h-161v-112q23 27 61 41.5t77 14.5q81 0 129.5 -48t48.5 -142v-275h-143v253q0 41 -21 64t-56 23q-23 0 -41 -8.5t-30 -22.5t-18 -32.5t-6 -39.5v-237h-144v521z" />
    <glyph glyph-name="Itilde" unicode="&#x128;" horiz-adv-x="281" 
d="M65 667h151v-667h-151v667zM-63 806q21 23 54.5 42.5t74.5 19.5q20 0 36.5 -6.5t32.5 -14.5t32 -14.5t36 -6.5q31 0 53.5 11.5t39.5 25.5l54 -82q-22 -23 -55 -43t-74 -20q-20 0 -36.5 6.5t-32.5 15t-32 15t-36 6.5q-32 0 -54 -11.5t-39 -25.5z" />
    <glyph glyph-name="itilde" unicode="&#x129;" horiz-adv-x="258" 
d="M57 469h144v-469h-144v469zM-68 620q20 22 52.5 41t71.5 19q19 0 35.5 -6.5t31.5 -14.5t31 -14.5t35 -6.5q30 0 51.5 12t38.5 25l51 -79q-20 -22 -52.5 -41.5t-71.5 -19.5q-20 0 -36 6.5t-31 14.5t-31 14.5t-35 6.5q-30 0 -51.5 -11.5t-38.5 -24.5z" />
    <glyph glyph-name="Imacron" unicode="&#x12a;" horiz-adv-x="281" 
d="M65 667h151v-667h-151v667zM-17 848h317v-106h-317v106z" />
    <glyph glyph-name="imacron" unicode="&#x12b;" horiz-adv-x="258" 
d="M57 469h144v-469h-144v469zM-7 654h273v-102h-273v102z" />
    <glyph glyph-name="Ibreve" unicode="&#x12c;" horiz-adv-x="281" 
d="M65 667h151v-667h-151v667zM84 863q1 -23 15.5 -40t41.5 -17t41.5 17t14.5 40h106q0 -65 -43.5 -107t-118.5 -42t-118.5 42t-43.5 107h105z" />
    <glyph glyph-name="ibreve" unicode="&#x12d;" horiz-adv-x="258" 
d="M57 469h144v-469h-144v469zM79 682q1 -22 12.5 -39t39.5 -17q29 0 40.5 17t11.5 39h104q0 -31 -11 -57t-31.5 -45t-49.5 -29.5t-64 -10.5t-64 10.5t-49 29.5t-31.5 45t-11.5 57h104z" />
    <glyph glyph-name="Iogonek" unicode="&#x12e;" horiz-adv-x="281" 
d="M65 667h151v-667h-151v667zM217 0q-8 -8 -16.5 -18t-16 -21t-12 -21.5t-4.5 -19.5q0 -22 25 -22q14 0 26.5 4.5t23.5 12.5l31 -80q-26 -17 -56 -26.5t-59 -9.5q-47 0 -74.5 20.5t-27.5 62.5q0 32 19 62t44 56h97z" />
    <glyph glyph-name="iogonek" unicode="&#x12f;" horiz-adv-x="258" 
d="M52 667h154v-129h-154v129zM57 469h144v-469h-144v469zM202 0q-8 -8 -16.5 -18t-16.5 -20.5t-13 -21t-5 -18.5q0 -21 25 -21q14 0 27 4.5t25 12.5l30 -78q-25 -17 -55 -26t-58 -9q-45 0 -72 20t-27 60q0 32 19 61t42 54h95z" />
    <glyph glyph-name="Idotaccent" unicode="&#x130;" horiz-adv-x="281" 
d="M65 667h151v-667h-151v667zM72 860h139v-130h-139v130z" />
    <glyph glyph-name="dotlessi" unicode="&#x131;" horiz-adv-x="258" 
d="M57 469h144v-469h-144v469z" />
    <glyph glyph-name="IJ" unicode="&#x132;" horiz-adv-x="817" 
d="M65 667h151v-667h-151v667zM401 174q27 -32 54.5 -45.5t59.5 -13.5q42 0 66.5 25t24.5 73v454h151v-464q0 -57 -19 -99t-51 -69t-73.5 -40t-87.5 -13q-145 0 -223 99z" />
    <glyph glyph-name="ij" unicode="&#x133;" horiz-adv-x="511" 
d="M52 667h154v-129h-154v129zM57 469h144v-469h-144v469zM304 667h154v-129h-154v129zM192 -60q11 -7 25.5 -12.5t31.5 -5.5q34 0 47.5 21t13.5 59v467h143v-445q0 -44 -7 -84.5t-27 -71.5t-55 -49.5t-91 -18.5q-43 0 -77 12.5t-57 30.5z" />
    <glyph glyph-name="Jcircumflex" unicode="&#x134;" horiz-adv-x="524" 
d="M108 174q27 -32 54.5 -45.5t59.5 -13.5q42 0 66.5 25t24.5 73v454h151v-464q0 -57 -19 -99t-51 -69t-73.5 -40t-87.5 -13q-145 0 -223 99zM328 873h120l113 -156h-120l-53 75l-54 -75h-119z" />
    <glyph glyph-name="jcircumflex" unicode="&#x135;" horiz-adv-x="265" 
d="M-54 -66q11 -7 25.5 -12.5t31.5 -5.5q34 0 47.5 21t13.5 59v473h143v-451q0 -44 -7 -84.5t-27 -71.5t-55 -49.5t-91 -18.5q-43 0 -77 12.5t-57 30.5zM74 682h121l106 -142h-119l-48 66l-47 -66h-119z" />
    <glyph glyph-name="uni0136" unicode="&#x136;" horiz-adv-x="654" 
d="M65 667h151v-266l223 266h175l-229 -260l260 -407h-183l-178 291l-68 -76v-215h-151v667zM254 -51h156l-94 -158h-115z" />
    <glyph glyph-name="uni0137" unicode="&#x137;" horiz-adv-x="533" 
d="M53 667h144v-346l143 148h163l-168 -173l191 -296h-167l-120 198l-42 -43v-155h-144v667zM209 -51h143l-85 -142h-106z" />
    <glyph glyph-name="kgreenlandic" unicode="&#x138;" horiz-adv-x="533" 
d="M53 469h144v-148l143 148h163l-168 -173l191 -296h-167l-120 198l-42 -43v-155h-144v469z" />
    <glyph glyph-name="Lacute" unicode="&#x139;" horiz-adv-x="559" 
d="M65 667h151v-533h319v-134h-470v667zM151 873h163l-119 -156h-117z" />
    <glyph glyph-name="lacute" unicode="&#x13a;" horiz-adv-x="250" 
d="M53 667h144v-667h-144v667zM134 873h163l-119 -156h-117z" />
    <glyph glyph-name="uni013B" unicode="&#x13b;" horiz-adv-x="559" 
d="M65 667h151v-533h319v-134h-470v667zM231 -51h156l-94 -158h-115z" />
    <glyph glyph-name="uni013C" unicode="&#x13c;" horiz-adv-x="250" 
d="M53 667h144v-667h-144v667zM55 -51h143l-85 -142h-106z" />
    <glyph glyph-name="Lcaron" unicode="&#x13d;" horiz-adv-x="559" 
d="M65 667h151v-533h319v-134h-470v667zM301 667h127l-37 -181h-90v181z" />
    <glyph glyph-name="lcaron" unicode="&#x13e;" horiz-adv-x="341" 
d="M53 667h144v-667h-144v667zM254 667h127l-37 -181h-90v181z" />
    <glyph glyph-name="Ldot" unicode="&#x13f;" horiz-adv-x="559" 
d="M65 667h151v-533h319v-134h-470v667zM347 454h139v-130h-139v130z" />
    <glyph glyph-name="ldot" unicode="&#x140;" horiz-adv-x="437" 
d="M53 667h144v-667h-144v667zM278 418h131v-122h-131v122z" />
    <glyph glyph-name="Lslash" unicode="&#x141;" horiz-adv-x="559" 
d="M65 246l-63 -39v115l63 39v306h151v-211l126 79v-114l-126 -79v-208h319v-134h-470v246z" />
    <glyph glyph-name="lslash" unicode="&#x142;" horiz-adv-x="278" 
d="M65 256l-56 -36v106l56 36v305h144v-215l60 38v-105l-60 -39v-346h-144v256z" />
    <glyph glyph-name="Nacute" unicode="&#x143;" horiz-adv-x="712" 
d="M65 667h144l289 -433v433h149v-667h-137l-296 441v-441h-149v667zM355 873h163l-119 -156h-117z" />
    <glyph glyph-name="nacute" unicode="&#x144;" horiz-adv-x="562" 
d="M54 469h138l4 -51q23 28 60.5 45t78.5 17q81 0 128.5 -48t47.5 -142v-290h-144v270q0 39 -19.5 62t-54.5 23q-24 0 -42 -8.5t-30 -22.5t-18 -32.5t-6 -39.5v-252h-143v469zM277 682h142l-84 -142h-106z" />
    <glyph glyph-name="uni0145" unicode="&#x145;" horiz-adv-x="712" 
d="M65 667h144l289 -433v433h149v-667h-137l-296 441v-441h-149v667zM302 -51h156l-94 -158h-115z" />
    <glyph glyph-name="uni0146" unicode="&#x146;" horiz-adv-x="562" 
d="M54 469h138l4 -51q23 28 60.5 45t78.5 17q81 0 128.5 -48t47.5 -142v-290h-144v270q0 39 -19.5 62t-54.5 23q-24 0 -42 -8.5t-30 -22.5t-18 -32.5t-6 -39.5v-252h-143v469zM218 -51h143l-85 -142h-106z" />
    <glyph glyph-name="Ncaron" unicode="&#x147;" horiz-adv-x="712" 
d="M65 667h144l289 -433v433h149v-667h-137l-296 441v-441h-149v667zM179 873h120l53 -75l54 75h119l-113 -156h-120z" />
    <glyph glyph-name="ncaron" unicode="&#x148;" horiz-adv-x="562" 
d="M54 469h138l4 -51q23 28 60.5 45t78.5 17q81 0 128.5 -48t47.5 -142v-290h-144v270q0 39 -19.5 62t-54.5 23q-24 0 -42 -8.5t-30 -22.5t-18 -32.5t-6 -39.5v-252h-143v469zM120 682h118l49 -67l47 67h119l-106 -142h-122z" />
    <glyph glyph-name="napostrophe" unicode="&#x149;" horiz-adv-x="656" 
d="M148 469h138l4 -51q23 28 60.5 45t78.5 17q81 0 128.5 -48t47.5 -142v-290h-144v270q0 39 -19.5 62t-54.5 23q-24 0 -42 -8.5t-30 -22.5t-18 -32.5t-6 -39.5v-252h-143v469zM18 682h128l-41 -149h-94z" />
    <glyph glyph-name="Eng" unicode="&#x14a;" horiz-adv-x="712" 
d="M65 667h144l289 -433v433h149v-655q0 -45 -8.5 -83.5t-29 -67.5t-55.5 -45.5t-89 -16.5q-42 0 -77 12.5t-58 26.5l54 99q11 -6 26 -11.5t32 -5.5q32 0 44.5 24t12.5 56v16l-285 425v-441h-149v667z" />
    <glyph glyph-name="eng" unicode="&#x14b;" horiz-adv-x="562" 
d="M249 -59q11 -7 25.5 -12.5t31.5 -5.5q32 0 46.5 19.5t14.5 54.5v273q0 39 -20 62t-55 23q-23 0 -41 -8.5t-30 -22.5t-18 -32.5t-6 -39.5v-252h-144v469h138l5 -51q23 28 60 45t78 17q81 0 128.5 -48t47.5 -142v-266q0 -44 -7 -84.5t-27 -71.5t-55 -49.5t-91 -18.5
q-43 0 -77 12.5t-57 30.5z" />
    <glyph glyph-name="Omacron" unicode="&#x14c;" horiz-adv-x="772" 
d="M386 -17q-74 0 -137.5 27t-110 74t-73 111.5t-26.5 138.5q0 75 26.5 139t73 111t110 74t137.5 27t137.5 -27t110 -74t73 -111t26.5 -139q0 -74 -26.5 -138.5t-73 -111.5t-110 -74t-137.5 -27zM386 125q44 0 79 17t59.5 46t37.5 67t13 81t-13 81t-37.5 66.5t-59.5 45
t-79 16.5t-79.5 -16.5t-60 -45t-37.5 -66.5t-13 -81t13 -81t37.5 -67t60 -46t79.5 -17zM227 848h317v-106h-317v106z" />
    <glyph glyph-name="omacron" unicode="&#x14d;" horiz-adv-x="567" 
d="M284 109q27 0 48 10.5t35.5 28.5t21.5 40.5t7 46.5t-7 46.5t-21.5 40t-35.5 28t-48 10.5t-48.5 -10.5t-35.5 -28t-21.5 -40t-7.5 -46.5t7.5 -46.5t21.5 -40.5t35.5 -28.5t48.5 -10.5zM32 235q0 52 18.5 97.5t51.5 79.5t79.5 53.5t102.5 19.5t102 -19.5t79 -53.5
t51.5 -79.5t18.5 -97.5t-18.5 -97.5t-51.5 -79.5t-79 -54t-102 -20t-102.5 20t-79.5 54t-51.5 79.5t-18.5 97.5zM148 654h273v-102h-273v102z" />
    <glyph glyph-name="Obreve" unicode="&#x14e;" horiz-adv-x="772" 
d="M386 -17q-74 0 -137.5 27t-110 74t-73 111.5t-26.5 138.5q0 75 26.5 139t73 111t110 74t137.5 27t137.5 -27t110 -74t73 -111t26.5 -139q0 -74 -26.5 -138.5t-73 -111.5t-110 -74t-137.5 -27zM386 125q44 0 79 17t59.5 46t37.5 67t13 81t-13 81t-37.5 66.5t-59.5 45
t-79 16.5t-79.5 -16.5t-60 -45t-37.5 -66.5t-13 -81t13 -81t37.5 -67t60 -46t79.5 -17zM328 863q1 -23 15.5 -40t41.5 -17t41.5 17t14.5 40h106q0 -65 -43.5 -107t-118.5 -42t-118.5 42t-43.5 107h105z" />
    <glyph glyph-name="obreve" unicode="&#x14f;" horiz-adv-x="567" 
d="M284 109q27 0 48 10.5t35.5 28.5t21.5 40.5t7 46.5t-7 46.5t-21.5 40t-35.5 28t-48 10.5t-48.5 -10.5t-35.5 -28t-21.5 -40t-7.5 -46.5t7.5 -46.5t21.5 -40.5t35.5 -28.5t48.5 -10.5zM32 235q0 52 18.5 97.5t51.5 79.5t79.5 53.5t102.5 19.5t102 -19.5t79 -53.5
t51.5 -79.5t18.5 -97.5t-18.5 -97.5t-51.5 -79.5t-79 -54t-102 -20t-102.5 20t-79.5 54t-51.5 79.5t-18.5 97.5zM232 682q1 -22 12.5 -39t39.5 -17q29 0 40.5 17t11.5 39h104q0 -31 -11 -57t-31.5 -45t-49.5 -29.5t-64 -10.5t-64 10.5t-49 29.5t-31.5 45t-11.5 57h104z" />
    <glyph glyph-name="Ohungarumlaut" unicode="&#x150;" horiz-adv-x="772" 
d="M386 -17q-74 0 -137.5 27t-110 74t-73 111.5t-26.5 138.5q0 75 26.5 139t73 111t110 74t137.5 27t137.5 -27t110 -74t73 -111t26.5 -139q0 -74 -26.5 -138.5t-73 -111.5t-110 -74t-137.5 -27zM386 125q44 0 79 17t59.5 46t37.5 67t13 81t-13 81t-37.5 66.5t-59.5 45
t-79 16.5t-79.5 -16.5t-60 -45t-37.5 -66.5t-13 -81t13 -81t37.5 -67t60 -46t79.5 -17zM309 873h150l-115 -156h-107zM503 873h150l-115 -156h-107z" />
    <glyph glyph-name="ohungarumlaut" unicode="&#x151;" horiz-adv-x="567" 
d="M284 109q27 0 48 10.5t35.5 28.5t21.5 40.5t7 46.5t-7 46.5t-21.5 40t-35.5 28t-48 10.5t-48.5 -10.5t-35.5 -28t-21.5 -40t-7.5 -46.5t7.5 -46.5t21.5 -40.5t35.5 -28.5t48.5 -10.5zM32 235q0 52 18.5 97.5t51.5 79.5t79.5 53.5t102.5 19.5t102 -19.5t79 -53.5
t51.5 -79.5t18.5 -97.5t-18.5 -97.5t-51.5 -79.5t-79 -54t-102 -20t-102.5 20t-79.5 54t-51.5 79.5t-18.5 97.5zM367 682h131l-81 -142h-97zM195 682h131l-80 -142h-98z" />
    <glyph glyph-name="OE" unicode="&#x152;" horiz-adv-x="1076" 
d="M582 80q-32 -42 -85 -68.5t-126 -26.5q-71 0 -131.5 26.5t-105 73.5t-70 111t-25.5 138q0 75 26 138.5t71.5 110.5t106.5 73.5t131 26.5q40 0 73.5 -8t60 -21.5t45 -30.5t29.5 -36v80h435v-132h-305v-130h238v-128h-238v-144h327v-133h-457v80zM386 125q44 0 79 17
t59.5 46t37.5 67t13 81t-13 81t-37.5 66.5t-59.5 45t-80 16.5q-44 0 -79 -16.5t-59.5 -45t-37.5 -66.5t-13 -81t13 -81t37.5 -67t60 -46t79.5 -17z" />
    <glyph glyph-name="oe" unicode="&#x153;" horiz-adv-x="895" 
d="M856 51q-8 -5 -24 -16.5t-41.5 -22.5t-60.5 -19.5t-80 -8.5q-63 0 -111 20t-82 57q-29 -35 -74 -56t-99 -21q-56 0 -102.5 20t-79.5 54t-51.5 79.5t-18.5 97.5t18.5 97.5t51.5 79.5t79.5 53.5t102.5 19.5q55 0 99 -21t74 -56q31 36 75.5 56.5t101.5 20.5q58 0 102 -20.5
t72.5 -56.5t43 -85t14.5 -107v-24h-334q1 -38 33.5 -66.5t89.5 -28.5q56 0 91 16.5t51 28.5zM730 284q0 15 -6 30.5t-18 28.5t-30 21.5t-43 8.5t-44 -8.5t-31.5 -21.5t-19 -28.5t-6.5 -30.5h198zM284 109q27 0 48 10.5t35.5 28.5t21.5 40.5t7 46.5t-7 46.5t-21.5 40
t-35.5 28t-48 10.5t-48.5 -10.5t-35.5 -28t-21.5 -40t-7.5 -46.5t7.5 -46.5t21.5 -40.5t35.5 -28.5t48.5 -10.5z" />
    <glyph glyph-name="Racute" unicode="&#x154;" horiz-adv-x="607" 
d="M65 667h248q58 0 102 -16.5t73.5 -45t44 -66.5t14.5 -81q0 -65 -28.5 -113.5t-80.5 -77.5l148 -267h-166l-124 245h-84v-245h-147v667zM305 366q42 0 66 25t24 63q0 41 -24 65t-66 24h-93v-177h93zM275 873h163l-119 -156h-117z" />
    <glyph glyph-name="racute" unicode="&#x155;" horiz-adv-x="393" 
d="M53 469h138l5 -59q18 24 49.5 46t81.5 22q19 0 32.5 -2t26.5 -7l-23 -127q-22 7 -52 7q-51 0 -82.5 -30.5t-31.5 -86.5v-232h-144v469zM205 682h142l-84 -142h-106z" />
    <glyph glyph-name="uni0156" unicode="&#x156;" horiz-adv-x="607" 
d="M65 667h248q58 0 102 -16.5t73.5 -45t44 -66.5t14.5 -81q0 -65 -28.5 -113.5t-80.5 -77.5l148 -267h-166l-124 245h-84v-245h-147v667zM305 366q42 0 66 25t24 63q0 41 -24 65t-66 24h-93v-177h93zM241 -51h156l-94 -158h-115z" />
    <glyph glyph-name="uni0157" unicode="&#x157;" horiz-adv-x="393" 
d="M53 469h138l5 -59q18 24 49.5 46t81.5 22q19 0 32.5 -2t26.5 -7l-23 -127q-22 7 -52 7q-51 0 -82.5 -30.5t-31.5 -86.5v-232h-144v469zM56 -51h143l-85 -142h-106z" />
    <glyph glyph-name="Rcaron" unicode="&#x158;" horiz-adv-x="607" 
d="M65 667h248q58 0 102 -16.5t73.5 -45t44 -66.5t14.5 -81q0 -65 -28.5 -113.5t-80.5 -77.5l148 -267h-166l-124 245h-84v-245h-147v667zM305 366q42 0 66 25t24 63q0 41 -24 65t-66 24h-93v-177h93zM110 873h120l53 -75l54 75h119l-113 -156h-120z" />
    <glyph glyph-name="rcaron" unicode="&#x159;" horiz-adv-x="393" 
d="M53 469h138l5 -59q18 24 49.5 46t81.5 22q19 0 32.5 -2t26.5 -7l-23 -127q-22 7 -52 7q-51 0 -82.5 -30.5t-31.5 -86.5v-232h-144v469zM51 682h118l49 -67l47 67h119l-106 -142h-122z" />
    <glyph glyph-name="Sacute" unicode="&#x15a;" horiz-adv-x="591" 
d="M115 199q13 -14 30.5 -28.5t39 -26.5t47 -19.5t54.5 -7.5q17 0 34 5t31 14.5t22.5 23t8.5 30.5q0 37 -36 57.5t-114 40.5q-38 9 -70.5 26t-56 41t-36.5 55t-13 69q0 42 15 79t45.5 65.5t76 45t107.5 16.5q51 0 90 -10.5t66.5 -25t45 -30t26.5 -24.5l-87 -96
q-11 9 -25.5 19.5t-32.5 19.5t-39.5 15t-45.5 6q-16 0 -31.5 -5t-28 -13.5t-20 -20t-7.5 -24.5q0 -34 36 -55t99 -35q37 -9 72.5 -24.5t63.5 -40.5t45 -61.5t17 -88.5q0 -45 -20 -83t-54.5 -66t-81 -43.5t-100.5 -15.5q-50 0 -91 9.5t-74 25t-59.5 35.5t-45.5 41zM302 873
h163l-119 -156h-117z" />
    <glyph glyph-name="sacute" unicode="&#x15b;" horiz-adv-x="482" 
d="M101 145q23 -21 60.5 -35t72.5 -14q32 0 53 8t21 31q0 9 -4.5 16.5t-16.5 14t-33.5 13.5t-54.5 16q-27 7 -53.5 18.5t-47 28.5t-33 41t-12.5 56q0 33 15 59.5t41.5 46t63 30t78.5 10.5q60 0 105 -13.5t83 -39.5l-61 -95q-23 15 -52.5 27t-66.5 12q-33 0 -48 -9.5
t-15 -25.5q0 -23 31 -34t84 -25q72 -20 104.5 -55t32.5 -93q0 -39 -17.5 -67t-47 -46.5t-67 -27.5t-76.5 -9q-63 0 -119 17t-91 52zM237 682h142l-84 -142h-106z" />
    <glyph glyph-name="Scircumflex" unicode="&#x15c;" horiz-adv-x="591" 
d="M115 199q13 -14 30.5 -28.5t39 -26.5t47 -19.5t54.5 -7.5q17 0 34 5t31 14.5t22.5 23t8.5 30.5q0 37 -36 57.5t-114 40.5q-38 9 -70.5 26t-56 41t-36.5 55t-13 69q0 42 15 79t45.5 65.5t76 45t107.5 16.5q51 0 90 -10.5t66.5 -25t45 -30t26.5 -24.5l-87 -96
q-11 9 -25.5 19.5t-32.5 19.5t-39.5 15t-45.5 6q-16 0 -31.5 -5t-28 -13.5t-20 -20t-7.5 -24.5q0 -34 36 -55t99 -35q37 -9 72.5 -24.5t63.5 -40.5t45 -61.5t17 -88.5q0 -45 -20 -83t-54.5 -66t-81 -43.5t-100.5 -15.5q-50 0 -91 9.5t-74 25t-59.5 35.5t-45.5 41zM237 873
h120l113 -156h-120l-53 75l-54 -75h-119z" />
    <glyph glyph-name="scircumflex" unicode="&#x15d;" horiz-adv-x="482" 
d="M101 145q23 -21 60.5 -35t72.5 -14q32 0 53 8t21 31q0 9 -4.5 16.5t-16.5 14t-33.5 13.5t-54.5 16q-27 7 -53.5 18.5t-47 28.5t-33 41t-12.5 56q0 33 15 59.5t41.5 46t63 30t78.5 10.5q60 0 105 -13.5t83 -39.5l-61 -95q-23 15 -52.5 27t-66.5 12q-33 0 -48 -9.5
t-15 -25.5q0 -23 31 -34t84 -25q72 -20 104.5 -55t32.5 -93q0 -39 -17.5 -67t-47 -46.5t-67 -27.5t-76.5 -9q-63 0 -119 17t-91 52zM194 682h121l106 -142h-119l-48 66l-47 -66h-119z" />
    <glyph glyph-name="Scedilla" unicode="&#x15e;" horiz-adv-x="591" 
d="M115 199q13 -14 30.5 -28.5t39 -26.5t47 -19.5t54.5 -7.5q17 0 34 5t31 14.5t22.5 23t8.5 30.5q0 37 -36 57.5t-114 40.5q-38 9 -70.5 26t-56 41t-36.5 55t-13 69q0 42 15 79t45.5 65.5t76 45t107.5 16.5q51 0 90 -10.5t66.5 -25t45 -30t26.5 -24.5l-87 -96
q-11 9 -25.5 19.5t-32.5 19.5t-39.5 15t-45.5 6q-16 0 -31.5 -5t-28 -13.5t-20 -20t-7.5 -24.5q0 -34 36 -55t99 -35q37 -9 72.5 -24.5t63.5 -40.5t45 -61.5t17 -88.5q0 -45 -20 -83t-54.5 -66t-81 -43.5t-100.5 -15.5q-50 0 -91 9.5t-74 25t-59.5 35.5t-45.5 41zM184 -135
q36 -12 71 -12q20 0 37.5 5t17.5 22q0 14 -15.5 19.5t-35.5 5.5q-17 0 -34.5 -2.5t-32.5 -7.5l13 68q20 6 40.5 8.5t46.5 2.5q49 0 84 -23t35 -68q0 -27 -12 -47t-31.5 -33t-43.5 -19t-49 -6q-38 0 -65 5t-40 10z" />
    <glyph glyph-name="scedilla" unicode="&#x15f;" horiz-adv-x="482" 
d="M101 145q23 -21 60.5 -35t72.5 -14q32 0 53 8t21 31q0 9 -4.5 16.5t-16.5 14t-33.5 13.5t-54.5 16q-27 7 -53.5 18.5t-47 28.5t-33 41t-12.5 56q0 33 15 59.5t41.5 46t63 30t78.5 10.5q60 0 105 -13.5t83 -39.5l-61 -95q-23 15 -52.5 27t-66.5 12q-33 0 -48 -9.5
t-15 -25.5q0 -23 31 -34t84 -25q72 -20 104.5 -55t32.5 -93q0 -39 -17.5 -67t-47 -46.5t-67 -27.5t-76.5 -9q-63 0 -119 17t-91 52zM132 -144q18 -6 35.5 -9.5t34.5 -3.5q21 0 38.5 6.5t17.5 23.5q0 15 -15.5 21t-36.5 6q-36 0 -66 -12l13 68q20 5 40 8.5t46 3.5
q49 0 83 -23.5t34 -69.5q0 -27 -11.5 -47t-30.5 -33t-43 -19.5t-49 -6.5q-38 0 -64.5 5.5t-39.5 10.5z" />
    <glyph glyph-name="Scaron" unicode="&#x160;" horiz-adv-x="591" 
d="M115 199q13 -14 30.5 -28.5t39 -26.5t47 -19.5t54.5 -7.5q17 0 34 5t31 14.5t22.5 23t8.5 30.5q0 37 -36 57.5t-114 40.5q-38 9 -70.5 26t-56 41t-36.5 55t-13 69q0 42 15 79t45.5 65.5t76 45t107.5 16.5q51 0 90 -10.5t66.5 -25t45 -30t26.5 -24.5l-87 -96
q-11 9 -25.5 19.5t-32.5 19.5t-39.5 15t-45.5 6q-16 0 -31.5 -5t-28 -13.5t-20 -20t-7.5 -24.5q0 -34 36 -55t99 -35q37 -9 72.5 -24.5t63.5 -40.5t45 -61.5t17 -88.5q0 -45 -20 -83t-54.5 -66t-81 -43.5t-100.5 -15.5q-50 0 -91 9.5t-74 25t-59.5 35.5t-45.5 41zM127 873
h120l53 -75l54 75h119l-113 -156h-120z" />
    <glyph glyph-name="scaron" unicode="&#x161;" horiz-adv-x="482" 
d="M101 145q23 -21 60.5 -35t72.5 -14q32 0 53 8t21 31q0 9 -4.5 16.5t-16.5 14t-33.5 13.5t-54.5 16q-27 7 -53.5 18.5t-47 28.5t-33 41t-12.5 56q0 33 15 59.5t41.5 46t63 30t78.5 10.5q60 0 105 -13.5t83 -39.5l-61 -95q-23 15 -52.5 27t-66.5 12q-33 0 -48 -9.5
t-15 -25.5q0 -23 31 -34t84 -25q72 -20 104.5 -55t32.5 -93q0 -39 -17.5 -67t-47 -46.5t-67 -27.5t-76.5 -9q-63 0 -119 17t-91 52zM88 682h118l49 -67l47 67h119l-106 -142h-122z" />
    <glyph glyph-name="uni0162" unicode="&#x162;" horiz-adv-x="625" 
d="M237 534h-216v133h583v-133h-215v-534h-152v534zM199 -144q36 -12 71 -12q20 0 37.5 5t17.5 22q0 14 -15.5 19.5t-35.5 5.5q-17 0 -34.5 -2.5t-32.5 -7.5l13 68q20 6 40.5 8.5t46.5 2.5q49 0 84 -23t35 -68q0 -27 -12 -47t-31.5 -33t-43.5 -19t-49 -6q-38 0 -65 5t-40 10
z" />
    <glyph glyph-name="uni0163" unicode="&#x163;" horiz-adv-x="418" 
d="M88 356h-74v113h74v154h144v-154h121v-113h-121v-185q0 -34 13.5 -52.5t42.5 -18.5q22 0 38 7.5t30 17.5l58 -88q-68 -54 -148 -54q-50 0 -84 14.5t-55 40t-30 61.5t-9 80v177zM125 -149q18 -6 35.5 -9.5t34.5 -3.5q21 0 38.5 6.5t17.5 23.5q0 15 -15.5 21t-36.5 6
q-36 0 -66 -12l13 68q20 5 40 8.5t46 3.5q49 0 83 -23.5t34 -69.5q0 -27 -11.5 -47t-30.5 -33t-43 -19.5t-49 -6.5q-38 0 -64.5 5.5t-39.5 10.5z" />
    <glyph glyph-name="Tcaron" unicode="&#x164;" horiz-adv-x="625" 
d="M237 534h-216v133h583v-133h-215v-534h-152v534zM139 873h120l53 -75l54 75h119l-113 -156h-120z" />
    <glyph glyph-name="tcaron" unicode="&#x165;" horiz-adv-x="418" 
d="M88 356h-74v113h74v154h144v-154h121v-113h-121v-185q0 -34 13.5 -52.5t42.5 -18.5q22 0 38 7.5t30 17.5l58 -88q-68 -54 -148 -54q-50 0 -84 14.5t-55 40t-30 61.5t-9 80v177zM284 667h123l-38 -152h-85v152z" />
    <glyph glyph-name="Tbar" unicode="&#x166;" horiz-adv-x="625" 
d="M237 239h-125v109h125v186h-216v133h583v-133h-215v-186h125v-109h-125v-239h-152v239z" />
    <glyph glyph-name="tbar" unicode="&#x167;" horiz-adv-x="418" 
d="M14 282h74v74h-74v113h74v142h144v-142h121v-113h-121v-74h121v-85h-121v-26q0 -34 13 -52.5t43 -18.5q22 0 38 7.5t30 17.5l58 -88q-66 -53 -148 -53q-53 0 -87.5 15.5t-54.5 43.5t-28 67.5t-8 86.5h-74v85z" />
    <glyph glyph-name="Utilde" unicode="&#x168;" horiz-adv-x="680" 
d="M60 667h152v-395q0 -33 6.5 -59.5t21.5 -45.5t39.5 -29.5t60.5 -10.5q35 0 59.5 10.5t39.5 29.5t21.5 45.5t6.5 59.5v395h153v-414q0 -60 -19.5 -110t-56 -85.5t-88.5 -55.5t-116 -20t-116 19.5t-88.5 55.5t-56 86t-19.5 110v414zM132 806q21 23 54.5 42.5t74.5 19.5
q20 0 36.5 -6.5t32.5 -14.5t32 -14.5t36 -6.5q31 0 53.5 11.5t39.5 25.5l54 -82q-22 -23 -55 -43t-74 -20q-20 0 -36.5 6.5t-32.5 15t-32 15t-36 6.5q-32 0 -54 -11.5t-39 -25.5z" />
    <glyph glyph-name="utilde" unicode="&#x169;" horiz-adv-x="561" 
d="M51 469h144v-270q0 -40 19.5 -63t57.5 -23q22 0 39 8.5t29 22.5t18 33t6 39v253h143v-469h-138l-4 50q-23 -27 -60.5 -44.5t-78.5 -17.5q-81 0 -128 48t-47 142v291zM81 620q20 22 52.5 41t71.5 19q19 0 35.5 -6.5t31.5 -14.5t31 -14.5t35 -6.5q30 0 51.5 12t38.5 25
l51 -79q-20 -22 -52.5 -41.5t-71.5 -19.5q-20 0 -36 6.5t-31 14.5t-31 14.5t-35 6.5q-30 0 -51.5 -11.5t-38.5 -24.5z" />
    <glyph glyph-name="Umacron" unicode="&#x16a;" horiz-adv-x="680" 
d="M60 667h152v-395q0 -33 6.5 -59.5t21.5 -45.5t39.5 -29.5t60.5 -10.5q35 0 59.5 10.5t39.5 29.5t21.5 45.5t6.5 59.5v395h153v-414q0 -60 -19.5 -110t-56 -85.5t-88.5 -55.5t-116 -20t-116 19.5t-88.5 55.5t-56 86t-19.5 110v414zM181 848h317v-106h-317v106z" />
    <glyph glyph-name="umacron" unicode="&#x16b;" horiz-adv-x="561" 
d="M51 469h144v-270q0 -40 19.5 -63t57.5 -23q22 0 39 8.5t29 22.5t18 33t6 39v253h143v-469h-138l-4 50q-23 -27 -60.5 -44.5t-78.5 -17.5q-81 0 -128 48t-47 142v291zM146 654h273v-102h-273v102z" />
    <glyph glyph-name="Ubreve" unicode="&#x16c;" horiz-adv-x="680" 
d="M60 667h152v-395q0 -33 6.5 -59.5t21.5 -45.5t39.5 -29.5t60.5 -10.5q35 0 59.5 10.5t39.5 29.5t21.5 45.5t6.5 59.5v395h153v-414q0 -60 -19.5 -110t-56 -85.5t-88.5 -55.5t-116 -20t-116 19.5t-88.5 55.5t-56 86t-19.5 110v414zM283 863q1 -23 15.5 -40t41.5 -17
t41.5 17t14.5 40h106q0 -65 -43.5 -107t-118.5 -42t-118.5 42t-43.5 107h105z" />
    <glyph glyph-name="ubreve" unicode="&#x16d;" horiz-adv-x="561" 
d="M51 469h144v-270q0 -40 19.5 -63t57.5 -23q22 0 39 8.5t29 22.5t18 33t6 39v253h143v-469h-138l-4 50q-23 -27 -60.5 -44.5t-78.5 -17.5q-81 0 -128 48t-47 142v291zM227 682q1 -22 12.5 -39t39.5 -17q29 0 40.5 17t11.5 39h104q0 -31 -11 -57t-31.5 -45t-49.5 -29.5
t-64 -10.5t-64 10.5t-49 29.5t-31.5 45t-11.5 57h104z" />
    <glyph glyph-name="Uring" unicode="&#x16e;" horiz-adv-x="680" 
d="M60 667h152v-395q0 -33 6.5 -59.5t21.5 -45.5t39.5 -29.5t60.5 -10.5q35 0 59.5 10.5t39.5 29.5t21.5 45.5t6.5 59.5v395h153v-414q0 -60 -19.5 -110t-56 -85.5t-88.5 -55.5t-116 -20t-116 19.5t-88.5 55.5t-56 86t-19.5 110v414zM205 810q0 28 10.5 52.5t29 42.5
t43.5 28t53 10t53 -10t44 -28t29.5 -42.5t10.5 -52.5q0 -29 -10.5 -53t-29 -41.5t-43.5 -27.5t-53 -10q-29 0 -53.5 10t-43.5 27.5t-29.5 41.5t-10.5 53zM342 762q20 0 33 14t13 34q0 21 -13 34.5t-34 13.5q-20 0 -33 -13.5t-13 -34.5q0 -20 13 -34t34 -14z" />
    <glyph glyph-name="uring" unicode="&#x16f;" horiz-adv-x="561" 
d="M51 469h144v-270q0 -40 19.5 -63t57.5 -23q22 0 39 8.5t29 22.5t18 33t6 39v253h143v-469h-138l-4 50q-23 -27 -60.5 -44.5t-78.5 -17.5q-81 0 -128 48t-47 142v291zM159 645q0 25 9.5 46.5t26 37t38.5 24t46 8.5q25 0 47 -8.5t38.5 -24t26 -37t9.5 -46.5t-9.5 -46
t-26 -36.5t-38.5 -24.5t-46 -9q-25 0 -47 9t-38.5 24.5t-26 36.5t-9.5 46zM279 604q17 0 29 12t12 29t-11.5 29t-28.5 12t-29 -12t-12 -29t11.5 -29t28.5 -12z" />
    <glyph glyph-name="Uhungarumlaut" unicode="&#x170;" horiz-adv-x="680" 
d="M60 667h152v-395q0 -33 6.5 -59.5t21.5 -45.5t39.5 -29.5t60.5 -10.5q35 0 59.5 10.5t39.5 29.5t21.5 45.5t6.5 59.5v395h153v-414q0 -60 -19.5 -110t-56 -85.5t-88.5 -55.5t-116 -20t-116 19.5t-88.5 55.5t-56 86t-19.5 110v414zM250 873h150l-115 -156h-107zM444 873
h150l-115 -156h-107z" />
    <glyph glyph-name="uhungarumlaut" unicode="&#x171;" horiz-adv-x="561" 
d="M51 469h144v-270q0 -40 19.5 -63t57.5 -23q22 0 39 8.5t29 22.5t18 33t6 39v253h143v-469h-138l-4 50q-23 -27 -60.5 -44.5t-78.5 -17.5q-81 0 -128 48t-47 142v291zM359 682h131l-81 -142h-97zM187 682h131l-80 -142h-98z" />
    <glyph glyph-name="Uogonek" unicode="&#x172;" horiz-adv-x="680" 
d="M60 667h152v-395q0 -33 6.5 -59.5t21.5 -45.5t39.5 -29.5t60.5 -10.5q35 0 59.5 10.5t39.5 29.5t21.5 45.5t6.5 59.5v395h153v-414q0 -92 -44.5 -158.5t-124.5 -94.5q-8 -8 -16.5 -18t-16 -21t-12 -21.5t-4.5 -19.5q0 -22 25 -22q14 0 26.5 4.5t23.5 12.5l31 -80
q-26 -17 -56 -26.5t-59 -9.5q-47 0 -74.5 20.5t-27.5 62.5q0 27 13 52t33 48q-63 0 -114.5 20t-87.5 56t-55.5 85.5t-19.5 109.5v414z" />
    <glyph glyph-name="uogonek" unicode="&#x173;" horiz-adv-x="561" 
d="M51 469h144v-270q0 -40 19.5 -63t57.5 -23q22 0 39 8.5t29 22.5t18 33t6 39v253h143v-469h-138l-4 50q-23 -27 -60.5 -44.5t-78.5 -17.5q-81 0 -128 48t-47 142v291zM507 0q-8 -8 -16.5 -18t-16.5 -20.5t-13 -21t-5 -18.5q0 -21 25 -21q14 0 27 4.5t25 12.5l30 -78
q-25 -17 -55 -26t-58 -9q-45 0 -72 20t-27 60q0 32 19 61t42 54h95z" />
    <glyph glyph-name="Wcircumflex" unicode="&#x174;" horiz-adv-x="911" 
d="M13 667h162l98 -483l117 465h137l118 -465l97 483h156l-170 -667h-159l-114 436l-116 -436h-159zM398 873h120l113 -156h-120l-53 75l-54 -75h-119z" />
    <glyph glyph-name="wcircumflex" unicode="&#x175;" horiz-adv-x="769" 
d="M7 469h148l82 -301l91 301h115l92 -301l82 301h145l-161 -469h-130l-88 262l-87 -262h-128zM328 682h121l106 -142h-119l-48 66l-47 -66h-119z" />
    <glyph glyph-name="Ycircumflex" unicode="&#x176;" horiz-adv-x="643" 
d="M245 279l-234 388h171l145 -252l141 252h164l-234 -387v-280h-153v279zM263 873h120l113 -156h-120l-53 75l-54 -75h-119z" />
    <glyph glyph-name="ycircumflex" unicode="&#x177;" horiz-adv-x="550" 
d="M79 -74q12 -9 26.5 -16t31.5 -7q23 0 38.5 14.5t29.5 49.5l14 38l-214 464h164l117 -296l106 296h153l-192 -466q-16 -39 -31.5 -77.5t-38 -69t-55 -49.5t-81.5 -19q-38 0 -69 10t-57 29zM217 682h121l106 -142h-119l-48 66l-47 -66h-119z" />
    <glyph glyph-name="Ydieresis" unicode="&#x178;" horiz-adv-x="643" 
d="M245 279l-234 388h171l145 -252l141 252h164l-234 -387v-280h-153v279zM366 856h132v-122h-132v122zM147 856h132v-122h-132v122z" />
    <glyph glyph-name="Zacute" unicode="&#x179;" horiz-adv-x="635" 
d="M39 123l365 411h-348v133h533v-124l-358 -411h365v-132h-557v123zM324 873h163l-119 -156h-117z" />
    <glyph glyph-name="zacute" unicode="&#x17a;" horiz-adv-x="490" 
d="M40 97l230 256h-220v116h402v-99l-231 -257h232v-113h-413v97zM258 682h142l-84 -142h-106z" />
    <glyph glyph-name="Zdotaccent" unicode="&#x17b;" horiz-adv-x="635" 
d="M39 123l365 411h-348v133h533v-124l-358 -411h365v-132h-557v123zM258 860h139v-130h-139v130z" />
    <glyph glyph-name="zdotaccent" unicode="&#x17c;" horiz-adv-x="490" 
d="M40 97l230 256h-220v116h402v-99l-231 -257h232v-113h-413v97zM185 679h154v-129h-154v129z" />
    <glyph glyph-name="Zcaron" unicode="&#x17d;" horiz-adv-x="635" 
d="M39 123l365 411h-348v133h533v-124l-358 -411h365v-132h-557v123zM159 873h120l53 -75l54 75h119l-113 -156h-120z" />
    <glyph glyph-name="zcaron" unicode="&#x17e;" horiz-adv-x="490" 
d="M40 97l230 256h-220v116h402v-99l-231 -257h232v-113h-413v97zM96 682h118l49 -67l47 67h119l-106 -142h-122z" />
    <glyph glyph-name="longs" unicode="&#x17f;" horiz-adv-x="272" 
d="M53 481q0 94 49 149t144 55q38 0 77 -10t73 -41l-62 -93q-14 10 -31.5 17.5t-34.5 7.5q-38 0 -55 -20.5t-17 -65.5q0 -121 0.5 -240t0.5 -240h-144v481z" />
    <glyph glyph-name="florin" unicode="&#x192;" 
d="M-28 -49q13 -11 30 -18.5t37 -7.5q30 0 49 18t30 74l47 259h-73l5 114h89l15 75q17 85 64.5 134t142.5 49q53 0 90.5 -18t58.5 -38l-71 -94q-14 11 -31 18.5t-37 7.5q-32 0 -50 -18t-29 -75l-8 -41h101l-5 -114h-116l-44 -247q-9 -52 -24 -94t-40 -72t-63 -46t-94 -16
q-42 0 -81.5 16.5t-64.5 36.5z" />
    <glyph glyph-name="uni0218" unicode="&#x218;" horiz-adv-x="591" 
d="M115 199q13 -14 30.5 -28.5t39 -26.5t47 -19.5t54.5 -7.5q17 0 34 5t31 14.5t22.5 23t8.5 30.5q0 37 -36 57.5t-114 40.5q-38 9 -70.5 26t-56 41t-36.5 55t-13 69q0 42 15 79t45.5 65.5t76 45t107.5 16.5q51 0 90 -10.5t66.5 -25t45 -30t26.5 -24.5l-87 -96
q-11 9 -25.5 19.5t-32.5 19.5t-39.5 15t-45.5 6q-16 0 -31.5 -5t-28 -13.5t-20 -20t-7.5 -24.5q0 -34 36 -55t99 -35q37 -9 72.5 -24.5t63.5 -40.5t45 -61.5t17 -88.5q0 -45 -20 -83t-54.5 -66t-81 -43.5t-100.5 -15.5q-50 0 -91 9.5t-74 25t-59.5 35.5t-45.5 41zM229 -51
h156l-94 -158h-115z" />
    <glyph glyph-name="uni0219" unicode="&#x219;" horiz-adv-x="482" 
d="M101 145q23 -21 60.5 -35t72.5 -14q32 0 53 8t21 31q0 9 -4.5 16.5t-16.5 14t-33.5 13.5t-54.5 16q-27 7 -53.5 18.5t-47 28.5t-33 41t-12.5 56q0 33 15 59.5t41.5 46t63 30t78.5 10.5q60 0 105 -13.5t83 -39.5l-61 -95q-23 15 -52.5 27t-66.5 12q-33 0 -48 -9.5
t-15 -25.5q0 -23 31 -34t84 -25q72 -20 104.5 -55t32.5 -93q0 -39 -17.5 -67t-47 -46.5t-67 -27.5t-76.5 -9q-63 0 -119 17t-91 52zM184 -51h143l-85 -142h-106z" />
    <glyph glyph-name="uni021A" unicode="&#x21a;" horiz-adv-x="625" 
d="M237 534h-216v133h583v-133h-215v-534h-152v534zM235 -51h156l-94 -158h-115z" />
    <glyph glyph-name="uni021B" unicode="&#x21b;" horiz-adv-x="418" 
d="M88 356h-74v113h74v154h144v-154h121v-113h-121v-185q0 -34 13.5 -52.5t42.5 -18.5q22 0 38 7.5t30 17.5l58 -88q-68 -54 -148 -54q-50 0 -84 14.5t-55 40t-30 61.5t-9 80v177zM173 -51h143l-85 -142h-106z" />
    <glyph glyph-name="uni0237" unicode="&#x237;" horiz-adv-x="265" 
d="M-54 -66q11 -7 25.5 -12.5t31.5 -5.5q34 0 47.5 21t13.5 59v473h143v-451q0 -44 -7 -84.5t-27 -71.5t-55 -49.5t-91 -18.5q-43 0 -77 12.5t-57 30.5z" />
    <glyph glyph-name="uni02BC" unicode="&#x2bc;" horiz-adv-x="236" 
d="M64 682h128l-41 -149h-94z" />
    <glyph glyph-name="circumflex" unicode="&#x2c6;" horiz-adv-x="444" 
d="M162 682h121l106 -142h-119l-48 66l-47 -66h-119z" />
    <glyph glyph-name="caron" unicode="&#x2c7;" horiz-adv-x="444" 
d="M56 682h118l49 -67l47 67h119l-106 -142h-122z" />
    <glyph glyph-name="uni02C9" unicode="&#x2c9;" horiz-adv-x="393" 
d="M60 654h273v-102h-273v102z" />
    <glyph glyph-name="breve" unicode="&#x2d8;" horiz-adv-x="450" 
d="M180 682q1 -22 12.5 -39t39.5 -17q29 0 40.5 17t11.5 39h104q0 -31 -11 -57t-31.5 -45t-49.5 -29.5t-64 -10.5t-64 10.5t-49 29.5t-31.5 45t-11.5 57h104z" />
    <glyph glyph-name="dotaccent" unicode="&#x2d9;" horiz-adv-x="349" 
d="M98 679h154v-129h-154v129z" />
    <glyph glyph-name="ring" unicode="&#x2da;" horiz-adv-x="377" 
d="M68 645q0 25 9.5 46.5t26 37t38.5 24t46 8.5q25 0 47 -8.5t38.5 -24t26 -37t9.5 -46.5t-9.5 -46t-26 -36.5t-38.5 -24.5t-46 -9q-25 0 -47 9t-38.5 24.5t-26 36.5t-9.5 46zM188 604q17 0 29 12t12 29t-11.5 29t-28.5 12t-29 -12t-12 -29t11.5 -29t28.5 -12z" />
    <glyph glyph-name="ogonek" unicode="&#x2db;" horiz-adv-x="369" 
d="M243 0q-8 -8 -16.5 -18t-16.5 -20.5t-13 -21t-5 -18.5q0 -21 25 -21q14 0 27 4.5t25 12.5l30 -78q-25 -17 -55 -26t-58 -9q-45 0 -72 20t-27 60q0 32 19 61t42 54h95z" />
    <glyph glyph-name="tilde" unicode="&#x2dc;" horiz-adv-x="451" 
d="M26 620q20 22 52.5 41t71.5 19q19 0 35.5 -6.5t31.5 -14.5t31 -14.5t35 -6.5q30 0 51.5 12t38.5 25l51 -79q-20 -22 -52.5 -41.5t-71.5 -19.5q-20 0 -36 6.5t-31 14.5t-31 14.5t-35 6.5q-30 0 -51.5 -11.5t-38.5 -24.5z" />
    <glyph glyph-name="hungarumlaut" unicode="&#x2dd;" horiz-adv-x="442" 
d="M265 682h131l-81 -142h-97zM93 682h131l-80 -142h-98z" />
    <glyph glyph-name="uni0312" unicode="&#x312;" horiz-adv-x="310" 
d="M145 682h106l-48 -142h-143z" />
    <glyph glyph-name="uni0315" unicode="&#x315;" horiz-adv-x="371" 
d="M110 667h127l-37 -181h-90v181z" />
    <glyph glyph-name="uni0326" unicode="&#x326;" horiz-adv-x="310" 
d="M108 -51h143l-85 -142h-106z" />
    <glyph glyph-name="uni037E" unicode="&#x37e;" horiz-adv-x="283" 
d="M115 0h-57v160h165v-159l-84 -144h-87zM60 469h163v-159h-163v159z" />
    <glyph glyph-name="tonos" unicode="&#x384;" horiz-adv-x="391" 
d="M115 540l27 154h134l-63 -154h-98z" />
    <glyph glyph-name="dieresistonos" unicode="&#x385;" horiz-adv-x="499" 
d="M183 540l18 154h121l-45 -154h-94zM347 556v112h120v-112h-120zM32 556v112h120v-112h-120z" />
    <glyph glyph-name="Alphatonos" unicode="&#x386;" horiz-adv-x="680" 
d="M262 667h167l244 -667h-165l-51 153h-235l-51 -153h-158zM421 270l-81 252l-83 -252h164zM8 515l21 152h141l-57 -152h-105z" />
    <glyph glyph-name="anoteleia" unicode="&#x387;" horiz-adv-x="283" 
d="M60 469h163v-159h-163v159z" />
    <glyph glyph-name="Epsilontonos" unicode="&#x388;" horiz-adv-x="758" 
d="M243 667h456v-132h-305v-130h237v-128h-237v-144h327v-133h-478v667zM15 515l21 152h141l-57 -152h-105z" />
    <glyph glyph-name="Etatonos" unicode="&#x389;" horiz-adv-x="899" 
d="M243 667h151v-256h289v256h151v-667h-151v274h-289v-274h-151v667zM15 515l21 152h141l-57 -152h-105z" />
    <glyph glyph-name="Iotatonos" unicode="&#x38a;" horiz-adv-x="459" 
d="M243 667h151v-667h-151v667zM15 515l21 152h141l-57 -152h-105z" />
    <glyph glyph-name="Omicrontonos" unicode="&#x38c;" horiz-adv-x="897" 
d="M511 -17q-74 0 -137.5 27t-110 74t-73 111.5t-26.5 138.5q0 75 26.5 139t73 111t110 74t137.5 27t137.5 -27t110 -74t73 -111t26.5 -139q0 -74 -26.5 -138.5t-73 -111.5t-110 -74t-137.5 -27zM511 125q44 0 79 17t59.5 46t37.5 67t13 81t-13 81t-37.5 66.5t-59.5 45
t-79 16.5t-79.5 -16.5t-60 -45t-37.5 -66.5t-13 -81t13 -81t37.5 -67t60 -46t79.5 -17zM15 515l21 152h141l-57 -152h-105z" />
    <glyph glyph-name="Upsilontonos" unicode="&#x38e;" horiz-adv-x="858" 
d="M460 279l-234 388h171l145 -252l141 252h164l-234 -387v-280h-153v279zM15 515l21 152h141l-57 -152h-105z" />
    <glyph glyph-name="Omegatonos" unicode="&#x38f;" horiz-adv-x="915" 
d="M158 132h125q-57 42 -85.5 100.5t-28.5 130.5q0 71 27 130t74.5 102t111 66.5t135.5 23.5t134.5 -23.5t109 -65.5t73 -101t26.5 -131t-28.5 -131t-85.5 -101h124v-132h-299v133q31 11 56 33.5t41.5 51.5t25.5 62.5t9 68.5q0 42 -13 78t-37 62t-59 41t-80 15
q-47 0 -82.5 -16.5t-59 -44t-35 -63t-11.5 -74.5q0 -33 8.5 -66.5t25.5 -63t41.5 -51.5t56.5 -33v-133h-300v132zM15 515l21 152h141l-57 -152h-105z" />
    <glyph glyph-name="iotadieresistonos" unicode="&#x390;" horiz-adv-x="334" 
d="M327 1q-25 -10 -53 -14t-53 -4q-88 0 -128 44.5t-40 149.5v292h144v-297q0 -38 13 -55t45 -17q11 0 23 2.5t22 6.5zM76 540l18 154h121l-45 -154h-94zM240 556v112h120v-112h-120zM-75 556v112h120v-112h-120z" />
    <glyph glyph-name="Alpha" unicode="&#x391;" horiz-adv-x="674" 
d="M256 667h167l244 -667h-165l-51 153h-235l-51 -153h-158zM415 270l-81 252l-83 -252h164z" />
    <glyph glyph-name="Beta" unicode="&#x392;" horiz-adv-x="614" 
d="M65 667h250q62 0 105 -14.5t70 -38.5t39 -55.5t12 -65.5q0 -32 -11.5 -56.5t-27 -42t-32.5 -27.5t-29 -13q19 -5 40 -15q41 -18 68 -56t27 -92q0 -52 -18.5 -88t-52 -59t-82 -33.5t-108.5 -10.5h-250v667zM310 116q16 0 36 2.5t37 11.5t28.5 26t11.5 47q0 27 -11 44
t-28 26.5t-37 13t-37 3.5h-98v-174h98zM301 400q17 0 33.5 4t29 12.5t20.5 23t8 35.5q0 22 -8 36.5t-21 23t-29.5 12t-32.5 3.5h-89v-150h89z" />
    <glyph glyph-name="Gamma" unicode="&#x393;" horiz-adv-x="523" 
d="M65 0v667h438v-134h-287v-533h-151z" />
    <glyph glyph-name="uni0394" unicode="&#x394;" horiz-adv-x="705" 
d="M22 125l256 542h149l256 -542v-125h-661v125zM527 134l-178 381l-172 -381h350z" />
    <glyph glyph-name="Epsilon" unicode="&#x395;" horiz-adv-x="580" 
d="M65 667h456v-132h-305v-130h237v-128h-237v-144h327v-133h-478v667z" />
    <glyph glyph-name="Zeta" unicode="&#x396;" horiz-adv-x="635" 
d="M39 123l365 411h-348v133h533v-124l-358 -411h365v-132h-557v123z" />
    <glyph glyph-name="Eta" unicode="&#x397;" horiz-adv-x="721" 
d="M65 667h151v-256h289v256h151v-667h-151v274h-289v-274h-151v667z" />
    <glyph glyph-name="Theta" unicode="&#x398;" horiz-adv-x="772" 
d="M386 -17q-74 0 -137.5 27t-110 74t-73 111t-26.5 139t26.5 139t73 111.5t110 74t137.5 26.5t137.5 -26.5t110 -74t73 -111.5t26.5 -139t-26.5 -139t-73 -111t-110 -74t-137.5 -27zM386 121q45 0 81 17t60.5 46.5t38 68.5t13.5 83t-13.5 83t-38 68t-60.5 46t-81 17
t-81 -17t-61 -46t-38 -68t-13 -83t13 -83t38 -68.5t61 -46.5t81 -17zM260 277v116h252v-116h-252z" />
    <glyph glyph-name="Iota" unicode="&#x399;" horiz-adv-x="281" 
d="M65 667h151v-667h-151v667z" />
    <glyph glyph-name="Kappa" unicode="&#x39a;" horiz-adv-x="654" 
d="M65 667h151v-266l223 266h175l-229 -260l260 -407h-183l-178 291l-68 -76v-215h-151v667z" />
    <glyph glyph-name="Lambda" unicode="&#x39b;" horiz-adv-x="663" 
d="M491 0l-161 491l-158 -491h-165l243 667h162l243 -667h-164z" />
    <glyph glyph-name="Mu" unicode="&#x39c;" horiz-adv-x="801" 
d="M85 667h143l174 -313l170 313h144l31 -667h-151l-19 436l-138 -260h-78l-146 257l-17 -433h-144z" />
    <glyph glyph-name="Nu" unicode="&#x39d;" horiz-adv-x="712" 
d="M65 667h144l289 -433v433h149v-667h-137l-296 441v-441h-149v667z" />
    <glyph glyph-name="Xi" unicode="&#x39e;" horiz-adv-x="603" 
d="M46 0v136h511v-136h-511zM97 271v132h410v-132h-410zM57 530v137h489v-137h-489z" />
    <glyph glyph-name="Omicron" unicode="&#x39f;" horiz-adv-x="772" 
d="M386 -17q-74 0 -137.5 27t-110 74t-73 111.5t-26.5 138.5q0 75 26.5 139t73 111t110 74t137.5 27t137.5 -27t110 -74t73 -111t26.5 -139q0 -74 -26.5 -138.5t-73 -111.5t-110 -74t-137.5 -27zM386 125q44 0 79 17t59.5 46t37.5 67t13 81t-13 81t-37.5 66.5t-59.5 45
t-79 16.5t-79.5 -16.5t-60 -45t-37.5 -66.5t-13 -81t13 -81t37.5 -67t60 -46t79.5 -17z" />
    <glyph glyph-name="Pi" unicode="&#x3a0;" horiz-adv-x="707" 
d="M490 0v532h-274v-532h-151v667h577v-667h-152z" />
    <glyph glyph-name="Rho" unicode="&#x3a1;" horiz-adv-x="578" 
d="M65 667h243q62 0 106 -18t72.5 -47.5t42 -68.5t13.5 -81q0 -54 -18.5 -94.5t-50 -67.5t-72.5 -41t-86 -14h-103v-235h-147v667zM300 357q42 0 66.5 25.5t24.5 66.5q0 42 -25 68.5t-67 26.5h-87v-187h88z" />
    <glyph glyph-name="Sigma" unicode="&#x3a3;" horiz-adv-x="593" 
d="M44 0v128l193 212l-185 199v128h501v-133h-309l174 -190l-190 -210h333v-134h-517z" />
    <glyph glyph-name="Tau" unicode="&#x3a4;" horiz-adv-x="625" 
d="M237 534h-216v133h583v-133h-215v-534h-152v534z" />
    <glyph glyph-name="Upsilon" unicode="&#x3a5;" horiz-adv-x="643" 
d="M245 279l-234 388h171l145 -252l141 252h164l-234 -387v-280h-153v279z" />
    <glyph glyph-name="Phi" unicode="&#x3a6;" horiz-adv-x="824" 
d="M343 705h138v-74q69 -6 125 -28.5t95.5 -59.5t61.5 -88t22 -115q0 -62 -20.5 -113.5t-59.5 -89.5t-95.5 -61.5t-128.5 -29.5v-80h-138v80q-69 6 -125 28.5t-95.5 59.5t-61.5 88t-22 115q0 62 20.5 113.5t59.5 89.5t95.5 61.5t128.5 29.5v74zM185 338q0 -66 38.5 -109.5
t119.5 -54.5v329q-81 -10 -119.5 -54.5t-38.5 -110.5zM639 339q0 66 -38.5 109.5t-119.5 54.5v-329q81 10 119.5 54.5t38.5 110.5z" />
    <glyph glyph-name="Chi" unicode="&#x3a7;" horiz-adv-x="654" 
d="M234 343l-220 324h185l125 -196l120 196h167l-206 -314l240 -353h-186l-144 224l-140 -224h-166z" />
    <glyph glyph-name="Psi" unicode="&#x3a8;" horiz-adv-x="840" 
d="M346 0v173q-81 4 -137 27.5t-91 62t-50.5 89t-15.5 109.5v206h148v-173q0 -38 5 -72.5t21 -61t44.5 -43.5t75.5 -21v371h148v-370q47 4 75.5 21t44.5 43.5t21 60.5t5 72v173h148v-206q0 -56 -16 -106t-51 -89t-91 -63.5t-136 -28.5v-174h-148z" />
    <glyph glyph-name="uni03A9" unicode="&#x3a9;" horiz-adv-x="801" 
d="M44 132h125q-57 42 -85.5 100.5t-28.5 130.5q0 71 27 130t74.5 102t111 66.5t135.5 23.5t134.5 -23.5t109 -65.5t73 -101t26.5 -131t-28.5 -131t-85.5 -101h124v-132h-299v133q31 11 56 33.5t41.5 51.5t25.5 62.5t9 68.5q0 42 -13 78t-37 62t-59 41t-80 15
q-47 0 -82.5 -16.5t-59 -44t-35 -63t-11.5 -74.5q0 -33 8.5 -66.5t25.5 -63t41.5 -51.5t56.5 -33v-133h-300v132z" />
    <glyph glyph-name="Iotadieresis" unicode="&#x3aa;" horiz-adv-x="281" 
d="M65 667h151v-667h-151v667zM185 856h132v-122h-132v122zM-34 856h132v-122h-132v122z" />
    <glyph glyph-name="Upsilondieresis" unicode="&#x3ab;" horiz-adv-x="643" 
d="M245 279l-234 388h171l145 -252l141 252h164l-234 -387v-280h-153v279zM365 856h132v-122h-132v122zM146 856h132v-122h-132v122z" />
    </font>
</defs>
</svg>
